<svg height="512" viewBox="0 0 60 60" width="512" xmlns="http://www.w3.org/2000/svg"><g id="Page-1" fill="none" fill-rule="evenodd"><g id="001---Wine-Barrel" fill="rgb(0,0,0)" fill-rule="nonzero" transform="translate(0 -1)"><path id="Shape" d="m56.878 27.761c-1.8857585-3.4612219-2.8751588-7.3394097-2.878-11.281v-3.815c1.3939546-.6590732 2.1906483-2.1543767 1.9601399-3.67895946-.2305084-1.52458279-1.4336496-2.71752237-2.9601399-2.93504054v-3.051c0-1.1045695-.8954305-2-2-2h-4c-1.1045695 0-2 .8954305-2 2v3.049c-1.7259531.23148226-3.0109242 1.70962737-3 3.451.0031238 1.3511595.7806756 2.5808576 2 3.163v3.817c-.0022008 1.9639488-.2470557 3.9201015-.729 5.824-.4865459 1.9013114-1.2084571 3.7344753-2.149 5.457-2.0452587 3.7553877-3.1185079 7.9627858-3.122 12.239v16c.0033061 2.7600532 2.2399468 4.9966939 5 5h12c2.7600532-.0033061 4.9966939-2.2399468 5-5v-16c-.0019478-2.1299127-.2676361-4.2513881-.791-6.316-.526802-2.063866-1.3098902-4.0536691-2.331-5.923zm-16.878 13.239h18v10h-18zm7-38h4v3h-4zm-4.122 25.718c1.0213428-1.869687 1.8047597-3.8598081 2.332-5.924.5226309-2.0640491.7879783-4.1848129.79-6.314v-3.48h1c.5522847 0 1-.4477153 1-1s-.4477153-1-1-1h-1.726c-.026-.008-.048-.024-.076-.03-.7556011-.1534204-1.2718269-.8546829-1.1938291-1.62174693.0779977-.76706399.7248119-1.35006453 1.4958291-1.34825307h7c.8284271 0 1.5.67157288 1.5 1.5-.0006069.3979349-.1575498.7796978-.437 1.063-.2086141.2079654-.4740854.3495733-.763.407-.028.006-.049.022-.076.03h-1.724c-.5522847 0-1 .4477153-1 1s.4477153 1 1 1h1v3.48c.003362 4.275913 1.0766244 8.483019 3.122 12.238.9403727 1.7226042 1.6622753 3.5557464 2.149 5.457.3968293 1.5803396.6313772 3.1970449.7 4.825h-17.939c.1521689-3.5995191 1.1256611-7.1165416 2.846-10.282zm12.122 30.282h-12c-1.6568542 0-3-1.3431458-3-3v-3h18v3c0 1.6568542-1.3431458 3-3 3z"/><path id="Shape" d="m51 43h-4c-.5522847 0-1 .4477153-1 1s.4477153 1 1 1h4c.5522847 0 1-.4477153 1-1s-.4477153-1-1-1z"/><path id="Shape" d="m51 47h-4c-.5522847 0-1 .4477153-1 1s.4477153 1 1 1h4c.5522847 0 1-.4477153 1-1s-.4477153-1-1-1z"/><path id="Shape" d="m30 61c2.0050777.0005506 4.0051325-.2004599 5.97-.6.5412391-.1104569.8904569-.6387609.78-1.18s-.6387609-.8904569-1.18-.78c-10.4612501 2.1242473-21.2201939-1.8845311-27.74085032-10.3362303-6.52065644-8.4516991-7.66841424-19.8757014-2.95937761-29.4556364 4.70903662-9.57993492 14.45548303-15.64886884 25.13022793-15.6481333 3.8219948-.01024903 7.6049499.76867477 11.112 2.288.5067213.22091388 1.0965861-.01077876 1.3175-.51750001s-.0107788-1.09658608-.5175-1.31749999c-11.1867708-4.82490711-24.1805602-2.40541774-32.88097794 6.12255398-8.70041773 8.52797172-11.37951661 21.47072722-6.77949971 32.75183602 4.60001689 11.2811087 15.56556285 18.6600852 27.74847765 18.67261z"/><path id="Shape" d="m41 16c.5522847 0 1-.4477153 1-1s-.4477153-1-1-1h-27.923c6.7754025-6.74951854 16.9098888-8.83533724 25.8-5.31.3340573.13971872.7175473.0879356 1.0025836-.1353801.2850363-.22331571.4270836-.58327206.3713638-.9410582-.0557198-.35778615-.3005008-.65749982-.6399474-.7835617-9.7277932-3.8564091-20.8194862-1.50517731-28.1459542 5.9664167-7.32646808 7.471594-9.45971405 18.6072667-5.41326231 28.2575558 4.04645171 9.6502891 13.48390991 15.934263 23.94821651 15.9460275 1.7493568.0034942 3.494359-.1744578 5.207-.531.5404106-.1143229.8858229-.6450894.7715-1.1855s-.6450894-.8858229-1.1855-.7715c-1.5764524.3282342-3.1827436.491779-4.793.488-6.3461714.0036522-12.4337532-2.5144044-16.923-7h21.923c.5522847 0 1-.4477153 1-1s-.4477153-1-1-1h-23.715c-1.46095634-1.818002-2.64911338-3.8392502-3.527-6h27.262c.5522847 0 1-.4477153 1-1s-.4477153-1-1-1h-27.976c-.59410951-1.9483699-.93655508-3.9647324-1.019-6h30.435c.5522847 0 1-.4477153 1-1s-.4477153-1-1-1h-30.435c.08244492-2.0352676.42489049-4.0516301 1.019-6h32.9c.5522847 0 1-.4477153 1-1s-.4477153-1-1-1h-32.186c.87788662-2.1607498 2.06604366-4.181998 3.527-6z"/></g></g></svg>