<svg height="512" viewBox="0 0 56 60" width="512" xmlns="http://www.w3.org/2000/svg"><g id="Page-1" fill="none" fill-rule="evenodd"><g id="002---Wine-Decanter" fill="rgb(0,0,0)" fill-rule="nonzero" transform="translate(0 -1)"><path id="Shape" d="m39 61h12c2.7600532-.0033061 4.9966939-2.2399468 5-5v-16c-.0019478-2.1299127-.2676361-4.2513881-.791-6.316-.526802-2.063866-1.3098902-4.0536691-2.331-5.923-1.8857585-3.4612219-2.8751588-7.3394097-2.878-11.281v-3.815c1.3939546-.6590732 2.1906483-2.1543767 1.9601399-3.67895946-.2305084-1.52458279-1.4336496-2.71752237-2.9601399-2.93504054v-3.051c0-1.1045695-.8954305-2-2-2h-4c-1.1045695 0-2 .8954305-2 2v3.049c-1.7259531.23148226-3.0109242 1.70962737-3 3.451.0031238 1.3511595.7806756 2.5808576 2 3.163v3.817c-.0022008 1.9639488-.2470557 3.9201015-.729 5.824-.4865459 1.9013114-1.2084571 3.7344753-2.149 5.457-2.0452587 3.7553877-3.1185079 7.9627858-3.122 12.239v16c.0033061 2.7600532 2.2399468 4.9966939 5 5zm12-2h-12c-1.6568542 0-3-1.3431458-3-3v-3h18v3c0 1.6568542-1.3431458 3-3 3zm-15-18h18v10h-18zm7-38h4v3h-4zm-4.122 25.718c1.0213428-1.869687 1.8047597-3.8598081 2.332-5.924.5226309-2.0640491.7879783-4.1848129.79-6.314v-3.48h1c.5522847 0 1-.4477153 1-1s-.4477153-1-1-1h-1.726c-.026-.008-.048-.024-.076-.03-.7556011-.1534204-1.2718269-.8546829-1.1938291-1.62174693.0779977-.76706399.7248119-1.35006453 1.4958291-1.34825307h7c.8284271 0 1.5.67157288 1.5 1.5-.0006069.3979349-.1575498.7796978-.437 1.063-.2086141.2079654-.4740854.3495733-.763.407-.028.006-.049.022-.076.03h-1.724c-.5522847 0-1 .4477153-1 1s.4477153 1 1 1h1v3.48c.003362 4.275913 1.0766244 8.483019 3.122 12.238.9403727 1.7226042 1.6622753 3.5557464 2.149 5.457.3968293 1.5803396.6313772 3.1970449.7 4.825h-17.939c.1521689-3.5995191 1.1256611-7.1165416 2.846-10.282z"/><path id="Shape" d="m47 43h-4c-.5522847 0-1 .4477153-1 1s.4477153 1 1 1h4c.5522847 0 1-.4477153 1-1s-.4477153-1-1-1z"/><path id="Shape" d="m47 47h-4c-.5522847 0-1 .4477153-1 1s.4477153 1 1 1h4c.5522847 0 1-.4477153 1-1s-.4477153-1-1-1z"/><path id="Shape" d="m9.666 45.649c2.207366.9538839 4.5961962 1.4149281 7 1.351 3.0042524.0736981 5.9742788-.6509511 8.607-2.1 1.7982566-.9958217 3.7812613-1.6131497 5.827-1.814.3598348-.0282097.6765442-.2481396.8286764-.5754508.1521322-.3273113.116076-.7112045-.0943419-1.004464-.2104178-.2932596-.56254-.450371-.9213345-.4110852-2.2844959.2197829-4.5004159.9019446-6.513 2.005-2.3605846 1.3127168-5.0298425 1.9688086-7.73 1.9-2.1332625.0669553-4.2549302-.338733-6.213-1.188-1.44926672-.6297633-3.13872098-.03035-3.867 1.372-1.66287973 3.2532806-2.54939328 6.8475968-2.59 10.501-.10123343.3050148-.04970493.6400971.13849359.9006035.18819851.2605064.49013098.4146885.81150641.4143965h26.05c.5522847 0 1-.4477153 1-1s-.4477153-1-1-1h-24.98c.1359694-3.1009944.93779319-6.1363972 2.351-8.9.24439708-.4692329.81199476-.6669059 1.295-.451z"/><path id="Shape" d="m4.95 61h27.13c.5522847 0 1-.4477153 1-1s-.4477153-1-1-1h-27.13c-1.62855456-.0016536-2.94834636-1.3214454-2.95-2.95v-.13c.00119627-6.165687 2.22717772-12.123889 6.269-16.78l.458-.54c.31-.383.609-.765.9-1.158 4.9498418-6.783893 6.5823829-15.4358096 4.445-23.557-.577-2.02-1.643-4.83-4.224-5.9-1.58080619-.56872453-3.32064535-.50168354-4.853.187-.26245244.12300449-.54916396.18554109-.839.183-.0623947-.00389054-.12332301-.02056924-.179-.049-.08758033-.53894982.01418617-1.09159847.288-1.564.40131653-.88939299 1.03528499-1.6539555 1.835-2.213 1.85147738-1.13056427 4.0058622-1.66436015 6.171-1.529h14.779c1.6269617.00548727 2.9445127 1.32303831 2.95 2.95-.001322.51324129-.1349568 1.01747171-.388 1.464-4.0449606 7.1121822-4.7290771 15.6515529-1.868 23.317.7182232 1.912855 1.6423213 3.7419389 2.756 5.455.3083378.4416508.9110859.5597323 1.3632788.2670735s.591341-.8908948.3147212-1.3530735c-1.0345554-1.5897551-1.8929467-3.2874251-2.56-5.063-2.656713-7.1127537-2.0223571-15.0374401 1.732-21.637.4238483-.74714092.6477322-1.59101118.65-2.45-.0060494-2.73129984-2.2187002-4.94395059-4.95-4.95h-14.771c-2.58072206-.15942059-5.14555756.50331946-7.326 1.893-1.09751183.76700073-1.9669269 1.81679524-2.516 3.038-.279.623-.858 2.2-.208 3.353.34775349.60715698.97339936 1.0029126 1.671 1.057.61531117.0559833 1.23474831-.0455356 1.8-.295 1.05414297-.51006725 2.26632916-.58618795 3.376-.212 1.359.562 2.334 2.024 3.069 4.6 1.9755549 7.5264999.4580089 15.542463-4.132 21.826-.271.368-.552.726-.832 1.072l-.438.516c-4.34749148 5.0172842-6.74138487 11.4331883-6.743 18.072v.13c.00330604 2.7324389 2.21756107 4.946694 4.95 4.95z"/></g></g></svg>