<svg height="512" viewBox="0 0 46 60" width="512" xmlns="http://www.w3.org/2000/svg"><g id="Page-1" fill="none" fill-rule="evenodd"><g id="004---Wine-Cooler" fill="rgb(0,0,0)" fill-rule="nonzero" transform="translate(-1)"><path id="Shape" d="m8.655 48.64.9 7c.32997877 2.4914316 2.4518169 4.3547174 4.965 4.36h18.96c2.5127075-.0069165 4.6330884-1.8709031 4.962-4.362l.9-7c.425-.342.854-.712 1.3-1.144 3.7670057-3.5048976 6.0432018-8.3232877 6.358-13.459.0255715-.507029-.1601693-1.0019756-.513-1.367-.4186829-.431545-.9957495-.6729229-1.597-.668h-3.4l.392-3.037c1.7776024-.1760672 3.1287639-1.6767318 3.118-3.463 0-1.9329966-1.5670034-3.5-3.5-3.5h-3.929c.2729535-1.6710854.7283422-3.3071982 1.358-4.879l1.415-3.546c1.5437371-.0855242 2.8469561-1.1771005 3.201899-2.6819108.354943-1.50481028-.3231019-3.06371173-1.665899-3.8300892l1.136-2.829c.4105317-1.02531555-.0877476-2.18931049-1.113-2.6l-3.712-1.49c-1.0247596-.41075186-2.1885208.08653224-2.6 1.111l-1.135 2.829c-.7322925-.18139377-1.5034794-.12285368-2.2.167-1.0472531.4479263-1.811039 1.37744064-2.0474145 2.49166851-.2363754 1.11422786.0842282 2.27378769.8594145 3.10833149l-1.427 3.549c-.3777386.9382733-.8163383 1.8508812-1.313 2.732-.5633178-.7119208-1.4201749-1.1285713-2.328-1.132h-8c-1.6568542 0-3 1.3431458-3 3v4h-8.5c-1.85396068-.0008855-3.38525016 1.4475663-3.4873677 3.2987127s1.26055904 3.4592424 3.1033677 3.6622873l.392 3.039h-3.398c-.60228926-.0057458-1.18059598.2356973-1.6.668-.3511633.3646689-.53576816.8583964-.51 1.364.31119922 5.134319 2.58346862 9.952733 6.347 13.459.453.438.887.809 1.308 1.149zm10.383-.64h.245c.6268133-.0006841 1.2449559-.1464919 1.806-.426.5736706-.2859684 1.2483294-.2859684 1.822 0 .5610441.2795081 1.1791867.4253159 1.806.426h.245c2.2289837-.0027549 4.0352451-1.8090163 4.038-4.038v-14.962h10.863l-2.395 18.561c-8.003114 5.9191764-18.932886 5.9191764-26.936 0l-2.395-18.561h6.863v14.962c.0027549 2.2289837 1.8090163 4.0352451 4.038 4.038zm17.42 7.381c-.1968121 1.495541-1.4695701 2.6148671-2.978 2.619h-18.96c-1.5080965-.004066-2.7807305-1.1228558-2.978-2.618l-.664-5.146c8.0285589 5.0174379 18.2154411 5.0174379 26.244 0zm8.432-21.381c.0364223-.0005913.0725542.0065669.106.021-.2933436 4.3544382-2.1603927 8.4535581-5.253 11.533l1.491-11.554zm-1.89-8.5c.0021424.3984777-.1552048.7812546-.4369751 1.0630249s-.6645472.4391175-1.0630249.4369751l-12.5.0000216v-3.0000216h12.5c.8284271 0 1.5.6715729 1.5 1.5zm-5.554-23.5 3.713 1.49-1.116 2.783-3.712-1.492zm-5.946 12.143 1.3-3.234.927.372c.3322176.1363435.712034.0840843.9950846-.1369143.2830507-.2209986.4258695-.5767996.3741724-.9321663-.0516971-.35536666-.2899714-.65572798-.624257-.7869194l-1.6-.64c-.023-.018-.038-.043-.062-.059-.4632559-.30228779-.7225457-.83500196-.6746529-1.38608293s.3951943-1.03107809.9036529-1.24891707c.3706559-.15480019.7869708-.15946177 1.161-.013l.437.175c.009 0 .014.012.023.016l5.566 2.231.462.185c.3706736.14842148.6668751.43850462.823.806.1560292.36287808.1599917.7731761.011 1.139-.1488305.373515-.4408416.6720072-.811.829-.2695365.1161406-.5676831.148881-.856.094-.026 0-.052 0-.078 0l-1.6-.641c-.5127964-.2054499-1.09505.0437036-1.3005.5565-.2054499.5127964.0437036 1.0950501.5565 1.3005l.927.371-1.291 3.234c-.722193 1.8102819-1.2319337 3.6982354-1.519 5.626h-6.55v-3.144c.9968431-1.4786591 1.8348191-3.0584114 2.5-4.713zm-14.5 3.857c0-.5522847.4477153-1 1-1h8c.5522847 0 1 .4477153 1 1v25.962c-.0011025 1.1250993-.9129007 2.0368975-2.038 2.038h-.245c-.3162218-.0001262-.6280891-.0737282-.911-.215-1.1373344-.5666227-2.4746656-.5666227-3.612 0-.2829109.1412718-.5947782.2148738-.911.215h-.245c-1.1250993-.0011025-2.0368975-.9129007-2.038-2.038zm-12 7.5c-.0021424-.3984777.1552048-.7812546.43697512-1.0630249s.66454723-.4391175 1.06302488-.4369751l8.5-.0000216v3.0000216h-8.5c-.82842712 0-1.5-.6715729-1.5-1.5zm-1.89 8.5h3.656l1.491 11.554c-3.0937709-3.0790438-4.96221897-7.1781139-5.257-11.533.03467724-.0150007.07223546-.0221709.11-.021z"/></g></g></svg>