<svg height="512" viewBox="0 0 52 60" width="512" xmlns="http://www.w3.org/2000/svg"><g id="Page-1" fill="none" fill-rule="evenodd"><g id="005---Wine-box" fill="rgb(0,0,0)" fill-rule="nonzero"><path id="Shape" d="m4 60h44c2.209139 0 4-1.790861 4-4v-22.41c.0006133-1.3234653-.6534383-2.5615582-1.747-3.307l-2.381-1.62c-1.2385877-2.9029071-1.8754294-6.0269015-1.872-9.183v-3.815c1.3939546-.6590732 2.1906483-2.1543767 1.9601399-3.6789595s-1.4336496-2.71752233-2.9601399-2.9350405v-3.051c0-1.1045695-.8954305-2-2-2h-4c-1.1045695 0-2 .8954305-2 2v3.049c-1.725504.23231528-3.0100368 1.7099561-3 3.451.0029814 1.3514506.7805178 2.5815132 2 3.164v3.816c0 .357-.015.722-.033 1.088l-5.529-3.76c-.2739386-.1861281-.4379545-.4958112-.438-.827v-11.981c0-2.209139-1.790861-4-4-4s-4 1.790861-4 4v11.981c-.0000455.3311888-.1640614.6408719-.438.827l-5.529 3.76c-.018-.368-.033-.731-.033-1.088v-3.815c1.3939546-.6590732 2.1906483-2.1543767 1.9601399-3.6789595s-1.4336496-2.71752233-2.9601399-2.9350405v-3.051c0-1.1045695-.8954305-2-2-2h-4c-1.1045695 0-2 .8954305-2 2v3.049c-1.72550403.23231528-3.01003678 1.7099561-3 3.451.00298142 1.3514506.78051784 2.5815132 2 3.164v3.816c-.00211134 1.9625745-.24662922 3.9173741-.728 5.82-.29754293 1.1501532-.68198113 2.2760557-1.15 3.368l-2.376 1.616c-1.09288928.7454679-1.74650785 1.9830756-1.746 3.306v22.41c0 2.209139 1.790861 4 4 4zm35-54h4v3h-4zm-1 13.48v-3.48h1c.5522847 0 1-.4477153 1-1s-.4477153-1-1-1h-1.725c-.025072-.0114639-.0507809-.0214803-.077-.03-.7556011-.1534204-1.2718269-.8546829-1.1938291-1.6217469.0779977-.767064.7248119-1.3500646 1.4958291-1.3482531h7c.7706297-.0007745 1.416466.5825227 1.4939133 1.3492512s-.4386955 1.4673973-1.1939133 1.6207488c-.028.006-.049.022-.076.03h-1.724c-.5522847 0-1 .4477153-1 1s.4477153 1 1 1h1v3.48c-.0005146 2.4630748.3575743 4.9131034 1.063 7.273l-7.187-4.887c.075-.806.124-1.607.124-2.386zm-14-15.48c0-1.1045695.8954305-2 2-2s2 .8954305 2 2v20c0 1.1045695-.8954305 2-2 2s-2-.8954305-2-2zm-15 2h4v3h-4zm-1.79 19.794c.52263094-2.0640491.78797833-4.1848129.79-6.314v-3.48h1c.55228475 0 1-.4477153 1-1s-.44771525-1-1-1h-1.725c-.02507201-.0114639-.05078089-.0214803-.077-.03-.75560108-.1534204-1.27182688-.8546829-1.19382913-1.6217469s.72481192-1.3500646 1.49582913-1.3482531h7c.7706297-.0007745 1.416466.5825227 1.4939133 1.3492512s-.4386955 1.4673973-1.1939133 1.6207488c-.026.006-.047.023-.071.03h-1.729c-.5522847 0-1 .4477153-1 1s.4477153 1 1 1h1v3.48c0 .779.048 1.58.124 2.387l-7.206 4.9c.097-.325.206-.64.292-.973zm-5.21 7.796c-.00025393-.6614622.32655536-1.2802661.873-1.653l19.127-13.007v5.07c0 2.209139 1.790861 4 4 4s4-1.790861 4-4v-5.07l19.126 13.006c.5471172.3727077.8743595.9919969.874 1.654v22.41c0 1.1045695-.8954305 2-2 2h-44c-1.1045695 0-2-.8954305-2-2z"/><path id="Shape" d="m5 56c.55228475 0 1-.4477153 1-1v-12c0-.5522847-.44771525-1-1-1s-1 .4477153-1 1v12c0 .5522847.44771525 1 1 1z"/><path id="Shape" d="m5 39c.55228475 0 1-.4477153 1-1v-3c0-.5522847-.44771525-1-1-1s-1 .4477153-1 1v3c0 .5522847.44771525 1 1 1z"/></g></g></svg>