<svg height="512" viewBox="0 0 60 60" width="512" xmlns="http://www.w3.org/2000/svg"><g id="Page-1" fill="none" fill-rule="evenodd"><g id="006---Wine-Crate" fill="rgb(0,0,0)" fill-rule="nonzero"><path id="Shape" d="m58 30.07h-.716c-.025-.105-.047-.209-.074-.316-.3665795-1.3717624-.9398103-2.6797401-1.7-3.879-.2-.343-.407-.707-.629-1.114-1.8868028-3.460948-2.8772383-7.3391513-2.881-11.281v-1.815c1.2208899-.5771683 1.9995473-1.80655729 1.9995473-3.157s-.7786574-2.57983166-1.9995473-3.157v-3.351c0-1.1045695-.8954305-2-2-2h-4c-1.1045695 0-2 .8954305-2 2v3.352c-1.2310437.56091166-2.0152661 1.79527775-2 3.148.0029814 1.3514506.7805178 2.5815132 2 3.164v1.816c-.0016991 1.9639804-.2465618 3.9201946-.729 5.824-.486019 1.9018004-1.2079535 3.7353594-2.149 5.458l-.362.66c-.688307 1.1679386-1.270633 2.3951739-1.74 3.667-.3759383-1.1272043-.8837949-2.2060218-1.513-3.214-.2-.343-.407-.707-.629-1.114-1.8857585-3.4612219-2.8751588-7.3394097-2.878-11.281v-1.815c1.2208899-.5771683 1.9995473-1.80655729 1.9995473-3.157s-.7786574-2.57983166-1.9995473-3.157v-3.351c0-1.1045695-.8954305-2-2-2h-4c-1.1045695 0-2 .8954305-2 2v3.352c-1.2310437.56091166-2.0152661 1.79527775-2 3.148.0029814 1.3514506.7805178 2.5815132 2 3.164v1.816c-.0016991 1.9639804-.2465618 3.9201946-.729 5.824-.486019 1.9018004-1.2079535 3.7353594-2.149 5.458l-.362.66c-.688307 1.1679386-1.270633 2.3951739-1.74 3.667-.3759383-1.1272043-.8837949-2.2060218-1.513-3.214-.2-.343-.407-.707-.629-1.114-1.8857585-3.4612219-2.8751588-7.3394097-2.878-11.281v-1.815c1.2208899-.5771683 1.9995473-1.80655729 1.9995473-3.157s-.7786574-2.57983166-1.9995473-3.157v-3.351c0-1.1045695-.8954305-2-2-2h-4c-1.1045695 0-2 .8954305-2 2v3.352c-1.23104372.56091166-2.01526614 1.79527775-2 3.148.00298142 1.3514506.78051784 2.5815132 2 3.164v1.816c-.00202914 1.9626418-.24688927 3.9174922-.729 5.82-.486019 1.9018004-1.20795347 3.7353594-2.149 5.458l-.362.66c-.88274891 1.4537486-1.5690506 3.0180188-2.041 4.652h-.719c-1.1045695 0-2 .8954305-2 2v8c0 1.1045695.8954305 2 2 2v5.93c-1.1045695 0-2 .8954305-2 2v8c0 1.1045695.8954305 2 2 2h56c1.1045695 0 2-.8954305 2-2v-8c0-1.1045695-.8954305-2-2-2v-5.93c1.1045695 0 2-.8954305 2-2v-8c0-1.1045695-.8954305-2-2-2zm-8-28.07v3h-4v-3zm-5.562 5.437c.2824476-.2801252.6641976-.43721068 1.062-.437h5c.7706297-.00077448 1.416466.58252269 1.4939133 1.34925118s-.4386955 1.46739729-1.1939133 1.62074882c-.028.006-.049.022-.076.03h-5.448c-.0254125-.01146526-.0514542-.02148132-.078-.03-.541967-.10999337-.9794508-.50926906-1.138378-1.03895667-.1589272-.5296876-.0135148-1.10385513.378378-1.49404333zm-1.926 18.949.366-.667c1.0210022-1.8701978 1.8043999-3.8606058 2.332-5.925.5226309-2.0640491.7879783-4.1848129.79-6.314v-1.48h4v1.48c.0034921 4.2762142 1.0767413 8.4836123 3.122 12.239.23.421.446.8.652 1.155.6312261.9923486 1.1171542 2.0699439 1.443 3.2h-14.417c.4379107-1.2867092 1.011824-2.5230365 1.712-3.688zm-10.512-24.386v3h-4v-3zm-5.562 5.437c.2824476-.2801252.6641976-.43721068 1.062-.437h5c.7706297-.00077448 1.416466.58252269 1.4939133 1.34925118s-.4386955 1.46739729-1.1939133 1.62074882c-.028.006-.049.022-.076.03h-5.448c-.0254125-.01146526-.0514542-.02148132-.078-.03-.541967-.10999337-.9794508-.50926906-1.138378-1.03895667-.1589272-.5296876-.0135148-1.10385513.378378-1.49404333zm-1.926 18.949.366-.667c1.0210022-1.8701978 1.8043999-3.8606058 2.332-5.925.5226309-2.0640491.7879783-4.1848129.79-6.314v-1.48h4v1.48c.0034921 4.2762142 1.0767413 8.4836123 3.122 12.239.23.421.446.8.652 1.155.6312261.9923486 1.1171542 2.0699439 1.443 3.2h-14.417c.4379107-1.2867092 1.011824-2.5230365 1.712-3.688zm-10.512-24.386v3h-4v-3zm-5.562 5.437c.28244757-.2801252.66419765-.43721068 1.062-.437h5c.7706297-.00077448 1.416466.58252269 1.4939133 1.34925118s-.4386955 1.46739729-1.1939133 1.62074882c-.028.006-.049.022-.076.03h-5.448c-.0247599-.01139578-.05013211-.02141112-.076-.03-.54196704-.10999337-.97945079-.50926906-1.13837798-1.03895667-.15892719-.5296876-.01351485-1.10385513.37837798-1.49404333zm-1.926 18.949.366-.667c1.0210022-1.8701978 1.8043999-3.8606058 2.332-5.925.52263094-2.0640491.78797833-4.1848129.79-6.314v-1.48h4v1.48c.0034921 4.2762142 1.0767413 8.4836123 3.122 12.239.23.421.446.8.652 1.155.6312261.9923486 1.1171542 2.0699439 1.443 3.2h-14.417c.43791067-1.2867092 1.01182398-2.5230365 1.712-3.688zm-2.512 15.684h16v5.93h-16zm34 0v5.93h-16v-5.93zm20 15.93h-56v-8h56zm-2-10h-16v-5.93h16zm-54-7.93v-8h56v8z"/><circle id="Oval" cx="5" cy="36.07" r="1"/><circle id="Oval" cx="5" cy="54" r="1"/><circle id="Oval" cx="56" cy="36.07" r="1"/><circle id="Oval" cx="56" cy="54" r="1"/><path id="Shape" d="m14 44h-4c-.55228475 0-1 .4477153-1 1s.44771525 1 1 1h4c.5522847 0 1-.4477153 1-1s-.4477153-1-1-1z"/><path id="Shape" d="m28 46h4c.5522847 0 1-.4477153 1-1s-.4477153-1-1-1h-4c-.5522847 0-1 .4477153-1 1s.4477153 1 1 1z"/><path id="Shape" d="m48 46h4c.5522847 0 1-.4477153 1-1s-.4477153-1-1-1h-4c-.5522847 0-1 .4477153-1 1s.4477153 1 1 1z"/></g></g></svg>