<svg height="512" viewBox="0 0 60 60" width="512" xmlns="http://www.w3.org/2000/svg"><g id="Page-1" fill="none" fill-rule="evenodd"><g id="007---Bottle-Opener" fill="rgb(0,0,0)" fill-rule="nonzero" transform="translate(-1 -1)"><path id="Shape" d="m11 27.956c2.1005116.1924949 4.2120145-.224112 6.082-1.2.7178904-.3660787 1.5485167-.4440617 2.322-.218 1.5122788.401035 3.0469602.7122454 4.596.932v3.53c0 2.209139 1.790861 4 4 4h2.471c-1.077.5-2.471 1.2-2.471 2.712 0 1.567 1.49 2.259 2.579 2.764.566.263 1.421.659 1.421.949s-.855.687-1.421.949c-1.089.5-2.579 1.2-2.579 2.763s1.49 2.263 2.579 2.763c.566.262 1.421.659 1.421.949s-.855.687-1.421.949c-1.089.502-2.579 1.202-2.579 2.764s1.49 2.26 2.578 2.766c.567.263 1.422.661 1.422.953s-.855.69-1.422.953c-1.088.506-2.578 1.199-2.578 2.766 0 .5522847.4477153 1 1 1s1-.4477153 1-1c0-.292.855-.689 1.421-.953 1.089-.5 2.579-1.2 2.579-2.766s-1.49-2.26-2.578-2.766c-.567-.264-1.422-.661-1.422-.953s.855-.687 1.421-.949c1.089-.506 2.579-1.197 2.579-2.764s-1.491-2.258-2.579-2.764c-.567-.262-1.421-.659-1.421-.948s.854-.686 1.421-.949c1.088-.5 2.579-1.2 2.579-2.763s-1.49-2.258-2.579-2.763c-.566-.262-1.421-.662-1.421-.95s.854-.686 1.421-.948c.9466257-.3247816 1.7651929-.9426474 2.337-1.764h.242c2.209139 0 4-1.790861 4-4v-3.53c1.548092-.2208585 3.0817689-.5330701 4.593-.935.7735711-.2251411 1.603852-.1471905 2.322.218 4.0494147 2.1121641 8.982757 1.5023612 12.3959868-1.532249 3.4132298-3.0346103 4.5962263-7.8626787 2.9725101-12.1314657-1.6237162-4.26878698-5.7163319-7.09017356-10.2834969-7.0892853-.318 0-.634.014-.944.04-.8324757.09096921-1.6703487-.11478066-2.366-.581-4.6545919-3.04789424-10.128164-4.60344925-15.69-4.459-5.5615457-.14462751-11.0348509 1.41095077-15.689 4.459-.6966932.46470522-1.5343197.67030766-2.367.581-.31-.026-.626-.04-.944-.04-5.88719689-.0092405-10.73801521 4.6183959-11.00587399 10.4995033s4.14221141 10.9305368 10.00587399 11.4564967zm25 3.044c0 1.1045695-.8954305 2-2 2h-6c-1.1045695 0-2-.8954305-2-2v-3.277c1.6607648.1786172 3.3296681.2710744 5 .277 1.6703319-.0059256 3.3392352-.0983828 5-.277zm-30.731-19.972c1.70843906-1.92405526 4.15791847-3.02597528 6.731-3.028.262 0 .521.011.774.033 1.2969395.13116467 2.5985942-.19920634 3.676-.933 4.3204884-2.81388062 9.3959936-4.2440917 14.55-4.1 5.1543053-.14397769 10.2300962 1.28621562 14.551 4.1 1.0776316.73227158 2.3787713 1.0615396 3.675.93.253-.019.512-.03.774-.03 2.5796919.00156218 5.0348944 1.1091666 6.7433058 3.0420771 1.7084115 1.9329106 2.5060318 4.5055762 2.1906942 7.0659229-.5583909 4.1808986-3.9144027 7.4314014-8.111 7.856-1.718601.1582408-3.4463616-.182728-4.976-.982-1.1677076-.6016899-2.5207201-.736133-3.784-.376-3.6104609.948414-7.3301214 1.417112-11.063 1.394-3.7328786.023112-7.4525391-.445586-11.063-1.394-.4683247-.1302302-.9519119-.1974885-1.438-.2-.8166806-.0022798-1.6217162.1936602-2.346.571-1.5291737.7995689-3.256704 1.1405608-4.975.982-4.19698504-.4241636-7.55351635-3.6747688-8.112-7.856-.32455796-2.5660527.47903416-5.1468127 2.203-7.075z"/><path id="Shape" d="m6.044 18.752c.039 0 .079 0 .119-.006.26355341-.0312905.50385775-.1660674.66797937-.3746426.16412162-.2085751.23859691-.4738381.20702063-.7373574-.17985309-1.4249304.26085641-2.8584856 1.21011377-3.9363002.94925737-1.0778146 2.31565113-1.6960973 3.75188623-1.6976998.5522847 0 1-.4477153 1-1s-.4477153-1-1-1c-2.00807017.00126-3.91906931.8641093-5.24797483 2.3695519-1.32890553 1.5054427-1.9479532 3.5087416-1.70002517 5.5014481.0602038.5023211.48608423.8805476.992.881z"/><path id="Shape" d="m50 12c1.4362351.0016025 2.8026289.6198852 3.7518862 1.6976998.9492574 1.0778146 1.3899669 2.5113698 1.2101138 3.9363002-.0315763.2635193.042899.5287823.2070206.7373574.1641217.2085752.404426.3433521.6679794.3746426.04 0 .08.006.119.006.5059158-.0004524.9317962-.3786789.992-.881.247928-1.9927065-.3711196-3.9960054-1.7000252-5.5014481-1.3289055-1.5054426-3.2399046-2.3682919-5.2479748-2.3695519-.5522847 0-1 .4477153-1 1s.4477153 1 1 1z"/><path id="Shape" d="m24.957 53.869h.043c.5522847.0115979 1.0094019-.4267153 1.0209999-.979s-.4267152-1.009402-.9789999-1.021c-15.386-.669-22.042-3.547-22.042-4.869 0-.587 2.093-2.514 11.142-3.862l.9 3.137c.0891928.3107847.3231459.5592667.628.667.1058906.0379994.2174984.0576153.33.058.2050393-.0001628.4050729-.0633497.573-.181l8-5.6c.3361982-.2356727.4941822-.6528965.3983987-1.0521413-.0957834-.3992447-.4258689-.6993751-.8323987-.7568587l-10-1.4c-.3350501-.0468388-.671065.0789014-.8930557.3341907s-.2998541.6055091-.2069443.9308093l.549 1.92c-5.988.912-12.588 2.636-12.588 5.805 0 5.548 19.956 6.7 23.957 6.869zm-3.612-12.831-4.769 3.338-1.192-4.176z"/><path id="Shape" d="m37.043 40.131c-.5493078-.0176918-1.0123295.4062638-1.043.955-.0116568.265115.082542.5239918.2618513.719619.1793093.1956273.4290234.3119608.6941487.323381 15.388.671 22.044 3.549 22.044 4.871 0 .587-2.093 2.514-11.142 3.862l-.9-3.137c-.0889465-.3108017-.3226549-.5594319-.6273642-.66742-.3047092-.1079882-.6428256-.0620113-.9076358.12342l-8 5.6c-.3361982.2356727-.4941822.6528965-.3983987 1.0521413.0957834.3992447.4258689.6993751.8323987.7568587l10 1.4c.047338.0070114.0951469.0103547.143.01.3139395.0001745.6097382-.1470902.7988245-.3976983.1890862-.2506081.2495089-.5754664.1631755-.8773017l-.549-1.92c5.992-.912 12.587-2.636 12.587-5.805 0-5.548-19.956-6.695-23.957-6.869zm3.612 12.831 4.769-3.338 1.192 4.176z"/></g></g></svg>