<svg height="512" viewBox="0 0 60 49" width="512" xmlns="http://www.w3.org/2000/svg"><g id="Page-1" fill="none" fill-rule="evenodd"><g id="008---Wine-Barrel" fill="rgb(0,0,0)" fill-rule="nonzero" transform="translate(-1)"><path id="Shape" d="m58.528 5.18c-1.478-.585-3-1.105-4.528-1.572v-1.064c-.0080622-.94547013-.6837995-1.75317098-1.613-1.928l-3-.579c-.5925224-.11524827-1.2055684.03984651-1.672.423-.4458254.36477783-.7075565.90800717-.715 1.484-6.9469699-1.21854077-14.0530301-1.21854077-21 0-.0067037-.57550043-.2672961-1.11864526-.712-1.484-.4663667-.38328188-1.0794736-.53839206-1.672-.423l-3 .579c-.9303918.17356544-1.6076606.98159399-1.616 1.928v1.064c-1.528.467-3.05.986-4.525 1.571-1.5024095.61367352-2.4817316 2.07810621-2.475 3.701v12.12h-3.019l-.04-2.153c1.0587734-.3433939 1.8403949-1.2447617 2.0304229-2.3414886s-.2427772-2.2085164-1.12430064-2.8881022c-.88152344-.6795859-2.06684702-.8152476-3.07912226-.3524092-.49040949.2119652-1.04659051.2119652-1.537 0-.72691301-.3290321-1.5554151-.3528065-2.3-.066-1.04018427.3997079-1.7748226 1.3408911-1.91 2.447-.17829473 1.3947849.64861981 2.7226952 1.979 3.178v2.454c-.61675126.3544126-.997855 1.0106732-1 1.722v7c.00000003 1.6568542 1.34314578 2.9999999 3 2.9999999s2.99999997-1.3431457 3-2.9999999v-2h4v8.12c-.0068193 1.621795.9711071 3.0855198 2.472 3.7.738.292 1.49.565 2.245.829l-3.637 5.2c-.4300477.6111076-.4835501 1.4109832-.1387214 2.0739211s1.0304651 1.0783487 1.7777214 1.0770789h3.66c.6529872-.0000362 1.2648383-.3188409 1.639-.854l2.382-3.417 1.21.234c.1285294.0246945.2591198.0370838.39.037.4678016.0002868.9210979-.1623624 1.282-.46.4469473-.3641996.7098176-.9075139.718-1.484 3.4661504.6160746 6.9795271.9279286 10.5.932 3.5204729-.0040714 7.0338496-.3159254 10.5-.932.0067037.5755004.2672961 1.1186453.712 1.484.3624904.2989534.8181388.461685 1.288.46.1308802.0000838.2614706-.0123055.39-.037l1.21-.234 2.385 3.416c.3741429.535828.9864753.8550623 1.64.855h3.66c.7455284-.0000413 1.4291506-.4147477 1.7736116-1.0759279.3444609-.6611801.2925762-1.4590703-.1346116-2.0700721l-3.637-5.2c.754-.264 1.5-.536 2.242-.828 1.502536-.6156141 2.4804371-2.0822678 2.471-3.706v-27.24c.0068193-1.62179495-.9711071-3.08551976-2.472-3.7zm.472 12.794c-1.585-.143-3.258-.273-5-.39v-4.947c1.734.336 3.42.7 5 1.105zm0 7.046c-1.74.16-3.383.285-5 .39v-5.818c1.737.117 3.424.245 5 .388zm-5 2.4c1.615-.1 3.269-.233 5-.391v4.231c-1.58.406-3.266.769-5 1.1zm3.8-20.377c.7362847.31140533 1.2106904 1.03764144 1.2 1.837v2.8c-1.592-.4-3.266-.762-5-1.09v-4.884c1.28.406 2.553.842 3.8 1.335zm-31.8 12.175c6.9-.274 14.1-.274 21 0v6.564c-6.9.274-14.1.274-21 0zm21-2c-6.9-.272-14.1-.272-21 0v-5.637c6.9793733-.7599647 14.0206267-.7599647 21 0zm-21 10.565c3.449.136 6.97.213 10.5.213s7.051-.077 10.5-.213v5.636c-6.9793733.7599647-14.0206267.7599647-21 0zm21-23.811v5.6c-6.9802307-.74400244-14.0197693-.74400244-21 0v-5.6c6.9431196-1.262003 14.0568804-1.262003 21 0zm-33 9.77c1.58-.406 3.266-.769 5-1.105v4.945c-1.615.1-3.269.233-5 .391zm0 8.258v-2.02c1.74-.16 3.383-.285 5-.39v5.82c-1.617-.105-3.26-.23-5-.39zm0 5.027c1.731.158 3.385.287 5 .391v4.945c-1.734-.336-3.42-.7-5-1.1zm1.208-19.987c1.24-.492 2.512-.928 3.792-1.334v4.887c-1.734.328-3.408.692-5 1.09v-2.8c-.0115397-.80339588.4667124-1.5330471 1.208-1.843zm-11.563 8.028c.25333542-.0986449.53607155-.0888829.782.027 1.00227802.4394602 2.14272198.4394602 3.145 0 .24626968-.1171327.53000179-.127266.784-.028.34164398.1353623.58468145.4432606.637.807.05895165.4753776-.22748525.9257923-.683 1.074-.79542116.2775496-1.32340359 1.0336527-1.31 1.876v2.176h-2v-2.176c.01316025-.8418079-.51489144-1.5972039-1.31-1.874-.45479722-.150326-.74052992-.6004701-.683-1.076.05283943-.3635954.29624706-.6710979.638-.806zm3.355 10.932c-.55228475 0-1 .4477153-1 1v3c0 .5522847-.44771525 1-1 1s-1-.4477153-1-1v-7h8v3zm7 10.12v-2.8c1.592.4 3.266.762 5 1.09v4.887c-1.28-.406-2.553-.842-3.795-1.335-.7399531-.3105328-1.2169052-1.0396164-1.205-1.842zm4.379 10.88h-3.66l3.981-5.7c.1.03.2.063.3.094v1.064c.0056774.8152036.5123885 1.5428805 1.275 1.831zm5.614-4-1.722-.313c-.0843317-.0279615-.1722117-.0437866-.261-.047l-1.01-.184v-15.9-.012c0-.008 0-.015 0-.023v-8.014c0-.014.007-.027.006-.041s-.005-.013-.006-.021v-13.967c0-.027 0-.055 0-.083v-1.813h.006l2.994-.617zm2.007-1.972v-5.6c3.4872646.3781516 6.9922935.5690922 10.5.572 3.5076707-.0022435 7.0126995-.1925165 10.5-.57v5.6c-6.9432398 1.2613418-14.0570006 1.2606643-21-.002zm23 2.007.007-41.035 2.993.579v15.875 8.069.016.008 15.873l-1.079.221c-.0593006.0061612-.1178913.0178793-.175.035zm9.281 3.965h-3.66l-1.9-2.713c.7641855-.2868177 1.2726903-1.0147867 1.279-1.831v-1.064c.1-.031.2-.064.3-.094zm-.489-9.04c-1.24.492-2.512.928-3.792 1.334v-4.887c1.734-.328 3.408-.692 5-1.09v2.8c.0115397.8033959-.4667124 1.5330471-1.208 1.843z"/></g></g></svg>