<svg height="512" viewBox="0 0 61 60" width="512" xmlns="http://www.w3.org/2000/svg"><g id="Page-1" fill="none" fill-rule="evenodd"><g id="009---Vine-Cutting" fill="rgb(0,0,0)" fill-rule="nonzero" transform="translate(0 -1)"><path id="Shape" d="m17 55c-.5522847 0-1-.4477153-1-1s-.4477153-1-1-1-1 .4477153-1 1c0 1.6568542 1.3431458 3 3 3 .5522847 0 1-.4477153 1-1s-.4477153-1-1-1z"/><path id="Shape" d="m17 42c.5522847 0 1-.4477153 1-1s-.4477153-1-1-1-1-.4477153-1-1-.4477153-1-1-1-1 .4477153-1 1c0 1.6568542 1.3431458 3 3 3z"/><path id="Shape" d="m1 31.5c.00382851 1.6485685.59079452 3.2426223 1.657 4.5-1.30116697 1.527893-1.87813509 3.5437694-1.58238603 5.528719s1.43532441 3.7450683 3.12538603 4.827281c-.13257198.5379566-.19972433 1.0899489-.2 1.644.00602946 3.5025933 2.59786778 6.4625589 6.069 6.931.4620236 3.4747912 3.425627 6.0704236 6.931 6.0704236s6.4689764-2.5956324 6.931-6.0704236c1.9674727-.255123 3.7328623-1.336942 4.8534104-2.9741373 1.120548-1.6371954 1.4899607-3.6744649 1.0155896-5.6008627 1.6894826-1.0812526 2.8291488-2.839988 3.1258268-4.8237825s-.2785925-3.999-1.5778268-5.5272175c.6883209-.8127755 1.181571-1.772253 1.442-2.805.0966447-.3496642-.0036601-.7242458-.2621077-.9788241-.2584477-.2545782-.6344996-.3492215-.9826663-.2473136s-.6138368.3843824-.694226.7381377c-.1833811.7201899-.5249989 1.3904442-1 1.962-2.2474084-1.5089459-5.1689962-1.5664082-7.474-.147-.2668155-.3196488-.5616541-.6148221-.881-.882-.3241601-.6687352-.4936808-1.4018438-.496-2.145 0-.14.006-.278.017-.416.0455281-.5499759-.3630742-1.0328697-.913-1.079-.2648782-.0249034-.5286325.0578511-.7318071.2296088-.2031746.1717578-.3286685.4180622-.3481929.6833912-.016.192-.024.387-.024.582.0006503.2700859.0173464.5398945.05.808-1.3358144-.4106815-2.7641856-.4106815-4.1 0 .0326536-.2681055.0493497-.5379141.05-.808-.0031442-1.7388346-.6533506-3.4142567-1.824-4.7.8952803-1.0781874 2.2037862-1.7287653 3.603802-1.7917793 1.4000157-.0630141 2.7616766.4673809 3.750198 1.4607793.2500196.2607976.62127.366459.9711474.2763979.3498773-.0900612.6239719-.3618394.7169989-.7109399.0930271-.3491004-.0094799-.7212342-.2681463-.973458-.4319061-.4338637-.9194987-.8084694-1.45-1.114 0-.269-.027-1.831-.235-4.038-.0295529-.3589082-.2498037-.6742058-.5766232-.8254588s-.7097238-.1150973-1.0024553.0946568c-.2927314.209754-.4500716.5607056-.4119215.918802.124 1.3.179 2.374.2 3.065-.4843319-.1053015-.978359-.1595976-1.474-.162-.5142073.0042477-1.0263502.0656243-1.527.183-.034-.731-.111-1.9-.29-3.309-.0450155-.3545861-.2757809-.6582217-.6053692-.7965302s-.7079272-.0902776-.9925.126-.4321463.5679441-.3871308.9225302c.1649151 1.2687407.265045 2.5450637.3 3.824-.7104768.4139175-1.3424705.9497751-1.867 1.583-2.15646948-1.3249991-4.86134129-1.378424-7.06844955-.1396116-2.20710827 1.2388125-3.57038351 3.5756193-3.56255045 6.1066116zm2 9c.0026795-1.4350888.62186309-2.7998423 1.7-3.747 1.65388885-1.3946145 4.00380656-1.604864 5.879-.526-.66193171 1.5256405-.75663023 3.2376622-.267 4.827-2.21591597.2229803-4.19435462 1.4847869-5.331 3.4-1.24046489-.9372411-1.97297057-2.3992944-1.981-3.954zm3 7.5c-.00187301-.6031473.10868122-1.2013609.326-1.764.76872151-2.0410895 2.77682065-3.3438813 4.954-3.214 1.0042875 1.4273077 2.504678 2.4288754 4.208 2.809.1999175.3987392.3416905.8240581.421 1.263-2.9923144.4753102-5.3391752 2.8217674-5.815 5.814-2.36864889-.4364194-4.08955248-2.499486-4.094-4.908zm11 11c-2.7614237 0-5-2.2385763-5-5s2.2385763-5 5-5 5 2.2385763 5 5c-.0033061 2.7600532-2.2399468 4.9966939-5 5zm6.906-6.092c-.4758248-2.9922326-2.8226856-5.3386898-5.815-5.814.0793095-.4389419.2210825-.8642608.421-1.263 1.7035531-.3801969 3.2040265-1.3821765 4.208-2.81 2.1805962-.1279219 4.1903911 1.1789718 4.958 3.224.2149005.5600647.3240796 1.1551247.322 1.755-.0044475 2.408514-1.7253511 4.4715806-4.094 4.908zm5.394-16.157c1.1259669.9834678 1.7485065 2.4221772 1.6945665 3.9161989s-.7786095 2.8840916-1.9725665 3.7838011c-1.1373545-1.9145262-3.1154078-3.1760871-5.331-3.4.4888792-1.5878418.3952687-3.2980052-.264-4.823 1.8723906-1.0801841 4.2209431-.8710418 5.873.523zm-7.3 2.249c0 2.7614237-2.2385763 5-5 5s-5-2.2385763-5-5 2.2385763-5 5-5c2.7600532.0033061 4.9966939 2.2399468 5 5zm-14-12.5c1.1777231.0051711 2.3170439.4194696 3.223 1.172 1.1256535.9531964 1.7754497 2.3529824 1.777 3.828-.003403.7441242-.174295 1.4779345-.5 2.147-.3160518.2658835-.6084781.5586444-.874.875-2.30687068-1.4146901-5.22633771-1.3564961-7.475.149-1.23628658-1.4890194-1.49922359-3.5589426-.67448622-5.3097685s2.58814174-2.8662285 4.52348622-2.8612315z"/><path id="Shape" d="m1 18h2c.55228475 0 1-.4477153 1-1s-.44771525-1-1-1h-2c-.55228475 0-1 .4477153-1 1s.44771525 1 1 1z"/><path id="Shape" d="m9 18c.55228475 0 1-.4477153 1-1s-.44771525-1-1-1h-2c-.55228475 0-1 .4477153-1 1s.44771525 1 1 1z"/><path id="Shape" d="m13 18h2c.5522847 0 1-.4477153 1-1s-.4477153-1-1-1h-2c-.5522847 0-1 .4477153-1 1s.4477153 1 1 1z"/><path id="Shape" d="m19 18h2c.5522847 0 1-.4477153 1-1s-.4477153-1-1-1h-2c-.5522847 0-1 .4477153-1 1s.4477153 1 1 1z"/><path id="Shape" d="m27 18c.5522847 0 1-.4477153 1-1s-.4477153-1-1-1h-2c-.5522847 0-1 .4477153-1 1s.4477153 1 1 1z"/><path id="Shape" d="m33 18c.5522847 0 1-.4477153 1-1s-.4477153-1-1-1h-2c-.5522847 0-1 .4477153-1 1s.4477153 1 1 1z"/><path id="Shape" d="m52.712 12.779c1.276736-.2834956 2.3776146-1.0861441 3.038-2.215.5764099-1.09245321.5057184-2.41330934-.184-3.438-.427025-.62986241-1.0040126-1.1436185-1.679-1.495-.7895306-.39978963-1.6630366-.60548177-2.548-.6h-.029c-1.6170044-.08485113-3.173765.6242942-4.171 1.9-.339876.50096295-.5523567 1.07730385-.619 1.679-.0764685.71155492.0759097 1.4289588.435 2.048.9525681 1.4877906 2.622806 2.3586894 4.388 2.288.4614238.0001662.9211475-.0559141 1.369-.167zm-4.026-3.128c-.1447693-.24793598-.2074231-.53530344-.179-.821.0296737-.27553725.1257552-.53976137.28-.77.6378582-.71444896 1.5693263-1.09515198 2.525-1.032h.018c.5643733-.00663119 1.1221726.12159067 1.627.374.3840026.19915009.7122489.4909628.955.849.2758573.42559975.2958284.96827523.052 1.413-.3965602.6077411-1.0206037 1.030736-1.732 1.174-1.3136858.3735525-2.7219433-.0978524-3.546-1.187z"/><path id="Shape" d="m51.32 16.96c4.88 0 8.85-3.58 8.85-7.98s-3.97-7.98-8.85-7.98-8.85 3.58-8.85 7.98c.0012323.64204844.088338 1.2810475.259 1.9l-1.712 1.42-7.8-6.457c.5200907-1.23143373.2904204-2.6518101-.5912576-3.65658232-.8816781-1.00477222-2.2601647-1.41707323-3.5487424-1.06141768-6.953 1.89-15.822 1.152-20.488.543h-.049c-1.84-.235-3.179-.468-3.816-.592l-.039-.007c-1.87080285-.32568032-3.66003505.89984221-4.03234334 2.7619264-.37230829 1.86208418.80813979 3.68136966 2.66034334 4.1000736l.118.021c1.192.224 2.489.428 3.856.605 2.443.947 3.809 3.65 4.526 5.764.1821006.5163372.7455636.790235 1.2640924.6144718.5185287-.1757631.7993069-.7358293.6299076-1.2564718-1.244-3.668-3.262-6.1-5.835-7.038-.06946902-.02561914-.14158305-.04339608-.215-.053-1.372-.175-2.67-.378-3.857-.6l-.094-.018c-.53987064-.09102032-.98726783-.46894792-1.16725252-.98600742-.17998468-.51705949-.06396381-1.09110886.30269669-1.49768614.36666051-.40657727.92571159-.58109206 1.45855583-.45530644.018 0 .037.007.056.009.665.126 2.065.373 3.974.611h.041c4.824.626 13.962 1.376 21.24-.6.5239938-.16412617 1.0957886-.02882596 1.490662.35272599.3948734.38155194.5497092.94836876.4036551 1.47768443-.1460541.52931568-.569653.93652497-1.1043171 1.06158958-4.6979517 1.14972799-9.5391821 1.60389868-14.369 1.348-.3726988-.01440459-.721386.18357227-.9.511-.1825202.32621455-.1678623.72699001.038 1.039 1.0143597 1.6683713 1.7458914 3.4929771 2.165 5.4.0796449.3539356.3447323.636976.6926975.7396106.3479653.1026346.7242251.0087636.9832013-.2452935.2589763-.2540571.3600447-.6284478.2641012-.9783171-.36342-1.5256278-.8803903-3.0105351-1.543-4.432 2.6195727.03421509 5.2384812-.10777192 7.839-.425l9.778 8.1-12.987 10.76c-.2045071.1695482-.3331478.4135008-.3575369.6780285s.057478.5278889.2275369.7319715l.555.665c.9002156 1.1014103 2.2053918 1.7947176 3.622 1.924.17.016.341.024.51.024 1.2503691.0005691 2.4609403-.439542 3.419-1.243l10.681-8.84 1.71 1.417c-.170662.6189525-.2577677 1.2579516-.259 1.9 0 4.4 3.97 7.98 8.85 7.98s8.85-3.58 8.85-7.98-3.97-7.98-8.85-7.98c-1.2668586.0028141-2.521101.2517607-3.693.733l-.936-.77.936-.772c1.1719675.4808968 2.4262074.7295032 3.693.732zm-22.259 12.04c-1.3866945 1.1634282-3.4474854 1.0118278-4.649-.342l12.505-10.358 2.534 2.1zm18.849-9.163c1.0613211-.5217282 2.227384-.7952914 3.41-.8 3.778 0 6.85 2.683 6.85 5.98s-3.07 5.983-6.85 5.983-6.85-2.683-6.85-5.98c.0026843-.6449292.122636-1.2839937.354-1.886.1506449-.4002703.0300675-.8520337-.3-1.124l-16.313-13.517c.941-.179 1.847-.382 2.711-.618.3658998-.10354629.7122147-.26673662 1.025-.483l14.886 12.319c.3030915.249889.724413.2991801 1.077.126zm-1.077-5.548-1.71 1.411-2.537-2.1 1.942-1.611c.3300675-.2719663.4506449-.7237297.3-1.124-.2326114-.6014373-.3539179-1.24016034-.358-1.885 0-3.3 3.073-5.98 6.85-5.98s6.85 2.683 6.85 5.98-3.072 5.98-6.85 5.98c-1.182616-.0047086-2.3486789-.2782718-3.41-.8-.3531619-.1723516-.7745317-.1218812-1.077.129z"/><circle id="Oval" cx="41" cy="17" r="1"/><path id="Shape" d="m51.42 28.986c.4615643.0010337.9215634-.0536961 1.37-.163 1.2769128-.2837311 2.3778215-1.086764 3.038-2.216.5764552-1.092095.5057569-2.4126918-.184-3.437-.4270556-.6314839-1.0043582-1.1469326-1.68-1.5-.7892029-.3997076-1.6623655-.6053996-2.547-.6-1.628476-.1024634-3.2017787.6092688-4.2 1.9-.3401375.4999137-.5520337 1.0758456-.617 1.677-.0779878.712467.0740974 1.4311924.434 2.051.9520601 1.4873138 2.6214614 2.3581734 4.386 2.288zm-2.556-4.886c.6379907-.7148621 1.56996-1.0956191 2.526-1.032h.018c.5639092-.0063591 1.1212448.1214922 1.626.373.3838869.1988693.7121226.4903288.955.848.2762721.4252958.297007.9678592.054 1.413-.3975767.6073783-1.0216011 1.0304761-1.733 1.175-1.3143886.3726842-2.722779-.0994264-3.547-1.189-.1455314-.2479648-.2075781-.5361138-.177-.822.0285599-.2742418.1240213-.5372758.278-.766z"/></g></g></svg>