<svg height="512" viewBox="0 0 58 60" width="512" xmlns="http://www.w3.org/2000/svg"><g id="Page-1" fill="none" fill-rule="evenodd"><g id="010---Grapes-and-Bottle" fill="rgb(0,0,0)" fill-rule="nonzero" transform="translate(0 -1)"><path id="Shape" d="m41 61h12c2.7600532-.0033061 4.9966939-2.2399468 5-5v-16c.003811-4.2771309-1.0698914-8.4863058-3.122-12.239-1.8857585-3.4612219-2.8751588-7.3394097-2.878-11.281v-3.815c1.3939546-.6590732 2.1906483-2.1543767 1.9601399-3.67895946-.2305084-1.52458279-1.4336496-2.71752237-2.9601399-2.93504054v-3.051c0-1.1045695-.8954305-2-2-2h-4c-1.1045695 0-2 .8954305-2 2v3.05c-1.5267491.21680046-2.7303892 1.40963-2.9609549 2.93436105s.5665703 3.02011255 1.9609549 3.67863895v3.817c-.0016991 1.9639804-.2465618 3.9201946-.729 5.824-.4858483 1.901537-1.207793 3.734786-2.149 5.457-2.0452587 3.7553877-3.1185079 7.9627858-3.122 12.239v16c.0033061 2.7600532 2.2399468 4.9966939 5 5zm12-2h-12c-1.6568542 0-3-1.3431458-3-3v-3h18v3c0 1.6568542-1.3431458 3-3 3zm-15-18h18v10h-18zm7-38h4v3h-4zm-4.122 25.719c1.0210022-1.8701978 1.8043999-3.8606058 2.332-5.925.5226309-2.0640491.7879783-4.1848129.79-6.314v-3.48h1c.5522847 0 1-.4477153 1-1s-.4477153-1-1-1h-1.726c-.026-.008-.048-.024-.076-.03-.7556011-.1534204-1.2718269-.8546829-1.1938291-1.62174693.0779977-.76706399.7248119-1.35006453 1.4958291-1.34825307h7c.7706297-.00077448 1.416466.58252269 1.4939133 1.34925118.0774473.76672852-.4386955 1.46739732-1.1939133 1.62074882-.028.006-.049.022-.076.03h-1.724c-.5522847 0-1 .4477153-1 1s.4477153 1 1 1h1v3.48c.0034921 4.2762142 1.0767413 8.4836123 3.122 12.239.9410252 1.7219475 1.6629628 3.5548426 2.149 5.456.3968293 1.5803396.6313772 3.1970449.7 4.825h-17.94c.1528743-3.5992191 1.1266901-7.115833 2.847-10.281z"/><path id="Shape" d="m49 43h-4c-.5522847 0-1 .4477153-1 1s.4477153 1 1 1h4c.5522847 0 1-.4477153 1-1s-.4477153-1-1-1z"/><path id="Shape" d="m49 47h-4c-.5522847 0-1 .4477153-1 1s.4477153 1 1 1h4c.5522847 0 1-.4477153 1-1s-.4477153-1-1-1z"/><path id="Shape" d="m17 55c-.5522847 0-1-.4477153-1-1s-.4477153-1-1-1-1 .4477153-1 1c0 1.6568542 1.3431458 3 3 3 .5522847 0 1-.4477153 1-1s-.4477153-1-1-1z"/><path id="Shape" d="m17 40c-.5522847 0-1-.4477153-1-1s-.4477153-1-1-1-1 .4477153-1 1c0 1.6568542 1.3431458 3 3 3 .5522847 0 1-.4477153 1-1s-.4477153-1-1-1z"/><path id="Shape" d="m3.313 7.931.118.021c1.192.224 2.489.428 3.857.605 2.171.84 3.962 3.261 4.928 6.671.7740177 2.845783 1.2050758 5.7738895 1.284 8.722-.7106585.4136605-1.3426944.9495538-1.867 1.583-2.92398755-1.7935843-6.71775499-1.1974581-8.95074977 1.4064586-2.23299479 2.6039168-2.24369708 6.4442193-.02525023 9.0605414-1.30116697 1.527893-1.87813509 3.5437694-1.58238603 5.528719s1.43532441 3.7450683 3.12538603 4.827281c-.13257198.5379566-.19972433 1.0899489-.2 1.644.00602946 3.5025933 2.59786778 6.4625589 6.069 6.931.4620236 3.4747912 3.425627 6.0704236 6.931 6.0704236s6.4689764-2.5956324 6.931-6.0704236c1.9674727-.255123 3.7328623-1.336942 4.8534104-2.9741373 1.120548-1.6371954 1.4899607-3.6744649 1.0155896-5.6008627 1.6897896-1.0824314 2.8291382-2.842518 3.1248709-4.8273577.2957327-1.9848398-.2810279-4.0006193-1.5818709-5.5286423 2.2208745-2.6157025 2.2115345-6.4575727-.0220317-9.062446s-6.0290253-3.2003101-8.9529683-1.404554c-.5247414-.6336738-1.157085-1.1698794-1.868-1.584-.0576643-2.6881447-.3106643-5.3685416-.757-8.02l-.091-.475v-.015c-.3906253-2.1074443-1.0353296-4.1597531-1.92-6.112 4.442389.12169572 8.8804633-.36686258 13.19-1.452.8963234-.243631 1.658799-.83403476 2.1190487-1.6408321.4602497-.80679735.580412-1.7636184.3339513-2.6591679-.2433951-.89647246-.8337571-1.65912025-1.6406256-2.11941061-.8068686-.46029035-1.7638167-.58032901-2.6593744-.33358939-6.952 1.893-15.819 1.155-20.486.546h-.049c-1.84-.235-3.179-.468-3.816-.592l-.039-.007c-1.87080285-.32568032-3.66003505.89984221-4.03234334 2.7619264-.37230829 1.86208418.80813979 3.68136966 2.66034334 4.1000736zm17.51 18.869c-1.1697889 1.2862008-1.8195549 2.9614067-1.823 4.7.0006503.2700859.0173464.5398945.05.808-1.3358144-.4106815-2.7641856-.4106815-4.1 0 .0326536-.2681055.0493497-.5379141.05-.808-.0031442-1.7388346-.6533506-3.4142567-1.824-4.7.9436402-1.138001 2.3451553-1.7965211 3.8235-1.7965211s2.8798598.6585201 3.8235 1.7965211zm-3.823 17.2c-2.0223112 0-3.8454927-1.2182109-4.6193977-3.0865828-.773905-1.868372-.3461262-4.0189611 1.0838638-5.4489511s3.5805791-1.8577688 5.4489511-1.0838638c1.8683719.773905 3.0865828 2.5970865 3.0865828 4.6193977-.0033061 2.7600532-2.2399468 4.9966939-5 5zm-9-17.5c1.1777231.0051711 2.3170439.4194696 3.223 1.172 1.1256535.9531964 1.7754497 2.3529824 1.777 3.828-.003403.7441242-.174295 1.4779345-.5 2.147-.3160518.2658835-.6084781.5586444-.874.875-2.30687068-1.4146901-5.22633771-1.3564961-7.475.149-1.23628658-1.4890194-1.49922359-3.5589426-.67448622-5.3097685s2.58814174-2.8662285 4.52348622-2.8612315zm-5 14c.0026795-1.4350888.62186309-2.7998423 1.7-3.747 1.65400776-1.3943292 4.00374019-1.6045621 5.879-.526-.66193171 1.5256405-.75663023 3.2376622-.267 4.827-2.21591597.2229803-4.19435462 1.4847869-5.331 3.4-1.24046489-.9372411-1.97297057-2.3992944-1.981-3.954zm3 7.5c-.00187301-.6031473.10868122-1.2013609.326-1.764.76898624-2.0408764 2.77690736-3.3435527 4.954-3.214 1.0042875 1.4273077 2.504678 2.4288754 4.208 2.809.1999175.3987392.3416905.8240581.421 1.263-2.9923144.4753102-5.3391752 2.8217674-5.815 5.814-2.36864889-.4364194-4.08955248-2.499486-4.094-4.908zm11 11c-2.7614237 0-5-2.2385763-5-5s2.2385763-5 5-5 5 2.2385763 5 5c-.0033061 2.7600532-2.2399468 4.9966939-5 5zm6.906-6.092c-.4758248-2.9922326-2.8226856-5.3386898-5.815-5.814.0793095-.4389419.2210825-.8642608.421-1.263 1.7035531-.3801969 3.2040265-1.3821765 4.208-2.81 2.1804221-.1272649 4.1898613 1.1793974 4.958 3.224.2149005.5600647.3240796 1.1551247.322 1.755-.0044475 2.408514-1.7253511 4.4715806-4.094 4.908zm5.116-8.453c-1.1373545-1.9145262-3.1154078-3.1760871-5.331-3.4.4891839-1.587884.3952067-3.2982693-.265-4.823 1.8721501-1.080882 4.2208487-.8729618 5.874.52 1.1259669.9834678 1.7485065 2.4221772 1.6945665 3.9161989s-.7786095 2.8840916-1.9725665 3.7838011zm1.978-12.955c-.0031308 1.1585331-.4097661 2.2797859-1.15 3.171-2.2474974-1.5069725-5.1677288-1.5636419-7.472-.145-.2662495-.3179148-.5596925-.612027-.877-.879-.3260507-.6689845-.4972854-1.4027987-.501-2.147.0007044-1.4709751.6470553-2.8675026 1.768-3.82.9074911-.7569357 2.0502819-1.1741675 3.232-1.18 2.7600532.0033061 4.9966939 2.2399468 5 5zm-28.47-27.294c.07835106-.39082961.30903968-.73440143.64113219-.95485832s.73827545-.29966705 1.12886781-.22014168c.018 0 .037.007.056.009.665.126 2.065.373 3.974.611h.041c4.824.626 13.961 1.376 21.24-.6.5239938-.16412617 1.0957886-.02882596 1.490662.35272599.3948734.38155194.5497092.94836876.4036551 1.47768443-.1460541.52931568-.569653.93652497-1.1043171 1.06158958-4.6980405 1.14920041-9.539193 1.60336379-14.369 1.348-.3765557-.02183453-.7310042.17886314-.906.513-.1820321.32702363-.1662117.72832155.041 1.04 1.2668792 2.1508249 2.121809 4.5189227 2.521 6.983l.088.464c.3779564 2.2769793.6117549 4.5755528.7 6.882-.9867869-.233373-2.0147908-.2299463-3 .01-.1262441-2.8766612-.5743723-5.730124-1.336-8.507-.679-2.4-2.4-6.631-6.267-8.036-.06930268-.02482246-.14103424-.04225256-.214-.052-1.372-.175-2.67-.378-3.857-.6l-.096-.018c-.81156337-.1628124-1.33785139-.95224443-1.176-1.764z"/></g></g></svg>