<svg height="512" viewBox="0 0 59 60" width="512" xmlns="http://www.w3.org/2000/svg"><g id="Page-1" fill="none" fill-rule="evenodd"><g id="011---Barrels" fill="rgb(0,0,0)" fill-rule="nonzero" transform="translate(-1)"><path id="Shape" d="m30 0c-8.2803876.00936852-14.9906315 6.71961243-15 15-.0065653 3.3232909 1.1015064 6.55279 3.147 9.172-6.3194987-.9284715-12.53207269 2.2547225-15.46979195 7.9264003-2.93771925 5.6716778-1.95349617 12.5825463 2.45079195 17.2085997-.72435267.3551518-1.27743666.9841633-1.537 1.748l-2.1 6.315c-.2025791.6103648-.09929288 1.2809084.27757145 1.8020194.37686432.5211111.9813252.8292082 1.62442855.8279806h25.214c.5223931-.0043045 1.0223672-.2128364 1.393-.581.3706328.3681636.8706069.5766955 1.393.581h25.214c.6427509.0005839 1.2466158-.3077803 1.6230128-.828793.3763971-.5210128.4794541-1.1911774.2769872-1.801207l-2.1-6.323c-.2595118-.7609671-.8115626-1.3871524-1.534-1.74 4.447888-4.6134266 5.4578818-11.5497704 2.5103047-17.240043-2.947577-5.6902725-9.1960262-8.8667226-15.5303047-7.894957 2.0454936-2.61921 3.1535653-5.8487091 3.147-9.172-.0093685-8.28038757-6.7196124-14.99063148-15-15zm-14 26c6.5823645.0171196 12.1131916 4.9514685 12.8781138 11.4892593.7649223 6.5377909-3.47748 12.6156088-9.8781138 14.1517407v-2.062c2.2636826-.6464737 4.259769-2.0031394 5.694-3.87.007-.006.01-.015.016-.021 3.4878132-4.5217892 2.9353826-10.9605519-1.2717043-14.8221369-4.2070868-3.861585-10.6695046-3.861585-14.87659144 0s-4.75951743 10.3003477-1.27170426 14.8221369c.006.006.009.015.016.021 1.43423101 1.8668606 3.4303174 3.2235263 5.694 3.87v2.062c-6.40063384-1.5361319-10.64303613-7.6139498-9.87811384-14.1517407.76492229-6.5377908 6.29574939-11.4721397 12.87811384-11.4892593zm11.842 3.827c1.4294209.2306655 2.8865791.2306655 4.316 0-.90378 1.1646799-1.63093 2.4562303-2.158 3.833-.52707-1.3767697-1.25422-2.6683201-2.158-3.833zm-9.026 16.173h2.82c-.7884589.638637-1.6798502 1.1384383-2.636 1.478v-.478c-.0033144-.3414397-.0655622-.679743-.184-1zm-11.816-7c.00095082-.3341744.02064843-.6680323.059-1h17.882c.0813355.6641859.0813355 1.3358141 0 2h-17.878c-.03966123-.331895-.0606942-.6657516-.063-1zm1.522-5h14.956c.4151766.6225049.751102 1.2943557 1 2h-16.953c.24795363-.7054977.58286813-1.3773422.997-2zm1.834-2c3.2902314-2.6665457 7.9977686-2.6665457 11.288 0zm14.123 10c-.2513436.7062509-.5903255 1.3781675-1.009 2h-14.94c-.4186745-.6218325-.75765643-1.2937491-1.009-2zm-11.295 4c-.1184378.320257-.1806856.6585603-.184 1v.478c-.9561498-.3395617-1.8475411-.839363-2.636-1.478zm1.816 6v-5c0-.5522847.4477153-1 1-1s1 .4477153 1 1v5c0 .5522847-.4477153 1-1 1s-1-.4477153-1-1zm-11.607 6 2.093-6.307c.1369421-.4113454.52046935-.6899454.954-.693h.584c1.93384369 1.4523157 4.193451 2.4097823 6.582 2.789.5600642.7613296 1.4488573 1.2108788 2.394 1.2108788s1.8339358-.4495492 2.394-1.2108788c2.388549-.3792177 4.6481563-1.3366843 6.582-2.789h.584c.4306133.002254.8124403.2772818.951.685l2.096 6.315zm26.607-2.153-1.594-4.8c-.2595118-.7609671-.8115626-1.3871524-1.534-1.74 1.3543364-1.4219836 2.4170109-3.0954921 3.128-4.926.7109891 1.8305079 1.7736636 3.5040164 3.128 4.926-.7243527.3551518-1.2774367.9841633-1.537 1.748zm26.607 2.153h-25.214l2.093-6.307c.1369421-.4113454.5204694-.6899454.954-.693h.584c1.9338437 1.4523157 4.193451 2.4097823 6.582 2.789.5600642.7613296 1.4488573 1.2108788 2.394 1.2108788s1.8339358-.4495492 2.394-1.2108788c2.388549-.3792177 4.6481563-1.3366843 6.582-2.789h.584c.4306133.002254.8124403.2772818.951.685zm-13.607-6v-5c0-.5522847.4477153-1 1-1s1 .4477153 1 1v5c0 .5522847-.4477153 1-1 1s-1-.4477153-1-1zm3.816-6h2.82c-.7884589.638637-1.6798502 1.1384383-2.636 1.478v-.478c-.0033144-.3414397-.0655622-.679743-.184-1zm-11.816-7c.0009508-.3341744.0206484-.6680323.059-1h17.882c.0813355.6641859.0813355 1.3358141 0 2h-17.878c-.0396612-.331895-.0606942-.6657516-.063-1zm1.522-5h14.956c.4151766.6225049.751102 1.2943557 1 2h-16.953c.2479536-.7054977.5828681-1.3773422.997-2zm1.834-2c3.2902314-2.6665457 7.9977686-2.6665457 11.288 0zm14.123 10c-.2513436.7062509-.5903255 1.3781675-1.009 2h-14.94c-.4186745-.6218325-.7576564-1.2937491-1.009-2zm-11.3 4c-.116733.3205584-.1772877.6588529-.179 1v.478c-.9561498-.3395617-1.8475411-.839363-2.636-1.478zm15.821-7c-.0055848 6.0203683-4.1425499 11.2499057-10 12.641v-2.062c2.2636826-.6464737 4.259769-2.0031394 5.694-3.87.007-.006.01-.015.016-.021 3.4878132-4.5217892 2.9353826-10.9605519-1.2717043-14.8221369-4.2070868-3.861585-10.6695046-3.861585-14.8765914 0-4.2070869 3.861585-4.7595175 10.3003477-1.2717043 14.8221369.006.006.009.015.016.021 1.434231 1.8668606 3.4303174 3.2235263 5.694 3.87v2.062c-6.6064922-1.5668686-10.8944817-7.9539931-9.8432358-14.6618764s7.0876182-11.4769947 13.8567119-10.9476685 11.9907597 6.178788 11.9865239 12.9685449zm-21.9-12.045c-3.258831 1.3856039-6.941169 1.3856039-10.2 0-.8746225-.6529623-1.8182729-1.2079521-2.814-1.655-3.2167823-2.4457605-5.0997349-6.259054-5.086-10.3 0-7.17970175 5.8202983-13 13-13s13 5.82029825 13 13c.0137349 4.040946-1.8692177 7.8542395-5.086 10.3-.9957271.4470479-1.9393775 1.0020377-2.814 1.655z"/><path id="Shape" d="m30 4c-6.0751322 0-11 4.92486775-11 11 0 6.0751322 4.9248678 11 11 11s11-4.9248678 11-11c-.0071635-6.07216255-4.9278374-10.9928365-11-11zm7.478 16h-14.956c-.4151766-.6225049-.751102-1.2943557-1-2h16.95c-.2470092.7053513-.5809128 1.3771895-.994 2zm-16.419-4c-.0787047-.6643438-.0787047-1.3356562 0-2h17.882c.0787047.6643438.0787047 1.3356562 0 2zm1.463-6h14.956c.4151766.6225049.751102 1.2943557 1 2h-16.953c.2479536-.7054977.5828681-1.3773422.997-2zm13.122-2h-11.288c3.2902314-2.66654566 7.9977686-2.66654566 11.288 0zm-11.288 14h11.288c-3.2902314 2.6665457-7.9977686 2.6665457-11.288 0z"/></g></g></svg>