<svg height="512" viewBox="0 0 60 60" width="512" xmlns="http://www.w3.org/2000/svg"><g id="Page-1" fill="none" fill-rule="evenodd"><g id="012---Wine-Science" fill="rgb(0,0,0)" fill-rule="nonzero"><path id="Shape" d="m16 0c-.5522847 0-1 .44771525-1 1v10c0 .5522847.4477153 1 1 1s1-.4477153 1-1v-4h5v4c0 .5522847.4477153 1 1 1s1-.4477153 1-1v-10c0-.55228475-.4477153-1-1-1s-1 .44771525-1 1v4h-5v-4c0-.55228475-.4477153-1-1-1z"/><path id="Shape" d="m37 12c.5522847 0 1-.4477153 1-1v-4h5v4c0 .5522847.4477153 1 1 1s1-.4477153 1-1v-10c0-.55228475-.4477153-1-1-1s-1 .44771525-1 1v4h-5v-4c0-.55228475-.4477153-1-1-1s-1 .44771525-1 1v10c0 .5522847.4477153 1 1 1z"/><path id="Shape" d="m15 59c0 .5522847.4477153 1 1 1s1-.4477153 1-1v-4h5v4c0 .5522847.4477153 1 1 1s1-.4477153 1-1v-10c0-.5522847-.4477153-1-1-1s-1 .4477153-1 1v4h-5v-4c0-.5522847-.4477153-1-1-1s-1 .4477153-1 1z"/><path id="Shape" d="m44 60c.5522847 0 1-.4477153 1-1v-10c0-.5522847-.4477153-1-1-1s-1 .4477153-1 1v4h-5v-4c0-.5522847-.4477153-1-1-1s-1 .4477153-1 1v10c0 .5522847.4477153 1 1 1s1-.4477153 1-1v-4h5v4c0 .5522847.4477153 1 1 1z"/><path id="Shape" d="m4 25h1c2.209139 0 4-1.790861 4-4 0-.5522847-.44771525-1-1-1s-1 .4477153-1 1c0 1.1045695-.8954305 2-2 2h-1c-1.1045695 0-2-.8954305-2-2v-4c0-1.1045695.8954305-2 2-2h1c1.1045695 0 2 .8954305 2 2 0 .5522847.44771525 1 1 1s1-.4477153 1-1c0-2.209139-1.790861-4-4-4h-1c-2.209139 0-4 1.790861-4 4v4c0 2.209139 1.790861 4 4 4z"/><path id="Shape" d="m4 47h1c2.209139 0 4-1.790861 4-4 0-.5522847-.44771525-1-1-1s-1 .4477153-1 1c0 1.1045695-.8954305 2-2 2h-1c-1.1045695 0-2-.8954305-2-2v-4c0-1.1045695.8954305-2 2-2h1c1.1045695 0 2 .8954305 2 2 0 .5522847.44771525 1 1 1s1-.4477153 1-1c0-2.209139-1.790861-4-4-4h-1c-2.209139 0-4 1.790861-4 4v4c0 2.209139 1.790861 4 4 4z"/><path id="Shape" d="m55 13c-2.209139 0-4 1.790861-4 4v4c0 2.209139 1.790861 4 4 4h1c2.209139 0 4-1.790861 4-4 0-.5522847-.4477153-1-1-1s-1 .4477153-1 1c0 1.1045695-.8954305 2-2 2h-1c-1.1045695 0-2-.8954305-2-2v-4c0-1.1045695.8954305-2 2-2h1c1.1045695 0 2 .8954305 2 2 0 .5522847.4477153 1 1 1s1-.4477153 1-1c0-2.209139-1.790861-4-4-4z"/><path id="Shape" d="m55 37h1c1.1045695 0 2 .8954305 2 2 0 .5522847.4477153 1 1 1s1-.4477153 1-1c0-2.209139-1.790861-4-4-4h-1c-2.209139 0-4 1.790861-4 4v4c0 2.209139 1.790861 4 4 4h1c2.209139 0 4-1.790861 4-4 0-.5522847-.4477153-1-1-1s-1 .4477153-1 1c0 1.1045695-.8954305 2-2 2h-1c-1.1045695 0-2-.8954305-2-2v-4c0-1.1045695.8954305-2 2-2z"/><path id="Shape" d="m12.707 8.707c.2599566-.25107447.3642126-.62287789.2726972-.97250732-.0915155-.34962944-.3645604-.6226744-.7141899-.71418984-.3496294-.09151544-.7214328.01274058-.9725073.27269716l-3 3c-.25995658.2510745-.3642126.6228779-.27269716.9725073.09151544.3496295.3645604.6226744.71418984.7141899.34962943.0915154.72143285-.0127406.97250732-.2726972z"/><path id="Shape" d="m8.293 48.293c-.39038194.3904999-.39038194 1.0235001 0 1.414l3 3c.3923789.3789722 1.0160848.3735524 1.4018186-.0121814s.3911536-1.0094397.0121814-1.4018186l-3-3c-.39049985-.3903819-1.02350015-.3903819-1.414 0z"/><path id="Shape" d="m50.293 11.707c.3923789.3789722 1.0160848.3735524 1.4018186-.0121814s.3911536-1.0094397.0121814-1.4018186l-3-3c-.2510745-.25995658-.6228779-.3642126-.9725073-.27269716-.3496295.09151544-.6226744.3645604-.7141899.71418984-.0915154.34962943.0127406.72143285.2726972.97250732z"/><path id="Shape" d="m47.293 52.707c.3904999.3903819 1.0235001.3903819 1.414 0l3-3c.3789722-.3923789.3735524-1.0160848-.0121814-1.4018186s-1.0094397-.3911536-1.4018186-.0121814l-3 3c-.3903819.3904999-.3903819 1.0235001 0 1.414z"/><path id="Shape" d="m3 28v4c0 .5522847.44771525 1 1 1s1-.4477153 1-1v-4c0-.5522847-.44771525-1-1-1s-1 .4477153-1 1z"/><path id="Shape" d="m57 32v-4c0-.5522847-.4477153-1-1-1s-1 .4477153-1 1v4c0 .5522847.4477153 1 1 1s1-.4477153 1-1z"/><path id="Shape" d="m33 7c.5522847 0 1-.44771525 1-1s-.4477153-1-1-1h-6c-.5522847 0-1 .44771525-1 1s.4477153 1 1 1z"/><path id="Shape" d="m27 53c-.5522847 0-1 .4477153-1 1s.4477153 1 1 1h6c.5522847 0 1-.4477153 1-1s-.4477153-1-1-1z"/><path id="Shape" d="m21 16v7c-.0008468 3.8177371 2.402403 7.2223409 6 8.5v7.008c-.0013552.9389475-.6557005 1.7505355-1.573 1.951-1.282.293-3.427.783-3.427 3.541 0 1.1045695.8954305 2 2 2h12c1.1045695 0 2-.8954305 2-2 0-2.758-2.145-3.248-3.427-3.542-.9169341-.2003839-1.5711759-1.0114274-1.573-1.95v-7.008h-.03c3.6101912-1.2665304 6.0275553-4.6740918 6.03-8.5v-7c0-1.1045695-.8954305-2-2-2h-14c-1.1045695 0-2 .8954305-2 2zm11.324 13.611c-.8023925.2784249-1.3360117 1.0397593-1.324 1.889v7.008c-.0024646 1.8728848 1.2983648 3.4952816 3.127 3.9 1.689.386 1.873.664 1.873 1.592h-12c0-.928.184-1.206 1.873-1.591 1.8285789-.4054782 3.1291795-2.0280054 3.127-3.901v-7.008c.0131354-.8441287-.5141166-1.6024056-1.31-1.884-2.8094083-.9859542-4.6898394-3.638605-4.69-6.616v-.83c.3849444.1546753.7440674.3671143 1.065.63 1.8837982 1.5999345 4.6492018 1.5999345 6.533 0 1.1715261-1.0668103 2.9624739-1.0668103 4.134 0 .6359279.534387 1.3901196.9094259 2.2 1.094-.3330106 2.623001-2.1155514 4.8345431-4.608 5.717zm4.676-7.78c-.3857228-.1547736-.7455394-.3675612-1.067-.631-1.8845971-1.5998192-4.6504029-1.5998192-6.535 0-1.1708656 1.0665362-2.9611344 1.0665362-4.132 0-.6533655-.5474572-1.4316915-.9252853-2.266-1.1v-4.1h14z"/></g></g></svg>