<svg height="512" viewBox="0 0 51 60" width="512" xmlns="http://www.w3.org/2000/svg"><g id="Page-1" fill="none" fill-rule="evenodd"><g id="013---Wine-Glass-and-Bottle" fill="rgb(0,0,0)" fill-rule="nonzero"><path id="Shape" d="m34.271 21.3c-.4865459 1.9013114-1.2084571 3.7344753-2.149 5.457-2.0459054 3.7565773-3.1191752 7.9654313-3.122 12.243v16c.0033061 2.7600532 2.2399468 4.9966939 5 5h12c2.7600532-.0033061 4.9966939-2.2399468 5-5v-16c-.0019478-2.1299127-.2676361-4.2513881-.791-6.316-.526802-2.063866-1.3098902-4.0536691-2.331-5.923-1.8857585-3.4612219-2.8751588-7.3394097-2.878-11.281v-3.815c1.3939546-.6590732 2.1906483-2.15437668 1.9601399-3.67895946-.2305084-1.52458279-1.4336496-2.71752237-2.9601399-2.93504054v-3.051c0-1.1045695-.8954305-2-2-2h-4c-1.1045695 0-2 .8954305-2 2v3.049c-1.7259531.23148226-3.0109242 1.70962737-3 3.451.0031238 1.35115948.7806756 2.5808576 2 3.163v3.817c-.0025301 1.9626102-.2473825 3.9173992-.729 5.82zm14.729 28.7h-18v-10h18zm-3 8h-12c-1.6568542 0-3-1.3431458-3-3v-3h18v3c0 1.6568542-1.3431458 3-3 3zm-8-56h4v3h-4zm-1.79 19.794c.5226309-2.0640491.7879783-4.1848129.79-6.314v-3.48h1c.5522847 0 1-.4477153 1-1s-.4477153-1-1-1h-1.726c-.026-.008-.048-.024-.076-.03-.7556011-.15342043-1.2718269-.85468295-1.1938291-1.62174693.0779977-.76706399.7248119-1.35006453 1.4958291-1.34825307h7c.8284271 0 1.5.67157288 1.5 1.5-.0006069.3979349-.1575498.77969777-.437 1.063-.2086141.20796544-.4740854.34957329-.763.407-.028.006-.049.022-.076.03h-1.724c-.5522847 0-1 .4477153-1 1s.4477153 1 1 1h1v3.48c.003362 4.275913 1.0766244 8.483019 3.122 12.238.9403727 1.7226042 1.6622753 3.5557464 2.149 5.457.3968293 1.5803396.6313772 3.1970449.7 4.825h-17.939c.1521689-3.5995191 1.1256611-7.1165416 2.846-10.282 1.0213428-1.869687 1.8047597-3.8598081 2.332-5.924z"/><path id="Shape" d="m38 44h4c.5522847 0 1-.4477153 1-1s-.4477153-1-1-1h-4c-.5522847 0-1 .4477153-1 1s.4477153 1 1 1z"/><path id="Shape" d="m38 48h4c.5522847 0 1-.4477153 1-1s-.4477153-1-1-1h-4c-.5522847 0-1 .4477153-1 1s.4477153 1 1 1z"/><path id="Shape" d="m21.567 32.487c2.551727-1.5049662 4.3934753-3.9702362 5.113-6.844.3033884-1.3197028.3512504-2.685295.141-4.023l-2.712-19.891c-.1387606-.98902957-.9832891-1.72575502-1.982-1.729h-17.254c-.9987109.00324498-1.84323943.73997043-1.982 1.729l-2.712 19.891c-.21026986 1.3373697-.16240738 2.7026384.141 4.022.71918048 2.8741836 2.56098362 5.3398872 5.113 6.845 2.79574851 1.6209162 4.53106314 4.5945471 4.567 7.826v11.9c-.00692677.5052294-.38475896.928265-.886.992-3.989.604-8.114 2.565-8.114 4.795 0 1.1045695.8954305 2 2 2h21c1.1045695 0 2-.8954305 2-2 0-2.23-4.125-4.191-8.114-4.8-.500499-.0636258-.8780865-.4855351-.886-.99v-11.9c.0369896-3.2303779 1.7721641-6.202629 4.567-7.823zm-16.694-30.487h17.254l1.9 13.905c-.6307599-.2781271-1.2205504-.6411528-1.753-1.079-2.8400847-2.433287-7.0299153-2.433287-9.87 0-2.1276501 1.900739-5.3433499 1.900739-7.471 0-.51973097-.4099474-1.07453879-.7733498-1.658-1.086zm12.712 53.18c4.13.628 6.292 2.32 6.415 2.82l-21 .03c.125-.535 2.287-2.222 6.417-2.85 1.4808879-.2078612 2.5825628-1.4745953 2.583-2.97v-11.9c-.0372756-3.9396112-2.14738069-7.5681712-5.553-9.549-2.08816934-1.2314335-3.59558036-3.2485187-4.185-5.6-.24145337-1.074001-.27539572-2.1842552-.1-3.271l.819-6c.253.169.5.35.75.538 1.36179146 1.1948999 3.11743066 1.8438702 4.929 1.822 1.8155115.0214045 3.5748831-.6289219 4.94-1.826 2.1274955-1.9001435 5.3425045-1.9001435 7.47 0 .9405423.7942849 2.052794 1.3591403 3.249 1.65l.52 3.815c.1753766 1.0870804.1414348 2.1976583-.1 3.272-.5895228 2.3514323-2.0969069 4.3684815-4.185 5.6-3.4069181 1.9811228-5.5175704 5.6111103-5.554 9.552v11.9c.0020718 1.4949253 1.1044457 2.7602032 2.585 2.967z"/><path id="Shape" d="m8.475 27.316c-1.1616622-.683913-2.00086057-1.804765-2.33-3.112-.11422805-.5848603-.12134339-1.1855982-.021-1.773.04823086-.3540502-.09608552-.7069369-.37858656-.9257312-.28250104-.2187942-.66026812-.270256-.99100001-.135-.3307319.135256-.56418258.436681-.61241343.7907312-.13842763.8372402-.11875487 1.6930054.058 2.523.45879875 1.8294439 1.63200712 3.3985245 3.257 4.356.47606945.2800083 1.08899161.1210694 1.36899997-.355.28000836-.4760695.12106946-1.0889916-.35499997-1.369z"/></g></g></svg>