<svg height="512" viewBox="0 0 60 61" width="512" xmlns="http://www.w3.org/2000/svg"><g id="Page-1" fill="none" fill-rule="evenodd"><g id="014---Wine-Time" fill="rgb(0,0,0)" fill-rule="nonzero"><path id="Shape" d="m5.488 32.487c2.79574851 1.6209162 4.5310631 4.5945471 4.567 7.826v11.9c-.0064954.5053973-.38454359.9286748-.886.992-3.988.607-8.114 2.568-8.114 4.8 0 1.1045695.8954305 2 2 2h21c1.1045695 0 2-.8954305 2-2 0-2.23-4.125-4.191-8.114-4.8-.501241-.063735-.8790732-.4867706-.886-.992v-11.9c.0359369-3.2314529 1.7712515-6.2050838 4.567-7.826 2.5520164-1.5051128 4.3938195-3.9708164 5.113-6.845.3038756-1.3193001.3517412-2.6846588.141-4.022l-2.712-19.891c-.1387062-.98865494-.9826694-1.72525882-1.981-1.729h-17.255c-.9984929.00331076-1.84269829.74012606-1.981 1.729l-2.713 19.891c-.21026986 1.3373697-.16240738 2.7026384.141 4.022.72000576 2.8737916 2.56159368 5.3392071 5.113 6.845zm19.306-7.324c-.5902779 2.3513591-2.0979087 4.3682564-4.186 5.6-3.4056193 1.9808288-5.5157244 5.6093888-5.553 9.549v11.9c.0006468 1.4963962 1.1039208 2.7634974 2.586 2.97 4.13.628 6.292 2.315 6.414 2.82l-21 .03c.125-.535 2.287-2.222 6.417-2.85 1.4816821-.2069556 2.5844229-1.4739344 2.585-2.97v-11.9c-.0384598-3.9400705-2.15014683-7.568357-5.557-9.548-2.08778843-1.2318583-3.59506506-3.2487637-4.185-5.6-.24096449-1.0740628-.27490398-2.1842234-.1-3.271l.819-6c.253.169.5.35.75.538 1.36284645 1.1941123 3.11917069 1.842004 4.931 1.819 1.8158876.0218415 3.575724-.6285251 4.941-1.826 2.1274955-1.9001435 5.3425045-1.9001435 7.47 0 .940664.7941012 2.0528704 1.3589337 3.249 1.65l.52 3.815c.1747647 1.0878311.1404859 2.1990099-.101 3.274zm-19.866-23.163h17.255l1.9 13.905c-.6306378-.2783596-1.2203979-.6413665-1.753-1.079-1.366059-1.1988164-3.1276572-1.8493075-4.945-1.826-1.8117993-.0211286-3.5674046.6285415-4.929 1.824-1.0214087.9319492-2.3584075 1.4415884-3.741 1.426-1.37893046.0155406-2.71224697-.4934789-3.73-1.424-.51944799-.410632-1.07428783-.7743901-1.658-1.087z"/><path id="Shape" d="m8.53 27.316c-1.16251358-.6848396-2.00182369-1.8072818-2.33-3.116-.11372156-.5849122-.12083582-1.1855583-.021-1.773.07455843-.5473142-.30868582-1.0514415-.856-1.126-.54731418-.0745584-1.05144155.3086858-1.126.856-.13711206.8374896-.11608253 1.6932559.062 2.523.45824781 1.8307308 1.63146022 3.4012577 3.257 4.36.47606945.2800084 1.08899162.1210694 1.36899998-.355.28000837-.4760695.12106946-1.0889916-.35499998-1.369z"/><path id="Shape" d="m57.589 33c-.0241883-.0315035-.0505884-.0612453-.079-.089-1.5599417-2.6511797-3.7698203-4.8610583-6.421-6.421-.0277547-.0284116-.0574965-.0548117-.089-.079-.029-.016-.06-.017-.09-.03-5.5158386-3.1745985-12.3041614-3.1745985-17.82 0-.03.013-.061.014-.09.03-.0315035.0241883-.0612453.0505884-.089.079-2.6510565 1.5596632-4.8609239 3.7691865-6.421 6.42-.0279056.0285826-.0542759.0586247-.079.09-.0114926.0291425-.0215053.058847-.03.089-3.1747507 5.5165122-3.1747507 12.3054878 0 17.822.0084947.030153.0185074.0598575.03.089.0334883.0523382.0716439.1015388.114.147 1.5579508 2.6256426 3.7547533 4.814533 6.386 6.363.0277547.0284116.0574965.0548117.089.079.0401605.0197224.0815847.0367598.124.051 5.4989855 3.1467464 12.2530145 3.1467464 17.752 0 .0424153-.0142402.0838395-.0312776.124-.051.0315035-.0241883.0612453-.0505884.089-.079 2.6312467-1.548467 4.8280492-3.7373574 6.386-6.363.0423561-.0454612.0805117-.0946618.114-.147.0114926-.0291425.0215053-.058847.03-.089 3.1747507-5.5165122 3.1747507-12.3054878 0-17.822-.0084947-.030153-.0185074-.0598575-.03-.089zm-6.743 22.321-.98-1.7c-.1773616-.3119508-.5082732-.5049532-.8671183-.5057421s-.6906021.1907567-.8693336.5019247c-.1787314.3111679-.1770325.694247.0044519 1.0038174l.975 1.688c-1.905677.950999-3.9832591 1.5087392-6.109 1.64v-1.949c0-.5522847-.4477153-1-1-1s-1 .4477153-1 1v1.949c-2.1254611-.1300113-4.2030294-.6863875-6.109-1.636l.975-1.688c.1814844-.3095704.1831833-.6926495.0044519-1.0038174-.1787315-.311168-.5104885-.5027136-.8693336-.5019247s-.6897567.1937913-.8671183.5057421l-.98 1.7c-1.772077-1.1820869-3.2929131-2.702923-4.475-4.475l1.7-.98c.3119508-.1773616.5049532-.5082732.5057421-.8671183s-.1907567-.6906021-.5019247-.8693336c-.3111679-.1787314-.694247-.1770325-1.0038174.0044519l-1.688.975c-.9515161-1.9069025-1.5092701-3.9858964-1.64-6.113h1.949c.5522847 0 1-.4477153 1-1s-.4477153-1-1-1h-1.949c.1300113-2.1254611.6863875-4.2030294 1.636-6.109l1.688.975c.3095704.1814844.6926495.1831833 1.0038174.0044519.311168-.1787315.5027136-.5104885.5019247-.8693336s-.1937913-.6897567-.5057421-.8671183l-1.7-.98c1.1820869-1.772077 2.702923-3.2929131 4.475-4.475l.98 1.7c.1773616.3119508.5082732.5049532.8671183.5057421s.6906021-.1907567.8693336-.5019247c.1787314-.3111679.1770325-.694247-.0044519-1.0038174l-.975-1.688c1.9069025-.9515161 3.9858964-1.5092701 6.113-1.64v1.949c0 .5522847.4477153 1 1 1s1-.4477153 1-1v-1.949c2.1254611.1300113 4.2030294.6863875 6.109 1.636l-.975 1.688c-.1814844.3095704-.1831833.6926495-.0044519 1.0038174.1787315.311168.5104885.5027136.8693336.5019247s.6897567-.1937913.8671183-.5057421l.98-1.7c1.772077 1.1820869 3.2929131 2.702923 4.475 4.475l-1.7.98c-.3119508.1773616-.5049532.5082732-.5057421.8671183s.1907567.6906021.5019247.8693336c.3111679.1787314.694247.1770325 1.0038174-.0044519l1.688-.975c.9515161 1.9069025 1.5092701 3.9858964 1.64 6.113h-1.949c-.5522847 0-1 .4477153-1 1s.4477153 1 1 1h1.949c-.1300113 2.1254611-.6863875 4.2030294-1.636 6.109l-1.688-.975c-.3095704-.1814844-.6926495-.1831833-1.0038174-.0044519-.311168.1787315-.5027136.5104885-.5019247.8693336s.1937913.6897567.5057421.8671183l1.7.98c-1.1832594 1.772462-2.7054815 3.2933247-4.479 4.475z"/><path id="Shape" d="m47 41h-4v-8c0-.5522847-.4477153-1-1-1s-1 .4477153-1 1v9c0 .5522847.4477153 1 1 1h5c.5522847 0 1-.4477153 1-1s-.4477153-1-1-1z"/></g></g></svg>