<svg height="512" viewBox="0 0 50 60" width="512" xmlns="http://www.w3.org/2000/svg"><g id="Page-1" fill="none" fill-rule="evenodd"><g id="015---Wine-Bottles" fill="rgb(0,0,0)" fill-rule="nonzero"><path id="Shape" d="m27 42h-4c-.5522847 0-1 .4477153-1 1s.4477153 1 1 1h4c.5522847 0 1-.4477153 1-1s-.4477153-1-1-1z"/><path id="Shape" d="m27 46h-4c-.5522847 0-1 .4477153-1 1s.4477153 1 1 1h4c.5522847 0 1-.4477153 1-1s-.4477153-1-1-1z"/><path id="Shape" d="m50 53v-11c-.0062491-.0624013-.0186425-.1240335-.037-.184-.1656602-3.8730245-1.2212878-7.6558326-3.085-11.055-1.8857585-3.4612219-2.8751588-7.3394097-2.878-11.281v-.815c1.3939546-.6590732 2.1906483-2.1543767 1.9601399-3.6789595s-1.4336496-2.7175223-2.9601399-2.9350405v-3.051c0-1.1045695-.8954305-2-2-2h-3c-1.1045695 0-2 .8954305-2 2v3.049c-1.725504.2323153-3.0100368 1.7099561-3 3.451.0029814 1.3514506.7805178 2.5815132 2 3.164v.816c-.0022008 1.9639488-.2470557 3.9201015-.729 5.824-.2240983.8752424-.4999161 1.7364215-.826 2.579-.182-.376-.366-.752-.567-1.122-1.8857585-3.4612219-2.8751588-7.3394097-2.878-11.281v-3.815c1.3939546-.6590732 2.1906483-2.15437668 1.9601399-3.67895946-.2305084-1.52458279-1.4336496-2.71752237-2.9601399-2.93504054v-3.051c0-1.1045695-.8954305-2-2-2h-4c-1.1045695 0-2 .8954305-2 2v3.049c-1.7259531.23148226-3.0109242 1.70962737-3 3.451.0031238 1.35115948.7806756 2.5808576 2 3.163v3.817c-.0022008 1.9639488-.2470557 3.9201015-.729 5.824-.4865459 1.9013114-1.2084571 3.7344753-2.149 5.457-.2.365-.381.738-.562 1.112-1.0240916-2.6800781-1.5526771-5.5239359-1.56-8.393v-.815c1.3939546-.6590732 2.1906483-2.1543767 1.9601399-3.6789595s-1.4336496-2.7175223-2.9601399-2.9350405v-3.051c0-1.1045695-.8954305-2-2-2h-3c-1.1045695 0-2 .8954305-2 2v3.049c-1.72550403.2323153-3.01003678 1.7099561-3 3.451.00298142 1.3514506.78051784 2.5815132 2 3.164v.816c-.00220076 1.9639488-.24705572 3.9201015-.729 5.824-.48654595 1.9013114-1.20845712 3.7344753-2.149 5.457-1.85089224 3.4040168-2.90567996 7.1834733-3.085 11.054-.01845413.060283-.03084883.1222564-.037.185v13c.00330612 2.7600532 2.23994685 4.9966939 5 5h40c2.7600532-.0033061 4.9966939-2.2399468 5-5zm-2-1h-12v-9h12zm-46-9h12v9h-12zm14-3h18v10h-18zm22-31h3v3h-3zm-1.79 16.794c.5226309-2.0640491.7879783-4.1848129.79-6.314v-.48h1c.5522847 0 1-.4477153 1-1s-.4477153-1-1-1h-1.725c-.025072-.0114639-.0507809-.0214803-.077-.03-.7556011-.1534204-1.2718269-.8546829-1.1938291-1.6217469.0779977-.767064.7248119-1.3500646 1.4958291-1.3482531h6c.7706297-.0007745 1.416466.5825227 1.4939133 1.3492512s-.4386955 1.4673973-1.1939133 1.6207488c-.028.006-.049.022-.076.03h-1.724c-.5522847 0-1 .4477153-1 1s.4477153 1 1 1h1v.48c.0034921 4.2762142 1.0767413 8.4836123 3.122 12.239.9410252 1.7219475 1.6629628 3.5548426 2.149 5.456.3123086 1.2559853.5226592 2.5351444.629 3.825h-11.9v-2c-.0019478-2.1299127-.2676361-4.2513881-.791-6.316-.191-.754-.431-1.5-.694-2.236.7157236-1.4922178 1.2834385-3.0510055 1.695-4.654zm-13.21-23.794h4v3h-4zm-1.79 19.794c.5226309-2.0640491.7879783-4.1848129.79-6.314v-3.48h1c.5522847 0 1-.4477153 1-1s-.4477153-1-1-1h-1.726c-.026-.008-.048-.024-.076-.03-.7556011-.15342043-1.2718269-.85468295-1.1938291-1.62174693.0779977-.76706399.7248119-1.35006453 1.4958291-1.34825307h7c.8284271 0 1.5.67157288 1.5 1.5-.0006069.3979349-.1575498.77969777-.437 1.063-.2086141.20796544-.4740854.34957329-.763.407-.028.006-.049.022-.076.03h-1.724c-.5522847 0-1 .4477153-1 1s.4477153 1 1 1h1v3.48c.003362 4.275913 1.0766244 8.483019 3.122 12.238.9403727 1.7226042 1.6622753 3.5557464 2.149 5.457.3968293 1.5803396.6313772 3.1970449.7 4.825h-17.939c.1521689-3.5995191 1.1256611-7.1165416 2.846-10.282 1.0213428-1.869687 1.8047597-3.8598081 2.332-5.924zm-12.21-12.794h3v3h-3zm-4.122 22.718c1.02134276-1.869687 1.80475974-3.8598081 2.332-5.924.52263094-2.0640491.78797833-4.1848129.79-6.314v-.48h1c.55228475 0 1-.4477153 1-1s-.44771525-1-1-1h-1.725c-.02507201-.0114639-.05078089-.0214803-.077-.03-.75560108-.1534204-1.27182688-.8546829-1.19382913-1.6217469s.72481192-1.3500646 1.49582913-1.3482531h6c.7706297-.0007745 1.416466.5825227 1.4939133 1.3492512s-.4386955 1.4673973-1.1939133 1.6207488c-.028.006-.049.022-.076.03h-1.724c-.5522847 0-1 .4477153-1 1s.4477153 1 1 1h1v.48c.0094152 3.7958105.8590793 7.5424604 2.488 10.971-.9788752 2.7442275-1.4821031 5.6354204-1.488 8.549v2h-11.9c.27494893-3.2526662 1.22082851-6.4130889 2.778-9.282zm-2.878 23.282v-1h12v1c.0036768 1.0854693.3641933 2.1396111 1.026 3h-10.026c-1.65685425 0-3-1.3431458-3-3zm27 3h-10c-1.6568542 0-3-1.3431458-3-3v-3h18v3c0 1.6568542-1.3431458 3-3 3zm16 0h-10.026c.6618067-.8603889 1.0223232-1.9145307 1.026-3v-1h12v1c0 1.6568542-1.3431458 3-3 3z"/><path id="Shape" d="m38 47h3c.5522847 0 1-.4477153 1-1s-.4477153-1-1-1h-3c-.5522847 0-1 .4477153-1 1s.4477153 1 1 1z"/><path id="Shape" d="m9 47h3c.5522847 0 1-.4477153 1-1s-.4477153-1-1-1h-3c-.55228475 0-1 .4477153-1 1s.44771525 1 1 1z"/><path id="Shape" d="m41 48h-3c-.5522847 0-1 .4477153-1 1s.4477153 1 1 1h3c.5522847 0 1-.4477153 1-1s-.4477153-1-1-1z"/><path id="Shape" d="m12 48h-3c-.55228475 0-1 .4477153-1 1s.44771525 1 1 1h3c.5522847 0 1-.4477153 1-1s-.4477153-1-1-1z"/></g></g></svg>