<svg height="512" viewBox="0 0 58 60" width="512" xmlns="http://www.w3.org/2000/svg"><g id="Page-1" fill="none" fill-rule="evenodd"><g id="016---Wine-Temperature" fill="rgb(0,0,0)" fill-rule="nonzero" transform="translate(0 -1)"><path id="Shape" d="m3.122 31.762c-1.86323042 3.3990035-2.91883109 7.181373-3.085 11.054-.01835748.0599665-.0307509.1215987-.037.184v13c.00330612 2.7600532 2.23994685 4.9966939 5 5h26c2.3148321-.0058635 4.3229832-1.5998903 4.854-3.853 2.2940228 2.3259493 5.3823276 3.6990055 8.646 3.844.169.006.337.009.505.009 5.7734726-.0032275 10.8530832-3.8138245 12.4715126-9.3558171 1.6184293-5.5419926-.6121383-11.4873826-5.4765126-14.5971829v-29.047c-.004004-3.79425238-3.0261541-6.89662086-6.819-7-1.8495615-.03654859-3.6347751.6790525-4.947 1.983-1.4206069 1.38603368-2.2254404 3.28427327-2.234 5.269l-.013 28.794c-.7282842.477516-1.4075865 1.0258482-2.028 1.637-.0860098-1.6871047-.3368713-3.3617479-.749-5-.5279566-2.0636418-1.3113412-4.0533446-2.332-5.923-1.8855968-3.4609245-2.8749919-7.3387483-2.878-11.28v-3.815c1.3939546-.6590732 2.1906483-2.1543767 1.9601399-3.67895946-.2305084-1.52458279-1.4336496-2.71752237-2.9601399-2.93504054v-3.051c0-1.1045695-.8954305-2-2-2h-4c-1.1045695 0-2 .8954305-2 2v3.05c-1.5264903.21751817-2.7296315 1.41045775-2.9601399 2.93504054-.2305084 1.52458276.5661853 3.01988626 1.9601399 3.67895946v3.816c-.0016991 1.9639804-.2465618 3.9201946-.729 5.824-.4858483 1.901537-1.207793 3.734786-2.149 5.457-.2.369-.385.745-.567 1.122-.3257932-.8423413-.6016057-1.7031702-.826-2.578-.4823687-1.9041584-.7272296-3.8606947-.729-5.825v-.816c1.4021169-.6530261 2.2062734-2.1518641 1.9750444-3.6812129-.2312291-1.5293489-1.4425443-2.7234587-2.9750444-2.9327871v-3.05c0-1.1045695-.8954305-2-2-2h-3c-1.1045695 0-2 .8954305-2 2v3.051c-1.52649031.2175182-2.72963146 1.4104577-2.96013989 2.9350405-.23050844 1.5245828.56618532 3.0198863 1.96013989 3.6789595v.815c-.00297143 3.9418915-.99235849 7.8203713-2.878 11.282zm30.878 9.332c-1.3618971 2.1540462-2.0576363 4.6621858-2 7.21.0234274.9107602.1468342 1.8161908.368 2.7h-16.368v-10.004h18zm-20 10.906v1h-12v-9h12zm-12 4v-1h12v1c.0036768 1.0854693.3641933 2.1396111 1.026 3h-10.026c-1.65685425 0-3-1.3431458-3-3zm29 3h-12c-1.6568542 0-3-1.3431458-3-3v-3h17.037c.2728769.6280513.5948758 1.2335965.963 1.811v1.189c0 1.6568542-1.3431458 3-3 3zm8.068-20.271c.5778007-.3649258.9292736-.9996135.932-1.683v-10.046h2c.5522847 0 1-.4477153 1-1s-.4477153-1-1-1h-2v-2h2c.5522847 0 1-.4477153 1-1s-.4477153-1-1-1h-2v-2h2c.5522847 0 1-.4477153 1-1s-.4477153-1-1-1h-2v-2h2c.5522847 0 1-.4477153 1-1s-.4477153-1-1-1h-2v-2h2c.5522847 0 1-.4477153 1-1 0-.55228475-.4477153-1-1-1h-2v-.748c.0079498-1.4452129.5955241-2.82678708 1.631-3.835.8971795-.89862425 2.1122086-1.40770059 3.382-1.417h.117c2.7082448.07570557 4.8656501 2.2907008 4.87 5v29.047c.0030674.6830306.354498 1.3172649.932 1.682 4.1882437 2.6737681 6.0639624 7.8233498 4.576562 12.5644531-1.4874003 4.7411034-5.9685561 7.8963777-10.933562 7.6985469-5.7772189-.2897956-10.3714469-4.9530999-10.575-10.734-.103074-3.846351 1.8211392-7.4643123 5.068-9.529zm-16.068-35.729h4v3h-4zm-1.79 19.794c.5226309-2.0640491.7879783-4.1848129.79-6.314v-3.48h1c.5522847 0 1-.4477153 1-1s-.4477153-1-1-1h-1.724c-.0254125-.0114653-.0514542-.0214813-.078-.03-.7556011-.1534204-1.2718269-.8546829-1.1938291-1.62174693.0779977-.76706399.7248119-1.35006453 1.4958291-1.34825307h7c.7706297-.00077448 1.416466.58252269 1.4939133 1.34925118.0774473.76672852-.4386955 1.46739732-1.1939133 1.62074882-.028.006-.049.022-.076.03h-1.724c-.5522847 0-1 .4477153-1 1s.4477153 1 1 1h1v3.48c.0034921 4.2762142 1.0767413 8.4836123 3.122 12.239.9410252 1.7219475 1.6629628 3.5548426 2.149 5.456.3968293 1.5803396.6313772 3.1970449.7 4.825h-17.939c.1520389-3.5992226 1.1255437-7.1159488 2.846-10.281 1.0210022-1.8701978 1.8043999-3.8606058 2.332-5.925zm-12.21-12.794h3v3h-3zm-1 10.48v-.48h1c.55228475 0 1-.4477153 1-1s-.44771525-1-1-1h-1.724c-.027-.008-.048-.024-.076-.03-.28877308-.0578225-.554136-.1993725-.763-.407-.43098036-.429075-.56023565-1.0759115-.32724938-1.6376649.23298627-.5617533.78209988-.9272375 1.39024938-.9253351h6c.7706297-.0007745 1.416466.5825227 1.4939133 1.3492512s-.4386955 1.4673973-1.1939133 1.6207488c-.4656663.0950537-.800097.5047314-.8.98v1.53c.0020825 2.1295127.2674283 4.2505999.79 6.315.4126619 1.6049443.9820656 3.1654452 1.7 4.659-.9790871 2.7431946-1.4829829 5.6333245-1.49 8.546v2h-11.9c.10765593-1.2896358.31934479-2.5684639.633-3.824.4858483-1.901537 1.20779298-3.734786 2.149-5.457 2.04386648-3.7557527 3.11573532-7.9631301 3.118-12.239z"/><path id="Shape" d="m9 48h3c.5522847 0 1-.4477153 1-1s-.4477153-1-1-1h-3c-.55228475 0-1 .4477153-1 1s.44771525 1 1 1z"/><path id="Shape" d="m9 51h3c.5522847 0 1-.4477153 1-1s-.4477153-1-1-1h-3c-.55228475 0-1 .4477153-1 1s.44771525 1 1 1z"/><path id="Shape" d="m23 45h4c.5522847 0 1-.4477153 1-1s-.4477153-1-1-1h-4c-.5522847 0-1 .4477153-1 1s.4477153 1 1 1z"/><path id="Shape" d="m23 49h4c.5522847 0 1-.4477153 1-1s-.4477153-1-1-1h-4c-.5522847 0-1 .4477153-1 1s.4477153 1 1 1z"/><path id="Shape" d="m45 57c4.072784-.0039127 7.6359344-2.7409778 8.6897111-6.6750774 1.0537766-3.9340996-.6641828-8.0857476-4.1897111-10.1249226l-1.5-.869v-8.331c.0007564-.8006823-.3207251-1.5679851-.892-2.129-.5569563-.5619825-1.3167982-.87594-2.108-.871-1.6568542 0-3 1.3431458-3 3v8.331l-1.5.866c-3.5286818 2.0378685-5.249138 6.1913786-4.1949997 10.127531s4.6201376 6.6739004 8.6949997 6.675469zm-3.5-15.071 2-1.156c.309084-.1784495.4996339-.5081008.5-.865v-8.908c0-.5522847.4477153-1 1-1 .2623126-.0037791.5149259.0990706.7.285.1939434.1870238.3024294.4455821.3.715v8.908c.0003661.3568992.190916.6865505.5.865l2 1.156c2.7451173 1.5830837 4.0843389 4.8128601 3.2649288 7.8739694-.8194101 3.0611092-3.5930453 5.1899395-6.7619288 5.1899395s-5.9425187-2.1288303-6.7619288-5.1899395c-.8194101-3.0611093.5198115-6.2908857 3.2649288-7.8739694z"/><path id="Shape" d="m45 53c.5522847 0 1-.4477153 1-1s-.4477153-1-1-1c-1.6568542 0-3-1.3431458-3-3 0-.5522847-.4477153-1-1-1s-1 .4477153-1 1c.0033061 2.7600532 2.2399468 4.9966939 5 5z"/></g></g></svg>