<svg height="512" viewBox="0 0 60 60" width="512" xmlns="http://www.w3.org/2000/svg"><g id="Page-1" fill="none" fill-rule="evenodd"><g id="017---Wine-PH" fill="rgb(0,0,0)" fill-rule="nonzero"><path id="Shape" d="m13 42h-4c-.55228475 0-1 .4477153-1 1s.44771525 1 1 1h4c.5522847 0 1-.4477153 1-1s-.4477153-1-1-1z"/><path id="Shape" d="m13 46h-4c-.55228475 0-1 .4477153-1 1s.44771525 1 1 1h4c.5522847 0 1-.4477153 1-1s-.4477153-1-1-1z"/><path id="Shape" d="m32.5 30h-5.5c-.5522847 0-1 .4477153-1 1v18c0 .5522847.4477153 1 1 1s1-.4477153 1-1v-8h4.5c3.0375661 0 5.5-2.4624339 5.5-5.5s-2.4624339-5.5-5.5-5.5zm0 9h-4.5v-7h4.5c1.9329966 0 3.5 1.5670034 3.5 3.5s-1.5670034 3.5-3.5 3.5z"/><path id="Shape" d="m40 49c0 .5522847.4477153 1 1 1s1-.4477153 1-1v-8h8v8c0 .5522847.4477153 1 1 1s1-.4477153 1-1v-18c0-.5522847-.4477153-1-1-1s-1 .4477153-1 1v8h-8v-8c0-.5522847-.4477153-1-1-1s-1 .4477153-1 1z"/><path id="Shape" d="m39 0h-.014c-.5310878.00171853-1.0389124.21812107-1.408.6-.0366348.03748714-.0700837.07796036-.1.121-2.028 2.057-13.334 13.979-17.718 27.833-.273-.61-.563-1.211-.882-1.793-1.8857585-3.4612219-2.8751588-7.3394097-2.878-11.281v-3.815c1.3939546-.6590732 2.1906483-2.15437668 1.9601399-3.67895946-.2305084-1.52458279-1.4336496-2.71752237-2.9601399-2.93504054v-3.051c0-1.1045695-.8954305-2-2-2h-4c-1.1045695 0-2 .8954305-2 2v3.05c-1.52649031.21751817-2.72963146 1.41045775-2.96013989 2.93504054-.23050844 1.52458278.56618532 3.01988626 1.96013989 3.67895946v3.816c-.00202914 1.9626418-.24688927 3.9174922-.729 5.82-.4858483 1.901537-1.20779298 3.734786-2.149 5.457-2.04590539 3.7565773-3.1191752 7.9654313-3.122 12.243v16c.00330612 2.7600532 2.23994685 4.9966939 5 5h12c2.7600532-.0033061 4.9966939-2.2399468 5-5v-4.011c.5057194.7350098 1.0564385 1.4380199 1.649 2.105 3.7282356 4.2079325 9.0195234 6.7021179 14.638 6.9.243.008.484.012.726.012 11.5952459-.0071775 20.9903151-9.4107524 20.987-21.006 0-18.186-17.577-36.39-19.583-38.408-.3747341-.37803583-.8847069-.59109435-1.417-.592zm-30 2h4v3h-4zm-4.122 25.719c1.0210022-1.8701978 1.8043999-3.8606058 2.332-5.925.52263094-2.0640491.78797833-4.1848129.79-6.314v-3.48h1c.55228475 0 1-.4477153 1-1s-.44771525-1-1-1h-1.724c-.0247599-.01139578-.05013211-.02141112-.076-.03-.75521783-.15335153-1.27136061-.85402033-1.19391328-1.62074882.07744732-.76672849.72328363-1.35002566 1.49391328-1.34925118h7c.7706297-.00077448 1.416466.58252269 1.4939133 1.34925118s-.4386955 1.46739729-1.1939133 1.62074882c-.028.006-.049.022-.076.03h-1.724c-.5522847 0-1 .4477153-1 1s.4477153 1 1 1h1v3.48c.0035926 4.2769615 1.0771893 8.4850619 3.123 12.241.7121015 1.3037394 1.2977724 2.6726489 1.749 4.088-.3804024 1.6452076-.6374501 3.3165189-.769 5-.0159889.0602454-.0263665.1218415-.031.184-.023.336-.024.673-.031 1.009h-16.009c.15173628-3.5999041 1.12525028-7.1173477 2.846-10.283zm12.122 30.281h-12c-1.65685425 0-3-1.3431458-3-3v-3h18v3c0 1.6568542-1.3431458 3-3 3zm3-8h-18v-10h16.1c.1854287 2.5855253.8287596 5.1175405 1.9 7.478zm32.2 2.662c-3.694232 3.5947077-8.6990147 5.5203746-13.85 5.329-5.0746822-.180658-9.8531958-2.4347284-13.22-6.236-3.2409815-3.6050567-5.0572763-8.2675554-5.109-13.115.233-17.24 17.015-34.64 18.989-36.626 1.99 2.001 18.99 19.628 18.99 36.986.0157433 5.1554238-2.0801969 10.0924472-5.8 13.662z"/><path id="Shape" d="m26.586 25.811c.3912667.0004277.7468419-.2273748.91-.583 2.1636626-4.5786201 4.8135729-8.9112101 7.904-12.923.2464265-.2814987.315111-.677007.1780218-1.0251076-.1370892-.3481007-.4570202-.5905641-.8292209-.6284347-.3722006-.0378706-.7344099.1351865-.9388009.4485423-3.1803183 4.1285097-5.9067087 8.5875595-8.132 13.3-.1419727.3094478-.1167507.6698679.0669372.9565261.1836878.2866583.5006013.4601653.8410628.4604739z"/><path id="Shape" d="m38.268 5.709c-.549.608-1.116 1.254-1.69 1.935-.2610556.26771316-.3509418.65870422-.2330071 1.01354471s.4239841.61423847.7933551.67242316c.3693709.0581847.7403436-.09456623.961652-.39596787.561-.663 1.112-1.292 1.647-1.884.2395466-.26509106.3194724-.6378419.2096701-.97784087s-.3926512-.59559213-.7420001-.67050002c-.3493489-.07490788-.7121234.0422498-.95167.30734089z"/></g></g></svg>