<svg height="512" viewBox="0 0 60 60" width="512" xmlns="http://www.w3.org/2000/svg"><g id="Page-1" fill="none" fill-rule="evenodd"><g id="018----Wine-List" fill="rgb(0,0,0)" fill-rule="nonzero"><path id="Shape" d="m22.82 38c.0005688-.0079899.0005688-.0160101 0-.024-.1306934-1.1091974-.3327793-2.2088124-.605-3.292-.5279566-2.0636418-1.3113412-4.0533446-2.332-5.923-1.8581915-3.4059291-2.8483868-7.2173053-2.883-11.097 1.2210056-.5768184 1.9998297-1.8061023 1.9998297-3.1565s-.7788241-2.5796816-1.9998297-3.1565v-3.351c0-1.1045695-.8954305-2-2-2h-3c-1.1045695 0-2 .8954305-2 2v3.352c-1.23104372.5609117-2.01526614 1.7952777-2 3.148.00312381 1.3511595.7806756 2.5808576 2 3.163-.01761973 1.9013284-.26235435 3.7937414-.729 5.637-.4858483 1.901537-1.20779298 3.734786-2.149 5.457-1.55319574 2.8548909-2.54954703 5.9790087-2.936 9.206 0 .012-.006.021-.006.033v.012c-.11865856.9929372-.17876252 1.9919987-.18 2.992v8c.00330612 2.7600532 2.23994685 4.9966939 5 5h9c2.7600532-.0033061 4.9966939-2.2399468 5-5v-8c-.0019349-.9996772-.0623715-1.9983845-.181-2.991zm-16.82 3c0-.669.039-1.335.1-2h14.8c.057.667.1 1.334.1 2v6h-15zm9-33v3h-3v-3zm-6.122 21.718c1.02116225-1.8697715 1.8045701-3.8598693 2.332-5.924.5226309-2.0640491.7879783-4.1848129.79-6.314v-.53c.000097-.4752686-.3343337-.8849463-.8-.98-.7552178-.1533515-1.27136061-.8540203-1.1939133-1.6207488.0774473-.7667285.7232836-1.3500257 1.4939133-1.3492512h4c.7706297-.0007745 1.416466.5825227 1.4939133 1.3492512s-.4386955 1.4673973-1.1939133 1.6207488c-.4656663.0950537-.800097.5047314-.8.98v.53c.003362 4.275913 1.0766244 8.483019 3.122 12.238.9408745 1.7223696 1.6628023 3.5555759 2.149 5.457.152.6.273 1.214.377 1.825h-14.295c.43667536-2.5493667 1.28972994-5.0095423 2.525-7.282zm9.122 22.282h-9c-1.65685425 0-3-1.3431458-3-3h15c0 1.6568542-1.3431458 3-3 3z"/><path id="Shape" d="m56 0h-23c-1.1531473.0035865-2.2478736.50789042-3 1.382-.7521264-.87410958-1.8468527-1.3784135-3-1.382h-23c-2.209139 0-4 1.790861-4 4v52c0 2.209139 1.790861 4 4 4h23c1.1531473-.0035865 2.2478736-.5078904 3-1.382.7521264.8741096 1.8468527 1.3784135 3 1.382h23c2.209139 0 4-1.790861 4-4v-52c0-2.209139-1.790861-4-4-4zm-29 58h-23c-1.1045695 0-2-.8954305-2-2v-52c0-1.1045695.8954305-2 2-2h23c1.1045695 0 2 .8954305 2 2v4.081c-2.279.372-4 1.987-4 3.919 0 .5522847.4477153 1 1 1s1-.4477153 1-1c0-.851.85-1.59 2-1.873v3.954c-2.279.372-4 1.987-4 3.919 0 .5522847.4477153 1 1 1s1-.4477153 1-1c0-.851.85-1.59 2-1.873v3.954c-2.279.372-4 1.987-4 3.919 0 .5522847.4477153 1 1 1s1-.4477153 1-1c0-.851.85-1.59 2-1.873v3.954c-2.279.372-4 1.987-4 3.919 0 .5522847.4477153 1 1 1s1-.4477153 1-1c0-.851.85-1.59 2-1.873v3.954c-2.279.372-4 1.987-4 3.919 0 .5522847.4477153 1 1 1s1-.4477153 1-1c0-.851.85-1.59 2-1.873v3.954c-2.279.372-4 1.987-4 3.919 0 .5522847.4477153 1 1 1s1-.4477153 1-1c0-.851.85-1.59 2-1.873v3.954c-2.279.372-4 1.987-4 3.919 0 .5522847.4477153 1 1 1s1-.4477153 1-1c0-.851.85-1.59 2-1.873v9.873c0 1.1045695-.8954305 2-2 2zm31-2c0 1.1045695-.8954305 2-2 2h-23c-1.1045695 0-2-.8954305-2-2v-9.873c1.15.283 2 1.022 2 1.873 0 .5522847.4477153 1 1 1s1-.4477153 1-1c0-1.932-1.721-3.547-4-3.919v-3.954c1.15.283 2 1.022 2 1.873 0 .5522847.4477153 1 1 1s1-.4477153 1-1c0-1.932-1.721-3.547-4-3.919v-3.954c1.15.283 2 1.022 2 1.873 0 .5522847.4477153 1 1 1s1-.4477153 1-1c0-1.932-1.721-3.547-4-3.919v-3.954c1.15.283 2 1.022 2 1.873 0 .5522847.4477153 1 1 1s1-.4477153 1-1c0-1.932-1.721-3.547-4-3.919v-3.954c1.15.283 2 1.022 2 1.873 0 .5522847.4477153 1 1 1s1-.4477153 1-1c0-1.932-1.721-3.547-4-3.919v-3.954c1.15.283 2 1.022 2 1.873 0 .5522847.4477153 1 1 1s1-.4477153 1-1c0-1.932-1.721-3.547-4-3.919v-3.954c1.15.283 2 1.022 2 1.873 0 .5522847.4477153 1 1 1s1-.4477153 1-1c0-1.932-1.721-3.547-4-3.919v-4.081c0-1.1045695.8954305-2 2-2h23c1.1045695 0 2 .8954305 2 2z"/><path id="Shape" d="m15 42h-3c-.5522847 0-1 .4477153-1 1s.4477153 1 1 1h3c.5522847 0 1-.4477153 1-1s-.4477153-1-1-1z"/><path id="Shape" d="m51 19h-2c-.5522847 0-1 .4477153-1 1s.4477153 1 1 1h2c.5522847 0 1-.4477153 1-1s-.4477153-1-1-1z"/><path id="Shape" d="m38 21h7c.5522847 0 1-.4477153 1-1s-.4477153-1-1-1h-7c-.5522847 0-1 .4477153-1 1s.4477153 1 1 1z"/><path id="Shape" d="m51 24h-2c-.5522847 0-1 .4477153-1 1s.4477153 1 1 1h2c.5522847 0 1-.4477153 1-1s-.4477153-1-1-1z"/><path id="Shape" d="m38 26h7c.5522847 0 1-.4477153 1-1s-.4477153-1-1-1h-7c-.5522847 0-1 .4477153-1 1s.4477153 1 1 1z"/><path id="Shape" d="m51 29h-2c-.5522847 0-1 .4477153-1 1s.4477153 1 1 1h2c.5522847 0 1-.4477153 1-1s-.4477153-1-1-1z"/><path id="Shape" d="m38 31h7c.5522847 0 1-.4477153 1-1s-.4477153-1-1-1h-7c-.5522847 0-1 .4477153-1 1s.4477153 1 1 1z"/><path id="Shape" d="m51 34h-2c-.5522847 0-1 .4477153-1 1s.4477153 1 1 1h2c.5522847 0 1-.4477153 1-1s-.4477153-1-1-1z"/><path id="Shape" d="m38 36h7c.5522847 0 1-.4477153 1-1s-.4477153-1-1-1h-7c-.5522847 0-1 .4477153-1 1s.4477153 1 1 1z"/><path id="Shape" d="m51 39h-2c-.5522847 0-1 .4477153-1 1s.4477153 1 1 1h2c.5522847 0 1-.4477153 1-1s-.4477153-1-1-1z"/><path id="Shape" d="m38 41h7c.5522847 0 1-.4477153 1-1s-.4477153-1-1-1h-7c-.5522847 0-1 .4477153-1 1s.4477153 1 1 1z"/><path id="Shape" d="m51 44h-2c-.5522847 0-1 .4477153-1 1s.4477153 1 1 1h2c.5522847 0 1-.4477153 1-1s-.4477153-1-1-1z"/><path id="Shape" d="m46 45c0-.5522847-.4477153-1-1-1h-7c-.5522847 0-1 .4477153-1 1s.4477153 1 1 1h7c.5522847 0 1-.4477153 1-1z"/><path id="Shape" d="m46 52h-3c-.5522847 0-1 .4477153-1 1s.4477153 1 1 1h3c.5522847 0 1-.4477153 1-1s-.4477153-1-1-1z"/><path id="Shape" d="m42 9h5c.5522847 0 1-.44771525 1-1s-.4477153-1-1-1h-5c-.5522847 0-1 .44771525-1 1s.4477153 1 1 1z"/><path id="Shape" d="m39 13h11c.5522847 0 1-.4477153 1-1s-.4477153-1-1-1h-11c-.5522847 0-1 .4477153-1 1s.4477153 1 1 1z"/></g></g></svg>