<svg height="512" viewBox="0 0 60 60" width="512" xmlns="http://www.w3.org/2000/svg"><g id="Page-1" fill="none" fill-rule="evenodd"><g id="019---Wine-Bottle-Opener" fill="rgb(0,0,0)" fill-rule="nonzero"><path id="Shape" d="m33.266 16c2.468767.0162151 4.5737813-1.7853431 4.939-4.227.007-.041.677-4.049.783-5.561.0865138-1.31144806-.3920754-2.59726989-1.315-3.533-1.539-1.653-4.481-2.679-7.673-2.679s-6.138 1.026-7.677 2.679c-.9255772.93410833-1.4071219 2.21968333-1.323 3.532.1 1.485.751 5.369.776 5.519.3549941 2.458607 2.466917 4.2800392 4.951 4.27h2.273v2h-2c-.7083682.0063224-1.3913999.2643645-1.927.728-.6533663-.3212111-1.3527302-.5388135-2.073-.645v-1.083c0-.5522847-.4477153-1-1-1s-1 .4477153-1 1v1.073c-.027 0-.053 0-.08.008-1.1270564.1764875-2.1924351.63082-3.1 1.322l-.767-.767c-.3907415-.3904653-1.0240347-.3902414-1.4145.0005-.3904653.3907415-.3902414 1.0240347.0005 1.4145l.779.779c-.6975816.9297829-1.150748 2.0197204-1.318 3.17h-1.1c-.5522847 0-1 .4477153-1 1s.4477153 1 1 1h.978c-.0844135 1.3905582-.6472352 2.7091086-1.593 3.732l-12.515 13.204c-1.12574865 1.2037433-1.0758567 3.0885008.112 4.231.55371309.5376697 1.29620152.8367475 2.068.833.82262784-.0006632 1.60919023-.3377613 2.177-.933l12.508-13.209c.8802674-.9021957 2.0229086-1.5034385 3.265-1.718v11.482c-.064.062-.134.117-.2.181-2.4438192 2.4353353-3.8120991 5.7469328-3.8 9.197 0 1.1045695.8954305 2 2 2h11.8c.112.091.2.19.2.28 0 .292-.855.69-1.422.953-1.088.506-2.578 1.199-2.578 2.767 0 .5522847.4477153 1 1 1s1-.4477153 1-1c0-.292.855-.69 1.422-.953 1.088-.506 2.578-1.199 2.578-2.767-.0068258-.0940897-.0198541-.1876263-.039-.28h8.039c1.1045695 0 2-.8954305 2-2 .0129012-3.451106-1.3554401-6.7639323-3.8-9.2-.063-.064-.133-.119-.2-.181v-11.485c1.2597406.2065699 2.4205195.810259 3.313 1.723l12.512 13.212c.5680088.5935124 1.3534835.9297317 2.175.931.7677659.0046004 1.5068292-.2915274 2.059-.825 1.1955382-1.1431233 1.2477265-3.0357304.117-4.243l-12.511-13.2c-.9448258-1.0233113-1.5068944-2.3417525-1.591-3.732h.926c.5522847 0 1-.4477153 1-1s-.4477153-1-1-1h-1.045c-.1699936-1.1628604-.6316753-2.2637409-1.342-3.2l.751-.751c.2527654-.2525868.3515768-.6208353.259213-.96603-.0923639-.3451946-.3618708-.6148921-.707-.7075-.3451293-.0926078-.7134476.0059432-.966213.25853l-.747.747c-.9012357-.6791959-1.9560315-1.1257067-3.071-1.3-.044-.007-.088-.008-.132-.014v-1.067c0-.5522847-.4477153-1-1-1s-1 .4477153-1 1v1.085c-.7172801.1084279-1.4126792.3305506-2.06.658-.5375419-.4708072-1.2254829-.7342816-1.94-.743h-2v-2zm-16.983 16.482-12.508 13.209c-.38432572.3857006-1.0039724.4011147-1.407.035-.19450056-.181902-.30841188-.4338713-.31648374-.7000548-.00807185-.2661835.09036257-.524592.27348374-.7179452l12.51-13.2c1.4860548-1.6025333 2.2661181-3.7348264 2.165-5.918 0-.192 0-.394.017-.6.1225811-1.626528 1.0370357-3.0888164 2.4457922-3.9110237 1.4087564-.8222073 3.1317142-.8992195 4.6082078-.2059763-.0398626.1731022-.0636305.3495202-.071.527v.292c-.0680435 2.5194304-.8462438 4.9684217-2.245 7.065-.3264061.5299817-.5506085 1.1164355-.661 1.729-1.8309665.2233732-3.5295203 1.069296-4.811 2.396zm25.21-11.082c.017.02.023.045.042.064.0319052.024091.0653055.0461352.1.066.8064779.8290277 1.3011464 1.9116452 1.4 3.064.006.065.007.128.009.192-.0227962.0694175-.0375593.1412196-.044.214.0056729.0865521.0228231.1719664.051.254-.0834385 2.1610818.6949678 4.2668073 2.164 5.854l12.506 13.192c.1859279.1944849.2856394.4556885.2766068.7245974s-.1260472.5228326-.3246068.7044026c-.404694.3570153-1.0168926.3390866-1.4-.041l-12.507-13.207c-1.2943804-1.3381532-3.0125668-2.1862913-4.862-2.4-.1101855-.6098088-.3337126-1.1935573-.659-1.721-1.3992939-2.0974357-2.1775182-4.5475425-2.245-7.068v-.292c-.0073798-.1712439-.0294611-.341537-.066-.509.9010455-.4329504 1.9118869-.5835309 2.9-.432 1.0038686.1606961 1.933021.6292908 2.659 1.341zm-7.616-.885c.0834657.1478258.1259293.3152637.123.485v.292c.0658576 2.8941586.9492111 5.7106278 2.548 8.124.2961532.4751987.452776 1.0240715.452 1.584v11.052c-.5077105-.3295828-1.0387863-.6216913-1.589-.874-.3277521-.1615068-.7174982-.1313993-1.0165573.0785283-.2990591.2099275-.4598151.5662504-.4192926.929381.0405224.3631306.2758713.6752514.6138499.8140907 1.1900701.5391637 2.2723042 1.2900187 3.194 2.216 2.0686599 2.0610417 3.227024 4.8638722 3.2170645 7.784h-22.0001256c-.0096956-2.9197815 1.148648-5.7222025 3.2170611-7.783.9216126-.9263389 2.0038519-1.6775364 3.194-2.217.3313914-.1432054.5598699-.4539094.5977884-.8129223.0379186-.3590128-.1206104-.7105921-.4147731-.9198678s-.6782859-.2437545-1.0050153-.0902099c-.5502433.2526311-1.0813199.5450742-1.589.875v-11.052c-.0006412-.5602234.155964-1.109381.452-1.585 1.5989073-2.4129441 2.4822806-5.2291298 2.548-8.123v-.292c-.0002278-.180656.0503656-.3577332.146-.511.1774618-.30326.5026325-.4894526.854-.489h6c.3628347.0045054.696304.2003283.877.515zm-10.122-9.1c-.007-.04-.658-3.955-.757-5.346-.0422235-.75725123.2433925-1.49606409.784-2.028 1.156-1.241 3.595-2.041 6.218-2.041s5.058.8 6.214 2.042c.5407659.53224411.8263845 1.27142818.784 2.029-.083 1.177-.578 4.276-.764 5.387-.2169275 1.4689527-1.4831604 2.5534419-2.968 2.542h-6.539c-1.496495.0004902-2.7644861-1.1019624-2.972-2.584z"/><path id="Shape" d="m34.269 11.164c.122-.735.6-3.739.722-5.018.0277938-.29623257-.077767-.5894571-.288-.8-1.3654483-.97777742-3.0269983-1.45331353-4.703-1.346h-.01c-1.6745115-.10632108-3.3344693.36800303-4.7 1.343-.210598.21036347-.3165338.50361142-.289.8.113 1.191.544 3.945.724 5.019.0806021.4818022.4975022.8348566.986.835h6.575c.4867241-.0014396.9017189-.3531086.983-.833zm-1.838-1.164h-4.873c-.168-1.058-.383-2.484-.5-3.447.9296101-.38633779 1.9295398-.57467605 2.936-.553 1.0076929-.02208092 2.0089435.16590898 2.94.552-.121.973-.334 2.414-.503 3.448z"/><path id="Shape" d="m26.979 44.526c-1.2599984.4387445-2.4045202 1.1566345-3.348 2.1-.8573504.8555859-1.5322857 1.8761534-1.984 3-.2060022.5125202.0424798 1.0949978.555 1.301s1.0949978-.0424798 1.301-.555c.3514571-.8722.8760125-1.6641358 1.542-2.328.7282225-.7307094 1.6122752-1.2872592 2.586-1.628.5221852-.1800448.7995448-.7493148.6195-1.2715s-.7493148-.7995448-1.2715-.6195z"/><path id="Shape" d="m22 24c.5522847 0 1-.4477153 1-1s-.4477153-1-1-1c-1.6568542 0-3 1.3431458-3 3 0 .5522847.4477153 1 1 1s1-.4477153 1-1 .4477153-1 1-1z"/><path id="Shape" d="m37 23c0 .5522847.4477153 1 1 1s1 .4477153 1 1 .4477153 1 1 1 1-.4477153 1-1c0-1.6568542-1.3431458-3-3-3-.5522847 0-1 .4477153-1 1z"/></g></g></svg>