<svg height="512" viewBox="0 0 60 62" width="512" xmlns="http://www.w3.org/2000/svg"><g id="Page-1" fill="none" fill-rule="evenodd"><g id="020----Wine-Tasting" fill="rgb(0,0,0)" fill-rule="nonzero"><path id="Shape" d="m.077 60.56c.0455632.105002.10881527.2014023.187.285.009.01.013.023.022.032.18765285.1924181.44522887.3006434.714.3h.013l8.3.091h.011c.52427367.0014764.9606814-.4022007 1-.925.462-6.055 3.18-9.612 5.472-11.57 4.186-.441 9.631-1.358 11.87-2.851 1.5668342-1.0048794 2.4597203-2.785282 2.328-4.642-.0616043-1.6868695-.980263-3.2255097-2.436-4.08-.1161915-.0535438-.2256225-.1206794-.326-.2.0684977-.1939654.1493293-.3833518.242-.567.3887963-.7197658.6064316-1.5194726.636-2.337.0351147-.7014748-.284626-1.3736442-.851-1.789-.2589798-.1816288-.551751-.3094824-.861-.376.82-1.2 1.363-2.6.419-3.542-.337993-.313846-.7045882-.5954045-1.095-.841-.439-.3-1.255-.853-1.284-1.158-.006-.07.066-.273.379-.587 1.2055978-1.0047292 1.8569928-2.5261382 1.752-4.092-.2048358-1.1219531-.9607268-2.0654073-2.011-2.51-.3-.152-.718-.327-1.207-.532-2.618-1.1-7.49-3.148-8.254-7.738-.73432-3.92613021-3.0183642-7.39130322-6.337-9.614-.325-.305-.829-.533-7.791-.317-.06085971.00831267-.12079444.02237557-.179.042-.06465423.00924502-.12827684.02464839-.19.046-.05744851.0315797-.11141261.06911994-.161.112-.05518745.02988769-.1071312.06541051-.155.106-.04107551.04972571-.07724398.10330863-.108.16-.03819518.04978198-.07167296.10301165-.1.159-.02165087.06722431-.03573791.13665333-.042.207-.01640448.05485308-.02778471.11108482-.034.168v58.18c.00579966.0799876.02158907.1589347.047.235.00633282.0490201.01636138.0974915.03.145zm8.341-1.3-6.418-.072v-10.967c1.52425243.7570504 3.21715449 1.1106421 4.917 1.027.827 0 1.636-.045 2.376-.087.653-.036 1.27-.071 1.817-.071.4 0 .949-.021 1.6-.058-2.4427401 2.8895512-3.94073293 6.4586273-4.292 10.226zm-.765-56.276c2.8419926 1.9282209 4.8081015 4.90020427 5.471 8.27.946 5.677 6.69 8.092 9.451 9.252.441.185.815.341 1.088.478.4635665.1720163.8125837.5614341.933 1.041-.0290465.9245238-.4672092 1.7883931-1.196 2.358-.6378251.5446363-.9902549 1.3519808-.956 2.19.117 1.241 1.245 2.007 2.151 2.623.261.177.53.36.71.513-.4451364 1.0124102-1.0935432 1.9225623-1.905 2.674-.328129.3275256-.3881094.8376368-.1449025 1.2323418.2432069.3947051.7258164.5704866 1.1659025.4246582.5289965-.209096 1.1093076-.2513195 1.663-.121.0193618.0548077.0271921.1130243.023.171-.0357608.5213557-.1878143 1.0280867-.445 1.483-.389.823-1.112 2.356 1 3.411.8154349.5393035 1.3152206 1.4436242 1.338 2.421.0847448 1.1444088-.4696358 2.2420132-1.441 2.853-2.6 1.733-12.121 2.832-15.446 2.832-.581 0-1.235.035-1.928.075-2.585.143-5.775.307-7.185-1.576v-42.616c2.459-.062 4.963-.073 5.653.011z"/><path id="Shape" d="m46.42 21.958-2.809 1.26c-.652811-1.0862131-1.1993411-2.2328546-1.632-3.424-.5099958-1.3571834-.7399479-2.8035688-.676-4.252.097-1.491 1.108-3.542 2.743-3.542h.023c.5952242.0310777 1.152689.3011561 1.546.749.5778708.6013043.9004258 1.4030327.9 2.237.0139247.469826-.1821864.9214313-.535 1.232-.210963.1432935-.4901142.1348221-.692-.021-.09-.072-.3-.24-.091-.918.1050361-.3415459.0198809-.7131834-.2233885-.9749203s-.6076946-.3738091-.956-.294c-.3483055.079809-.6275754.3393744-.7326115.6809203-.454847 1.0775848-.1473246 2.3259795.756 3.069.8844854.7086829 2.1287006.7545844 3.063.113.8873223-.6636197 1.4095531-1.7069694 1.409-2.815.020007-1.3734508-.502458-2.6993764-1.454-3.69-.7615077-.8363568-1.8285499-1.32967-2.959-1.368h-.049c-2.7 0-4.564 2.8-4.739 5.408-.0819837 1.7187427.1850529 3.4362814.785 5.049.4495678 1.2437388 1.0133064 2.4431897 1.684 3.583l-2.32 1.04c-.062-.3-.116-.616-.191-.911-.3950136-1.6747289-1.1257581-3.2518851-2.148-4.636-1.6-2.089-4.729-3.386-6.981-1.845-.9247036.6582255-1.5425503 1.6636701-1.712 2.786-.2424667 1.3518132.0583188 2.7446978.837 3.876.6134846.9221131 1.6260979 1.5006963 2.732 1.561 1.1379875.029664 2.1555424-.7046454 2.486-1.794.3397036-1.1214939-.1020224-2.3325729-1.084-2.972-.2748651-.2439651-.6614023-.3174991-1.0066481-.1915025s-.5935575.4312171-.6466712.7948773.0975308.7271496.3923193.9466252c.548.448.466.7.431.813-.0801266.2393902-.3045567.4005608-.557.4h-.005c-.4652629-.0643449-.8782216-.3312305-1.128-.729-.4628916-.6946107-.638527-1.5416034-.49-2.363.0793913-.590425.3933732-1.123942.871-1.48 1.364-.933 3.352.221 4.266 1.412.857713 1.169617 1.4699891 2.5006373 1.8 3.913.1.4.186.825.262 1.253l-5.461 2.448c-.8686067.3907468-1.3171672 1.3612066-1.052 2.276l5.145 17.474c.3243296 1.1991922.8759911 2.3249212 1.625 3.316 1.6814233 2.1313228 4.1446226 3.502607 6.842 3.809 2.8833927.2957499 5.3964379 2.0917598 6.61 4.724l.2.445c.1601927.3605826.5174357.5932606.912.594h4.974c.3395172.0001238.6559055-.1720276.8402062-.4571683.1843007-.2851406.2113354-.6443158.0717938-.9538317l-1.033-2.289c-1.17989-2.6591798-.8460531-5.7465035.875-8.092 1.562473-2.2163241 2.1745171-4.9651221 1.7-7.635-.239498-1.2173997-.7107088-2.3774338-1.388-3.417l-9.637-15.465c-.4981704-.8134994-1.524676-1.1279284-2.393-.733zm-8.574 6.036c.0796767 1.0734159.0977063 2.1505188.054 3.226-.029.726-.108 1.439-.191 2.194-.038.34-.075.682-.108 1.025-.1900318 1.3562009-.0196548 2.7385309.494 4.008.1410022.3373511.4548783.5708533.8185236.6089252.3636453.038072.7190781-.1253566.9268951-.426188.207817-.3008313.2348825-.691099.0705813-1.0177372-.3604202-.9498116-.4706135-1.9763307-.32-2.981.032-.334.069-.666.1-1 .084-.756.171-1.537.2-2.333.0600416-1.3911226.0192683-2.784767-.122-4.17l3.073-1.378c.221.328.433.654.675.989.468.644.973 1.245 1.461 1.827.215.257.43.513.642.773.6857778.7522137 1.1656123 1.6688249 1.393 2.661.0770975.4849811.4949297.8422149.986.843.0525617-.0000192.105046-.0040307.157-.012.5453263-.0865221.9173304-.5986433.831-1.144-.2771048-1.3411665-.9016053-2.5860293-1.811-3.61-.219-.267-.44-.531-.66-.794-.489-.581-.949-1.131-1.375-1.717-.159-.219-.292-.429-.441-.645l2.46-1.1 6.6 10.587c-.5601772-.0145451-1.1169708-.0916912-1.66-.23-3.2953917-.9709305-6.806954.6030133-8.275 3.709-1.0361712 2.3278235-3.6570995 3.5041185-6.085 2.731-.5660348-.1403601-1.1426386-.2340081-1.724-.28l-3-10.177zm20.025 13.934c.379205 2.1400831-.1122068 4.342976-1.365 6.119-2.107976 2.9319179-2.5138878 6.7580555-1.068 10.067l.4.886h-2.78c-1.533471-3.2010027-4.6180795-5.3770374-8.148-5.748-2.163108-.2448608-4.1388046-1.34359-5.488-3.052-.5920149-.7913888-1.0268594-1.6889134-1.281-2.644l-1.511-5.13c.217.041.437.088.668.14.6861511.1803402 1.3907997.2810043 2.1.3.9400846-.0094975 1.8669741-.2223717 2.717-.624 1.5309985-.663441 2.7623832-1.8698916 3.457-3.387 1.0372537-2.3266522 3.6578893-3.5015238 6.085-2.728 1.0659248.3045872 2.1870584.3633963 3.279.172l1.816 2.914c.5427904.8253249.9226218 1.7468997 1.119 2.715z"/><path id="Shape" d="m45.3 49.64c-1.191378-.1322629-2.2801305-.736245-3.023-1.677-.3037967-.4324724-.5270419-.9162267-.659-1.428-.1003916-.342975-.3761323-.6063387-.7233531-.6908844-.3472209-.0845458-.7131708.0225708-.9600001.281-.2468292.2584292-.3370385.6289094-.2366468.9718844.1990192.7563969.5382234 1.4687257 1 2.1 1.0749358 1.3647118 2.6524067 2.2411646 4.379 2.433.0365331.0039646.0732524.0059675.11.006.5410288.0152603.9960036-.4027011 1.0265962-.9430797.0305925-.5403787-.3743021-1.00702-.9135962-1.0529203z"/></g></g></svg>