<svg height="512" viewBox="0 0 59 60" width="512" xmlns="http://www.w3.org/2000/svg"><g id="Page-1" fill="none" fill-rule="evenodd"><g id="021---Fermentation-Time" fill="rgb(0,0,0)" fill-rule="nonzero" transform="translate(-1)"><path id="Shape" d="m42.209 21.922c.4981709.2378453 1.0948384.0270198 1.333-.471.9653418-2.0131885 1.4637309-4.2183379 1.458-6.451 0-8.28427125-6.7157288-15-15-15s-15 6.71572875-15 15c-.0063415 3.3229483 1.101718 6.5520598 3.147 9.171-6.32001-.9292667-12.53339741 2.2542163-15.47095445 7.926678-2.93755703 5.6724617-1.95200894 12.5840059 2.45395445 17.209322-.72525302.3540503-1.27922448.9828925-1.539 1.747l-2.1 6.319c-.19557513.6116691-.08866003 1.2798885.288 1.8.37176077.5198567.97189426.8279326 1.611.827h25.22c.5522847 0 1-.4477153 1-1s-.4477153-1-1-1h-25.221l2.1-6.3c.13416323-.4130736.51671776-.6946595.951-.7h.582c1.935545 1.4559792 4.1974216 2.4171651 6.589 2.8.5614796.7597511 1.4508185 1.2071854 2.3955286 1.2052115.9447102-.0019739 1.8321716-.4531207 2.3904714-1.2152115 1.819787-.2880806 3.5709796-.9087607 5.166-1.831.4635985-.2838909.6154926-.8861308.3419864-1.3559307s-.8722177-.6350554-1.3479864-.3720693c-1.1097781.6425661-2.3083786 1.1176931-3.557 1.41v-2.066c1.1538817-.3249603 2.2455129-.840021 3.23-1.524.3064635-.1983089.4805241-.5478488.4541098-.911921s-.2491063-.6848269-.5809852-.8368225c-.3318789-.1519957-.7202102-.1110808-1.0131246.1067435-.6465795.4462525-1.3493395.8050299-2.09 1.067v-.476c-.0033144-.3414397-.0655622-.679743-.184-1h2.4c.5522847 0 1-.4477153 1-1s-.4477153-1-1-1h-12.676c-.42113189-.6213073-.76216026-1.2932844-1.015-2h13.505c.5522847 0 1-.4477153 1-1s-.4477153-1-1-1h-13.97c-.03835882-.3319777-.0583892-.6658174-.06-1 .00159746-.3341541.02129298-.6679764.059-1h14.541c.5522847 0 1-.4477153 1-1s-.4477153-1-1-1h-14.075c.25320312-.7067441.59456553-1.3787174 1.016-2h14.479c.5313236-.0042204.9665751-.4232213.991-.954.012-.01.027-.013.038-.023.1973101-.1774894.3159736-.4261326.3298535-.691163.0138799-.2650305-.0781624-.5247084-.2558535-.721837-2.7866699-3.0570902-7.0528229-4.2923524-11.0417886-3.1971436-3.98896567 1.0952088-7.02625721 4.3357018-7.8612114 8.3871436-.14661259.7241472-.2203139 1.4611602-.22 2.2.00071123.7387886.07440238 1.4757001.22 2.2.83300874 4.0222281 3.83021525 7.249426 7.78 8.377v2.061c-5.85885777-1.3869142-9.99741629-6.6172244-10-12.638.00268858-4.353973 2.18352683-8.4178792 5.81020539-10.8270888 3.62667861-2.4092096 8.21821101-2.8442025 12.23279461-1.1589112.0301831.0169323.0612249.0322863.093.046.9716031.415537 1.8873853.9510311 2.726 1.594.0492016.0380126.1017503.0714831.157.1h.008.006c.0456007.0211864.0927344.0389033.141.053.026.008.05.021.077.028.0781952.0194418.1584256.0295126.239.03.5522847 0 1-.4477153 1-1-.0006228-.0920144-.0137428-.1835177-.039-.272-.008-.029-.023-.054-.033-.081-.0203738-.0558596-.045117-.1100273-.074-.162-.0188815-.0280634-.0392436-.0551016-.061-.081-.0308719-.0443517-.0660421-.085551-.105-.123-.0256422-.0236158-.0526918-.0456562-.081-.066-.0236278-.0222726-.0486808-.0429831-.075-.062-.9113527-.6890514-1.8996383-1.2699419-2.945-1.731-3.2098644-2.444764-5.0889482-6.252157-5.077-10.287.0000002-7.17970164 5.8202984-12.99999973 13-12.99999973s12.9999998 5.82029809 13 12.99999973c.0046832 1.9341653-.4266738 3.8445094-1.262 5.589-.2378453.4981709-.0270198 1.0948384.471 1.333zm-25.209 25.078v5c0 .5522847-.4477153 1-1 1s-1-.4477153-1-1v-5c0-.5522847.4477153-1 1-1s1 .4477153 1 1zm4.618-15h-11.251c3.2763614-2.6664979 7.9746386-2.6664979 11.251 0zm-11.255 14h2.821c-.1184378.320257-.1806856.6585603-.184 1v.476c-.9561238-.3393801-1.8477663-.8384564-2.637-1.476z"/><path id="Shape" d="m36.982 22.222c.2020648.1719301.4641708.2565147.7286193.2351337.2644485-.0213809.5095614-.1469747.6813807-.3491337 3.7532855-4.3641785 3.5195454-10.8807874-.5367646-14.96484847-4.05631-4.08406108-10.5711738-4.36222634-14.9608409-.6387833-4.3896672 3.72344307-5.1780235 10.19641147-1.8103945 14.86463177.0604211.1454417.1547029.2743506.275.376 1.9994521 2.5709679 5.0342612 4.1251679 8.289 4.245h.033c.5522847.0085604 1.0069396-.4322153 1.0155-.9845s-.4322153-1.0069396-.9845-1.0155c-1.9400321-.0676511-3.8050408-.7663271-5.312-1.99h12.407c.0475271.0819132.106449.1566598.175.222zm-14.46-12.222h14.956c.4151766.6225049.751102 1.2943557 1 2h-16.953c.2479536-.7054977.5828681-1.3773422.997-2zm16.419 4c.0383516.3319677.0580492.6658256.059 1-.0019014.3342624-.0229358.6681419-.063 1h-17.875c-.0398593-.3318656-.0605603-.6657524-.062-1 .0009508-.3341744.0206484-.6680323.059-1zm-17.4 4h16.94c-.2506659.7061731-.5889768 1.3780913-1.007 2h-14.923c-.4196846-.6220056-.7603038-1.2938383-1.014-2zm14.103-10h-11.288c3.2902314-2.66654566 7.9977686-2.66654566 11.288 0z"/><path id="Shape" d="m57.589 33c-.0241883-.0315035-.0505884-.0612453-.079-.089-1.5599417-2.6511797-3.7698203-4.8610583-6.421-6.421-.0277547-.0284116-.0574965-.0548117-.089-.079-.029-.016-.06-.017-.09-.03-3.4150505-1.9909168-7.4037719-2.766384-11.316-2.2-.029 0-.056.01-.085.013-2.2598034.3125381-4.4387706 1.0552675-6.419 2.188-.03.013-.061.014-.09.03-.0315035.0241883-.0612453.0505884-.089.079-2.6511797 1.5599417-4.8610583 3.7698203-6.421 6.421-.0284116.0277547-.0548117.0574965-.079.089-.0114926.0291425-.0215053.058847-.03.089-.6386493 1.1082082-1.1569306 2.2815488-1.546 3.5-.011.023-.017.048-.026.072-1.4813809 4.7625013-.9117512 9.926854 1.572 14.252.0084947.030153.0185074.0598575.03.089.0334883.0523382.0716439.1015388.114.147 1.5579508 2.6256426 3.7547533 4.814533 6.386 6.363.0277547.0284116.0574965.0548117.089.079.0401605.0197224.0815847.0367598.124.051 5.4989855 3.1467464 12.2530145 3.1467464 17.752 0 .0424912-.0152148.0839171-.0332551.124-.054.0315035-.0241883.0612453-.0505884.089-.079 2.6312467-1.548467 4.8280492-3.7373574 6.386-6.363.0423561-.0454612.0805117-.0946618.114-.147.0114926-.0291425.0215053-.058847.03-.089 3.1747507-5.5165122 3.1747507-12.3054878 0-17.822-.0084947-.030153-.0185074-.0598575-.03-.089zm-6.743 22.321-.98-1.7c-.1773616-.3119508-.5082732-.5049532-.8671183-.5057421s-.6906021.1907567-.8693336.5019247c-.1787314.3111679-.1770325.694247.0044519 1.0038174l.975 1.688c-1.905677.950999-3.9832591 1.5087392-6.109 1.64v-1.949c0-.5522847-.4477153-1-1-1s-1 .4477153-1 1v1.949c-2.1254611-.1300113-4.2030294-.6863875-6.109-1.636l.975-1.688c.1814844-.3095704.1831833-.6926495.0044519-1.0038174-.1787315-.311168-.5104885-.5027136-.8693336-.5019247s-.6897567.1937913-.8671183.5057421l-.98 1.7c-1.772077-1.1820869-3.2929131-2.702923-4.475-4.475l1.7-.98c.3119508-.1773616.5049532-.5082732.5057421-.8671183s-.1907567-.6906021-.5019247-.8693336c-.3111679-.1787314-.694247-.1770325-1.0038174.0044519l-1.688.975c-.9515161-1.9069025-1.5092701-3.9858964-1.64-6.113h1.949c.5522847 0 1-.4477153 1-1s-.4477153-1-1-1h-1.949c.0709006-1.2129616.2806026-2.4137991.625-3.579.0223886-.0610033.0391256-.1239344.05-.188.2573265-.8050592.5786863-1.5882272.961-2.342l1.688.975c.3095704.1814844.6926495.1831833 1.0038174.0044519.311168-.1787315.5027136-.5104885.5019247-.8693336s-.1937913-.6897567-.5057421-.8671183l-1.7-.98c1.1820869-1.772077 2.702923-3.2929131 4.475-4.475l.98 1.7c.1773616.3119508.5082732.5049532.8671183.5057421s.6906021-.1907567.8693336-.5019247c.1787314-.3111679.1770325-.694247-.0044519-1.0038174l-.975-1.688c1.9069025-.9515161 3.9858964-1.5092701 6.113-1.64v1.949c0 .5522847.4477153 1 1 1s1-.4477153 1-1v-1.949c2.1254611.1300113 4.2030294.6863875 6.109 1.636l-.975 1.688c-.1814844.3095704-.1831833.6926495-.0044519 1.0038174.1787315.311168.5104885.5027136.8693336.5019247s.6897567-.1937913.8671183-.5057421l.98-1.7c1.772077 1.1820869 3.2929131 2.702923 4.475 4.475l-1.7.98c-.3119508.1773616-.5049532.5082732-.5057421.8671183s.1907567.6906021.5019247.8693336c.3111679.1787314.694247.1770325 1.0038174-.0044519l1.688-.975c.9515161 1.9069025 1.5092701 3.9858964 1.64 6.113h-1.949c-.5522847 0-1 .4477153-1 1s.4477153 1 1 1h1.949c-.1300113 2.1254611-.6863875 4.2030294-1.636 6.109l-1.688-.975c-.3095704-.1814844-.6926495-.1831833-1.0038174-.0044519-.311168.1787315-.5027136.5104885-.5019247.8693336s.1937913.6897567.5057421.8671183l1.7.98c-1.1832594 1.772462-2.7054815 3.2933247-4.479 4.475z"/><path id="Shape" d="m47 41h-4v-8c0-.5522847-.4477153-1-1-1s-1 .4477153-1 1v9c0 .5522847.4477153 1 1 1h5c.5522847 0 1-.4477153 1-1s-.4477153-1-1-1z"/></g></g></svg>