<svg height="60" viewBox="0 0 60 60" width="60" xmlns="http://www.w3.org/2000/svg"><g id="Page-1" fill="none" fill-rule="evenodd"><g id="022---Wine-Tasting" fill="rgb(0,0,0)" fill-rule="nonzero" transform="translate(-1)"><path id="Shape" d="m16.55 7.89c.1383204.07403657.2931229.11187716.45.11.3765582-.0011413.7205498-.21372035.89-.55.7-1.39 3.11-1.45 3.11-1.45.5522847 0 1-.44771525 1-1s-.4477153-1-1-1c-.15 0-3.63 0-4.89 2.55-.2469243.49165355-.050313 1.09042437.44 1.34z"/><path id="Shape" d="m42.53 47.32c-1.1617675-.6875469-2.0006263-1.8108257-2.33-3.12-.1076681-.585088-.1076681-1.184912 0-1.77.0482309-.3572656-.0978009-.7131235-.3830866-.9335254-.2852856-.2204019-.6664835-.2718637-1-.135-.3335165.1368636-.5686825.4412598-.6169134.7985254-.1443709.8358867-.1239889 1.6919314.06 2.52.4635407 1.8188277 1.6381027 3.3753025 3.26 4.32.1514328.0898766.3239138.1381713.5.14.3551111-.0021435.6824477-.1924555.86-.5.2486981-.4635671.0957087-1.0405559-.35-1.32z"/><path id="Shape" d="m60.88 41.62-2.72-19.88c-.1313358-1.0019841-.9894814-1.7485708-2-1.74h-3.35l2-2.36c.0911925-.100831.159428-.2202431.2-.35.1169928-.4071453-.0352461-.8438306-.38-1.09-2.7269827-1.8307375-5.0372468-4.2159659-6.78-7-1.4947862-2.23850577-3.2173012-4.31624759-5.14-6.2-4.53-4.52-10-2.87-12.93-1.49-1.1212652.5571703-2.4387348.5571703-3.56 0-2.89-1.43-8.4-3.08-12.93 1.49-1.905263 1.88621946-3.61094992 3.96387348-5.09 6.2-1.74275323 2.7840341-4.0530173 5.1692625-6.78 7-.35557125.2339347-.52410337.667303-.42 1.08.04057204.1297569.10880754.249169.2.35l10 12c5.33 6.37 12.8 7.37 16.74 7.37h.17c2.3323812-.0060882 4.652124-.3427707 6.89-1l-.77 5.63c-.2057181 1.3306885-.1548018 2.688456.15 4 .7167384 2.8757668 2.5576728 5.3435556 5.11 6.85 2.448265 1.4027097 4.1124279 3.8565197 4.51 6.65.0656679.500992.4947407.8742854 1 .87h5.18c.5052593.0042854.9343321-.369008 1-.87.3902279-2.788232 2.0477083-5.2393834 4.49-6.64 2.5447322-1.5126671 4.3805219-3.9783847 5.1-6.85.292849-1.3207044.3301875-2.6852573.11-4.02zm-2.8-5.71c-.6268996-.2840926-1.2149828-.6470239-1.75-1.08-2.8393024-2.4354014-7.0306976-2.4354014-9.87 0-2.1280149 1.8987815-5.3419851 1.8987815-7.47 0-.5204538-.4110944-1.075909-.7758209-1.66-1.09l1.6-11.74h17.25zm-23.08-24.98c1.5104766.6493295 2.9027231 1.5448278 4.12 2.65-1.3353874.4738025-2.7159951.8089014-4.12 1zm-2 3.86c-1.17.11-2.5.18-4 .2v-3.34c.2640337-.0409394.5247266-.1010993.78-.18 1.0425059-.3696625 2.1222252-.6245031 3.22-.76zm-6 .21c-1.5 0-2.83-.09-4-.2v-4.09c1.0968937.1403831 2.1760974.395102 3.22.76.2552734.0789007.5159663.1390606.78.18zm-6-.43c-1.4040049-.1910986-2.7846126-.5261975-4.12-1 1.2180145-1.1016205 2.6102187-1.9937125 4.12-2.64zm-6 .34c2 1 5.8 2.09 13.05 2.09s11-1.07 13-2.08c1.9064221 1.1228119 3.9788181 1.9362442 6.14 2.41-1.3535408 1.0539186-2.8230716 1.9497285-4.38 2.67h-3.88c-1.0038641-.0098802-1.8595008.7259675-2 1.72v.3c-2.9291282.6686768-5.9255677.9975134-8.93.98-10.31 0-16.27-3.33-19.19-5.67 2.1803624-.4674915 4.2707116-1.2847201 6.19-2.42zm36.89 3.09-1.69 2h-3.31c1.0030337-.6562182 1.9466419-1.3990587 2.82-2.22.81.11 1.55.22 2.18.22zm-42-7.65c1.4063095-2.16402452 3.0351767-4.17497163 4.86-6 3.47-3.47 7.7-2.51 10.64-1.1 1.6737006.8105307 3.6262994.8105307 5.3 0 2.9-1.39 7.13-2.35 10.6 1.12 1.8248233 1.82502837 3.4536905 3.83597548 4.86 6 1.3316398 2.0779776 2.9663627 3.9452694 4.85 5.54-.46 0-.95-.09-1.47-.17-2.7946288-.3676206-5.4799898-1.3218098-7.88-2.8-.3466314-.2209691-.6804971-.4613524-1-.72-3.11-2.49-4.88-3.53-7.09-3.53-1.4854185.07026149-2.9518208.36354196-4.35.87-.7687639.23734799-1.5912361.23734799-2.36 0-5-1.57-6.62-1.2-11.46 2.67-.3173626.255356-.6514407.4892107-1 .7-2.3974801 1.4852822-5.08367818 2.4431777-7.88 2.81-.53.08-1 .13-1.48.17 1.87606085-1.6091079 3.50072387-3.4899419 4.82-5.58zm18.21 24.65h-.16c-3.64 0-10.39-.87-15.17-6.63l-8.65-10.37c.63 0 1.37-.09 2.18-.2 2.53 2.41 9.11 7.2 21.7 7.2 2.8958708.0126458 5.7850587-.2789543 8.62-.87l-1.32 9.67c-2.3168043.7966791-4.7500459 1.2022193-7.2 1.2zm30.69 10.16c-.5880773 2.3532554-2.0932725 4.3733859-4.18 5.61-2.7028667 1.559589-4.6260493 4.1831005-5.3 7.23h-3.5c-.6762469-3.0458594-2.5988162-5.6685341-5.3-7.23-2.0920429-1.2329199-3.6015853-3.2540494-4.19-5.61-.2418703-1.070013-.2791929-2.1761168-.11-3.26l.82-6c.26.17.5.35.75.54 2.8441025 2.4326667 7.0358975 2.4326667 9.88 0 2.1280149-1.8987815 5.3419851-1.8987815 7.47 0 .9419405.7927481 2.0541373 1.3574018 3.25 1.65l.52 3.81c.1679936 1.0839556.1306787 2.1898339-.11 3.26z"/><path id="Shape" d="m25 30c-4.41 0-6.25-1.67-6.3-1.71-.3921222-.3893607-1.0256393-.3871222-1.415.005s-.3871222 1.0256393.005 1.415c.1.09 2.36 2.29 7.71 2.29.5522847 0 1-.4477153 1-1s-.4477153-1-1-1z"/><path id="Shape" d="m13.5 41c-1.9329966 0-3.5 1.5670034-3.5 3.5s1.5670034 3.5 3.5 3.5 3.5-1.5670034 3.5-3.5-1.5670034-3.5-3.5-3.5zm0 5c-.8284271 0-1.5-.6715729-1.5-1.5s.6715729-1.5 1.5-1.5 1.5.6715729 1.5 1.5-.6715729 1.5-1.5 1.5z"/><path id="Shape" d="m25 46c.5522847 0 1-.4477153 1-1v-2c0-.5522847-.4477153-1-1-1s-1 .4477153-1 1v2c0 .5522847.4477153 1 1 1z"/><path id="Shape" d="m25 48c-.5522847 0-1 .4477153-1 1v2c0 .5522847.4477153 1 1 1s1-.4477153 1-1v-2c0-.5522847-.4477153-1-1-1z"/><path id="Shape" d="m29 46h-2c-.5522847 0-1 .4477153-1 1s.4477153 1 1 1h2c.5522847 0 1-.4477153 1-1s-.4477153-1-1-1z"/><path id="Shape" d="m23 46h-2c-.5522847 0-1 .4477153-1 1s.4477153 1 1 1h2c.5522847 0 1-.4477153 1-1s-.4477153-1-1-1z"/><path id="Shape" d="m7.29 32.29-1.5 1.5c-.18931265.1877666-.29579832.4433625-.29579832.71s.10648567.5222334.29579832.71c.1877666.1893127.44336246.2957983.71.2957983s.5222334-.1064856.71-.2957983l1.5-1.5c.39212214-.3921222.39212212-1.0278778-.00000004-1.42-.39212215-.3921221-1.02787778-.3921221-1.41999996 0z"/><path id="Shape" d="m2.79 36.79-1.5 1.5c-.18931265.1877666-.29579832.4433625-.29579832.71s.10648567.5222334.29579832.71c.1877666.1893127.44336246.2957983.71.2957983s.5222334-.1064856.71-.2957983l1.5-1.5c.39212214-.3921222.39212212-1.0278778-.00000004-1.42-.39212215-.3921221-1.02787778-.3921221-1.41999996 0z"/><path id="Shape" d="m7.21 36.79c-.39212218-.3921221-1.02787781-.3921221-1.41999996 0-.39212216.3921222-.39212218 1.0278778-.00000004 1.42l1.5 1.5c.1877666.1893127.44336246.2957983.71.2957983s.5222334-.1064856.71-.2957983c.18931265-.1877666.29579832-.4433625.29579832-.71s-.10648567-.5222334-.29579832-.71z"/><path id="Shape" d="m2.71 32.29c-.39212218-.3921221-1.02787781-.3921221-1.41999996 0-.39212216.3921222-.39212218 1.0278778-.00000004 1.42l1.5 1.5c.1877666.1893127.44336246.2957983.71.2957983s.5222334-.1064856.71-.2957983c.18931265-.1877666.29579832-.4433625.29579832-.71s-.10648567-.5222334-.29579832-.71z"/></g></g></svg>