<svg height="512" viewBox="0 0 60 60" width="512" xmlns="http://www.w3.org/2000/svg"><g id="Page-1" fill="none" fill-rule="evenodd"><g id="023---Wine-Store" fill="rgb(0,0,0)" fill-rule="nonzero"><path id="Shape" d="m15.863 41.317c.3904999.3903819 1.0235001.3903819 1.414 0l10.6-10.609c.3903819-.3904999.3903819-1.0235001 0-1.414l-10.61-10.61c-.3966954-.3751231-1.0173046-.3751231-1.414 0l-10.601 10.609c-.39038194.3904999-.39038194 1.0235001 0 1.414zm.7-20.512 9.2 9.2-9.187 9.2-9.202-9.205z"/><path id="Shape" d="m29.293 27.877c.3903851.3897159 1.0226149.3897159 1.413 0l10.611-10.61c.3903819-.3904999.3903819-1.0235001 0-1.414l-10.61-10.601c-.3904999-.39038194-1.0235001-.39038194-1.414 0l-10.609 10.6c-.3903819.3904999-.3903819 1.0235001 0 1.414zm.707-3.877c-2.209139 0-4-1.790861-4-4s1.790861-4 4-4 4 1.790861 4 4-1.790861 4-4 4zm0-16.626 9.2 9.187-3.208 3.208c-.1177865-3.2219506-2.7638971-5.7730936-5.988-5.7730936s-5.8702135 2.551143-5.988 5.7730936l-3.207-3.207z"/><path id="Shape" d="m30.707 32.123c-.3904999-.3903819-1.0235001-.3903819-1.414 0l-10.609 10.6c-.3903819.3904999-.3903819 1.0235001 0 1.414l6.8 6.8c.1781134.2041117.3698883.3958866.574.574l3.233 3.233c.3904999.3903819 1.0235001.3903819 1.414 0l3.233-3.233c.2041117-.1781134.3958866-.3698883.574-.574l6.8-6.8c.3903819-.3904999.3903819-1.0235001 0-1.414zm-4.707 14.877c-.0108937-1.7897878 1.1685053-3.368971 2.8877508-3.8666196s3.5598264.2073786 4.5066504 1.7262543c.9468239 1.5188758.7694082 3.4818646-.4344012 4.8063653l-.294.294c-1.5068481 1.3867118-3.8251519 1.3867118-5.332 0l-.294-.294c-.6662845-.7283239-1.0370988-1.6788919-1.04-2.666zm9.982-.356c-.1833473-3.1695764-2.807125-5.6459653-5.982-5.6459653s-5.7986527 2.4763889-5.982 5.6459653l-3.213-3.213 9.195-9.187 9.2 9.187z"/><path id="Shape" d="m12.326 43.43-9.9 9.9c-.39038194.3904999-.39038194 1.0235001 0 1.414l2.83 2.83c.39669542.3751231 1.01730458.3751231 1.414 0l9.9-9.9 11.308 11.317c.5626643.563025 1.3260174.8793595 2.122.8793595s1.5593357-.3163345 2.122-.8793595l11.308-11.317 9.9 9.9c.3966954.3751231 1.0173046.3751231 1.414 0l2.83-2.83c.3903819-.3904999.3903819-1.0235001 0-1.414l-9.9-9.9 11.317-11.308c.563025-.5626643.8793595-1.3260174.8793595-2.122s-.3163345-1.5593357-.8793595-2.122l-11.317-11.317 9.9-9.894c.3903819-.39049985.3903819-1.02350015 0-1.414l-2.83-2.83c-.3966954-.3751231-1.0173046-.3751231-1.414 0l-9.894 9.9-11.314-11.316c-1.1873934-1.13308211-3.0556066-1.13308211-4.243 0l-5.911 5.911c-.305957-2.76549256-2.6290216-4.86689886-5.4112462-4.89492493-2.7822245-.02802607-5.1471494 2.02615689-5.5087538 4.78492493l-4.381-4.385c-.39049985-.39038194-1.02350015-.39038194-1.414 0l-2.83 2.83c-.39038194.39049985-.39038194 1.02350015 0 1.414l9.9 9.894-11.315 11.317c-.56302502.5626643-.87935953 1.3260174-.87935953 2.122s.31633451 1.5593357.87935953 2.122zm.674-35.93c0-1.9329966 1.5670034-3.49999993 3.5-3.49999993s3.5 1.56700333 3.5 3.49999993c.0057174.75331024-.2406866 1.4868901-.7 2.084l-.718.718c-1.1172729.8314819-2.6225323.917227-3.827.218l-1.28-1.281c-.3106892-.52688898-.474697-1.12733043-.475-1.739zm-10.578 21.792 12.025-12.025c.3903819-.3904999.3903819-1.0235001 0-1.414l-9.9-9.894 1.412-1.415 9.894 9.9c.3904999.3903819 1.0235001.3903819 1.414 0l12.026-12.023c.395481-.37816251 1.018519-.37816251 1.414 0l12.026 12.026c.3962943.3761298 1.0177057.3761298 1.414 0l9.894-9.9 1.415 1.415-9.9 9.894c-.3903819.3904999-.3903819 1.0235001 0 1.414l12.022 12.022c.187777.1875683.2932867.4420908.2932867.7075s-.1055097.5199317-.2932867.7075l-12.025 12.016c-.3903819.3904999-.3903819 1.0235001 0 1.414l9.9 9.9-1.413 1.419-9.9-9.9c-.3968946-.3746222-1.0171054-.3746222-1.414 0l-12.019 12.022c-.395481.3781625-1.018519.3781625-1.414 0l-12.016-12.025c-.3904999-.3903819-1.0235001-.3903819-1.414 0l-9.9 9.9-1.419-1.413 9.9-9.9c.3903819-.3904999.3903819-1.0235001 0-1.414l-12.022-12.019c-.18777704-.1875683-.29328666-.4420908-.29328666-.7075s.10550962-.5199317.29328666-.7075z"/><path id="Shape" d="m32.123 30.707 10.6 10.609c.3904999.3903819 1.0235001.3903819 1.414 0l10.61-10.61c.3903819-.3904999.3903819-1.0235001 0-1.414l-10.6-10.609c-.3904999-.3903819-1.0235001-.3903819-1.414 0l-10.61 10.61c-.3903819.3904999-.3903819 1.0235001 0 1.414zm11.316-9.9 9.187 9.193-9.195 9.2-9.187-9.2z"/></g></g></svg>