<svg height="512" viewBox="0 0 48 60" width="512" xmlns="http://www.w3.org/2000/svg"><g id="Page-1" fill="none" fill-rule="evenodd"><g id="024---Wine-Barrel" fill="rgb(0,0,0)" fill-rule="nonzero" transform="translate(-1)"><path id="Shape" d="m6 30c.00324111 3.2935205.86785243 6.5289181 2.508 9.385l.009.016c2.8666576 5.0326353 7.8754476 8.4798614 13.6 9.36.021.022.038.044.06.066.7468904.7518637 1.7632156 1.1741625 2.823 1.173 1.0803678.0001471 2.1127991-.4460456 2.853-1.233 5.7368246-.8734028 10.7583928-4.3243954 13.63-9.367l.009-.016c3.9444516-6.9268098 3.1431872-15.5797307-2.006138-21.6644528s-13.5505763-8.30599278-21.0343433-5.5614301c-7.483767 2.7445627-12.45698311 9.8707247-12.4515187 17.8418829zm35.949-1h-33.9c.13605182-2.4477972.80387789-4.8365466 1.957-7h29.986c1.1531221 2.1634534 1.8209482 4.5522028 1.957 7zm-1.976 9h-4.024c-.2453083-1.7176556-1.7139229-2.995082-3.449-3h-3.526c-.9333405-1.2582223-2.407396-2.0001147-3.974-2.0001147s-3.0406595.7418924-3.974 2.0001147h-3.526c-1.7350771.004918-3.2036917 1.2823444-3.449 3h-4.024c-1.16067132-2.1618538-1.83666475-4.5505231-1.981-7h33.908c-.1443352 2.4494769-.8203287 4.8381462-1.981 7zm-19.549 2h-2.924c-.8284271 0-1.5-.6715729-1.5-1.5s.6715729-1.5 1.5-1.5h2.6c-.2070311 1.0092523-.0941215 2.0579481.323 3zm1.576-2c0-1.6568542 1.3431458-3 3-3s3 1.3431458 3 3-1.3431458 3-3 3-3-1.3431458-3-3zm7.9-1h2.6c.8284271 0 1.5.6715729 1.5 1.5s-.6715729 1.5-1.5 1.5h-2.924c.4171215-.9420519.5300311-1.9907477.323-3zm-18.633 3h3.084c.5773171 1.2171163 1.8019139 1.994885 3.149 2h3.5v4c.0031574.1754427.0178559.3504875.044.524-3.9320329-.9407323-7.3990881-3.2542302-9.777-6.524zm12.322 7.415c-.0469903-.0453492-.0901382-.0945177-.129-.147-.0067725-.0097607-.0141187-.0191105-.022-.028l-.017-.02c-.018-.023-.035-.046-.054-.066-.2360872-.3387669-.364037-.741094-.367-1.154v-3.424c1.2734085.565331 2.7265915.565331 4 0v3.424c-.0027302.4117087-.1299721.8129565-.365 1.151-.0235496.0246481-.0455897.0506955-.066.078-.3591618.4378795-.8842607.706655-1.449496.7419348-.5652354.0352798-1.1196804-.1661148-1.530504-.5559348zm5.367-.891c.0261441-.1735125.0408426-.3485573.044-.524v-4h3.5c1.3470861-.005115 2.5716829-.7828837 3.149-2h3.084c-2.3779119 3.2697698-5.8449671 5.5832677-9.777 6.524zm9.761-26.524h-27.434c3.1862229-4.3968364 8.2870657-6.9998033 13.717-6.9998033s10.5307771 2.6029669 13.717 6.9998033z"/><path id="Shape" d="m29.8 1.145c-.5667659-.7267135-1.4384172-1.14961217-2.36-1.145h-4.88c-.9198291-.00306191-1.7893102.41967942-2.355 1.145-.5758156.72977335-.7807986 1.68525299-.555 2.587l.68 2.728c-8.9553275 1.77045005-16.12882894 8.4717437-18.50403943 17.2859798s.45985152 18.2125809 7.31303943 24.2430202l-4.3 7.523c-.53056569.9288344-.52642504 2.069908.01086756 2.9948674s1.52644429 1.4938574 2.59613244 1.4931326h35.108c1.068438-.0017683 2.0553044-.5716524 2.5908911-1.4961575.5355868-.9245051.5390563-2.0640933.0091089-2.9918425l-4.3-7.523c6.8530615-6.0294604 9.6889371-15.4266186 7.3153046-24.2405118-2.3736324-8.8138932-9.545135-15.51600664-18.4993046-17.2884882l.682-2.732c.2253222-.90003502.021523-1.85368219-.552-2.583zm12.192 52.855h-5.992c-.5522847 0-1 .4477153-1 1s.4477153 1 1 1h7.134l.288.5c.1788102.3097067.1786223.6913257-.0004927 1.0008562-.1791149.3095305-.5098891.4998504-.8675073.4991438h-35.108c-.35761825.0007066-.68839235-.1896133-.86750734-.4991438-.17911498-.3095305-.17930283-.6911495-.00049266-1.0008562l.288-.5h7.134c.5522847 0 1-.4477153 1-1s-.4477153-1-1-1h-5.992l2.7-4.731c8.4817328 6.3079915 20.0962672 6.3079915 28.578 0zm5.008-24c0 12.1502645-9.8497355 22-22 22s-22-9.8497355-22-22 9.8497355-22 22-22c12.1445532.01377716 21.9862228 9.8554468 22 22zm-22-24c-.8971719.0012098-1.7935732.05262351-2.685.154l-.723-2.9c-.07677-.30409771-.0080572-.62660431.186-.873.1877262-.24109188.4764417-.38175762.782-.381h4.88c.3053864-.00099765.5940705.13928362.782.38.1933695.24515376.2627473.56584169.188.869l-.725 2.905c-.8914268-.10137649-1.7878281-.1527902-2.685-.154z"/></g></g></svg>