<svg height="512" viewBox="0 0 50 60" width="512" xmlns="http://www.w3.org/2000/svg"><g id="Page-1" fill="none" fill-rule="evenodd"><g id="025---Wine-Crate" fill="rgb(0,0,0)" fill-rule="nonzero"><path id="Shape" d="m50 31c0-1.6568542-1.3431458-3-3-3h-1.389c-.3255746-.7331091-.6966306-1.4451625-1.111-2.132-.2-.341-.405-.7-.625-1.107-1.8847143-3.4614958-2.8730793-7.3396681-2.875-11.281v-1.815c1.2211215-.5764681 2.0001128-1.80564702 2.0001128-3.156s-.7789913-2.57953189-2.0001128-3.156v-3.353c0-1.1045695-.8954305-2-2-2h-4c-1.1045695 0-2 .8954305-2 2v3.345c-1.2279456.56816829-2.0100999 1.80201681-2 3.155.0029814 1.3514506.7805178 2.5815132 2 3.164v1.816c-.0022008 1.9639488-.2470557 3.9201015-.729 5.824-.4863958 1.9004249-1.2076145 3.7328645-2.147 5.455l-.3.549c-.524.946-.985 1.791-1.377 2.692h-6.891c-.392-.9-.853-1.746-1.377-2.692l-.3-.546c-1.8920402-3.4591574-2.8821729-7.3392122-2.879-11.282v-1.816c1.2194822-.5824868 1.9970186-1.8125494 2-3.164.0109751-1.3529853-.7715165-2.58697451-2-3.154v-3.346c0-1.1045695-.8954305-2-2-2h-4c-1.1045695 0-2 .8954305-2 2v3.35c-1.22077455.57751799-1.9992655 1.80701211-1.9992655 3.1575s.77849095 2.579982 1.9992655 3.1575v1.815c-.00297143 3.9418915-.99235849 7.8203713-2.878 11.282-.22.405-.429.766-.625 1.107-.41366096.6865582-.78404829 1.3982763-1.109 2.131h-1.388c-1.65685425 0-3 1.3431458-3 3v11c.00260366.740399.28064791 1.4533329.78 2-.49935209.5466671-.77739634 1.259601-.78 2v11c0 1.6568542 1.34314575 3 3 3h44c1.6568542 0 3-1.3431458 3-3v-11c-.0026037-.740399-.2806479-1.4533329-.78-2 .4993521-.5466671.7773963-1.259601.78-2zm-11-29v3h-4v-3zm-5.563 5.437c.2045256-.2029764.4637537-.34197271.746-.4.1043082-.02202964.2104222-.03441518.317-.037h5c.1006897.0011215.2010821.01116074.3.03.6990972.14195774 1.2015038.75663552 1.2015038 1.47s-.5024066 1.32804226-1.2015038 1.47c-.026.006-.047.023-.071.03h-5.454c-.025072-.01146388-.0507809-.02148033-.077-.03-.5421362-.10970871-.9799022-.5088701-1.1390527-1.03860478-.1591504-.52973469-.0138555-1.10406756.3780527-1.49439522zm-1.866 18.838.307-.557c1.0213428-1.869687 1.8047597-3.8598081 2.332-5.924.5226309-2.0640491.7879783-4.1848129.79-6.314v-1.48h4v1.48c.0031074 4.2759451 1.0763856 8.4831129 3.122 12.238.228.419.443.8.648 1.149.233.4.441.769.63 1.133h-12.751c.271-.542.575-1.1.922-1.725zm-16.571-24.275v3h-4v-3zm-4.817 5.033c.1044329-.02068577.2105456-.0317322.317-.033h5c.1007021.00089584.2011146.0109371.3.03.6990972.14195774 1.2015038.75663552 1.2015038 1.47s-.5024066 1.32804226-1.2015038 1.47c-.0248437.00871013-.0492108.01872403-.073.03h-5.451c-.027-.008-.048-.024-.076-.03-.69652827-.14078053-1.19869467-.75098602-1.20280778-1.46158708-.00411312-.71060107.49095586-1.32657878 1.18580778-1.47541292zm-2.953 19.835c.2-.354.42-.73.648-1.149 2.04549747-3.755294 3.1187624-7.9627537 3.122-12.239v-1.48h4v1.48c.0019478 2.1299127.2676361 4.2513881.791 6.316.5272896 2.0649621 1.3110521 4.0557793 2.333 5.926l.3.553c.347.628.651 1.183.922 1.725h-12.746c.189-.364.4-.728.63-1.132zm-5.23 4.132c0-.5522847.44771525-1 1-1h44c.5522847 0 1 .4477153 1 1v11c0 .5522847-.4477153 1-1 1h-44c-.55228475 0-1-.4477153-1-1zm46 26c0 .5522847-.4477153 1-1 1h-44c-.55228475 0-1-.4477153-1-1v-11c0-.5522847.44771525-1 1-1h44c.5522847 0 1 .4477153 1 1z"/><path id="Shape" d="m18.5 40h13c1.9329966-.0000001 3.4999999-1.5670034 3.4999999-3.5s-1.5670033-3.4999999-3.4999999-3.5h-13c-1.9329966 0-3.5 1.5670034-3.5 3.5s1.5670034 3.5 3.5 3.5zm0-5h13c.8284271 0 1.5.6715729 1.5 1.5s-.6715729 1.5-1.5 1.5h-13c-.8284271 0-1.5-.6715729-1.5-1.5s.6715729-1.5 1.5-1.5z"/><path id="Shape" d="m31.5 48h-13c-1.9329966 0-3.5 1.5670034-3.5 3.5s1.5670034 3.5 3.5 3.5h13c1.9329966 0 3.5-1.5670034 3.5-3.5s-1.5670034-3.5-3.5-3.5zm0 5h-13c-.8284271 0-1.5-.6715729-1.5-1.5s.6715729-1.5 1.5-1.5h13c.8284271 0 1.5.6715729 1.5 1.5s-.6715729 1.5-1.5 1.5z"/><circle id="Oval" cx="5" cy="33" r="1"/><circle id="Oval" cx="5" cy="40" r="1"/><circle id="Oval" cx="5" cy="48" r="1"/><circle id="Oval" cx="5" cy="55" r="1"/><circle id="Oval" cx="45" cy="33" r="1"/><circle id="Oval" cx="45" cy="40" r="1"/><circle id="Oval" cx="45" cy="48" r="1"/><circle id="Oval" cx="45" cy="55" r="1"/></g></g></svg>