<svg height="512" viewBox="0 0 60 60" width="512" xmlns="http://www.w3.org/2000/svg"><g id="Page-1" fill="none" fill-rule="evenodd"><g id="026---Champagne" fill="rgb(0,0,0)" fill-rule="nonzero" transform="translate(-1)"><path id="Shape" d="m25.476 23.643c-.199741.5215463-.4267199 1.0322489-.68 1.53-1.0166305 2.0351431-1.8402338 4.161111-2.46 6.35-.134.484-.268.979-.38 1.471-.6324172 2.7065466-.9531686 5.4765507-.956 8.256v15.75c0 1.6568542 1.3431458 3 3 3h14c1.6568542 0 3-1.3431458 3-3v-15.75c-.0031792-2.7773914-.3235892-5.5453312-.955-8.25-.113-.494-.247-.989-.383-1.478-.6198462-2.1907579-1.4441344-4.3184394-2.462-6.355-.2548958-.5016436-.4832116-1.0163555-.684-1.542-1.003854-2.472595-1.5186908-5.1163971-1.516-7.785v-6.507c.6463924-.60257154 1.0093515-1.44935522 1-2.333v-4c.0914694-1.55361284-1.0844872-2.89144752-2.637-3h-4.726c-1.5525128.10855248-2.7284694 1.44638716-2.637 3v4c-.0093515.88364478.3536076 1.73042846 1 2.333v6.507c.0016933 2.67511-.5158782 5.3251165-1.524 7.803zm3.524-13.643h4v5.84c.0050996 2.434646.4035683 4.8524729 1.18 7.16h-6.361c.7768909-2.3074413 1.1757008-4.7252892 1.181-7.16zm-2.418 16.073c.18-.354.343-.714.5-1.073h7.862c.154.358.3.721.474 1.067.08.16.151.324.228.485l-3.322 2.948c-.7545236.6756312-1.8964764.6756312-2.651 0l-3.316-2.94c.076-.167.143-.329.225-.487zm12.418 26.927h-16v-10h16zm-1 5h-14c-.5522847 0-1-.4477153-1-1v-2h16v2c0 .5522847-.4477153 1-1 1zm.993-17h-15.986c.0207974-2.5441266.3226286-5.0781672.9-7.556.108-.465.234-.932.358-1.381.3487834-1.2195957.7644117-2.4190756 1.245-3.593l2.837 2.516c1.5115193 1.3517912 3.7974807 1.3517912 5.309 0l2.84-2.518c.4806342 1.171652.8956108 2.3691747 1.243 3.587.126.455.252.922.361 1.39.5748534 2.4777853.8743349 5.0114733.893 7.555zm-10.993-38c0-.572.336-1 .637-1h4.726c.3 0 .637.428.637 1v4c0 .572-.336 1-.637 1h-4.726c-.301 0-.637-.428-.637-1z"/><path id="Shape" d="m32 49h-2c-.5522847 0-1 .4477153-1 1s.4477153 1 1 1h2c.5522847 0 1-.4477153 1-1s-.4477153-1-1-1z"/><path id="Shape" d="m11 39c0-.5522847-.4477153-1-1-1-1.317 0-1.973-.715-2-.987-.03572655-.3554793-.25838518-.6648958-.58410254-.8116953-.32571735-.1467995-.70500921-.1086797-.99500001.1s-.44662402.556216-.41089745.9116953c.154 1.56 1.907 2.787 3.99 2.787.5522847 0 1-.4477153 1-1z"/><path id="Shape" d="m2.412 55.311c-1.04822626.4507278-1.6204122 1.590036-1.356 2.7.23120505 1.1564995 1.24661587 1.9890025 2.426 1.989h13.036c1.1809271-.0004721 2.1968792-.8355128 2.426-1.994.2600773-1.1255921-.3321779-2.2741442-1.4-2.715l-4.544-1.95v-9.855c2.874122-.8819799 4.8784948-3.4820522 5-6.486.0015191-.0286465.0015191-.0573535 0-.086l-1.917-21.1c-.0920757-1.0318658-.960056-1.8207015-1.996-1.814h-8.174c-1.03581836-.0044371-1.90200537.786089-1.992 1.818l-1.847 20.282-.074.9c.12150524 3.0039478 2.12587799 5.6040201 5 6.486v9.855zm11.675-39.311.728 8h-9.629l.727-8zm-10.087 21.086 1-11.086h10l.936 10.276.066.765c-.028 2.738-2.71 4.959-6.002 4.959-3.309 0-6-2.243-6-4.914zm6 6.914c.3341662-.0021116.6679787-.0221403 1-.06v10.06c.0000442.3999561.2383962.7614173.606.919l5.174 2.22c.1807397.0696269.2736623.2700742.21.453-.0336858.2333989-.2331851.4069505-.469.408h-13.039c-.23581488-.0010495-.43531416-.1746011-.469-.408-.06272044-.1918408.04078326-.398402.232-.463l5.155-2.21c.36525475-.1594088.60098974-.5204762.6-.919v-10.06c.33202128.0378597.66583384.0578884 1 .06z"/><circle id="Oval" cx="11" cy="29" r="1"/><circle id="Oval" cx="13" cy="32" r="1"/><circle id="Oval" cx="11" cy="35" r="1"/><path id="Shape" d="m55.989 37.208c.0357266-.3554793-.1209066-.7030156-.4108974-.9116953-.2899908-.2086798-.6692827-.2467996-.9950001-.1-.3257173.1467995-.548376.456216-.5841025.8116953-.026.272-.682.987-2 .987-.5522847 0-1 .4477153-1 1s.4477153 1 1 1c2.084.005 3.837-1.222 3.99-2.787z"/><path id="Shape" d="m58.518 60c1.1809271-.0004721 2.1968792-.8355128 2.426-1.994.2600773-1.1255921-.3321779-2.2741442-1.4-2.715l-4.544-1.95v-9.857c2.896074-.9012572 4.9030923-3.5384793 5-6.57l-1.917-21.1c-.0920757-1.0318658-.960056-1.8207015-1.996-1.814h-8.174c-1.0358184-.0044371-1.9020054.786089-1.992 1.818l-1.847 20.282-.07.81c-.0029978.0299029-.0043332.0599491-.004.09.1215052 3.0039478 2.125878 5.6040201 5 6.486v9.855l-4.591 1.97c-1.0482263.4507278-1.6204122 1.590036-1.356 2.7.2314254 1.1576063 1.2484882 1.9904338 2.429 1.989zm-2.431-44 .729 8h-9.63l.727-8zm-10.087 21.041 1-11.041h10l1 11c0 2.757-2.691 5-6 5-3.292 0-5.974-2.221-6-4.959zm-.987 20.551c-.0627204-.1918408.0407833-.398402.232-.463l5.152-2.21c.3664291-.1584976.6034715-.5197613.603-.919v-10.06c.6622592.080004 1.3317408.080004 1.994 0v10.06c.0000442.3999561.2383962.7614173.606.919l5.174 2.22c.1807397.0696269.2736623.2700742.21.453-.0336858.2333989-.2331851.4069505-.469.408h-13.033c-.2358149-.0010495-.4353142-.1746011-.469-.408z"/><circle id="Oval" cx="51" cy="29" r="1"/><circle id="Oval" cx="49" cy="32" r="1"/><circle id="Oval" cx="51" cy="35" r="1"/><path id="Shape" d="m31 34c-1.6568542 0-3 1.3431458-3 3s1.3431458 3 3 3 3-1.3431458 3-3-1.3431458-3-3-3zm0 4c-.5522847 0-1-.4477153-1-1s.4477153-1 1-1 1 .4477153 1 1-.4477153 1-1 1z"/><path id="Shape" d="m26.543 48.88c.487985.248637 1.0852136.0621418 1.345-.42.6959579-1.0148324 1.8866973-1.5734698 3.112-1.46 1.2243385-.1122301 2.4138879.4452636 3.111 1.458.2499088.492638.851862.6894088 1.3445.4395s.6894088-.851862.4395-1.3445c-1.0275535-1.6976213-2.9148074-2.6819235-4.895-2.553-1.9801926-.1289235-3.8674465.8553787-4.895 2.553-.2426084.4876011-.0472003 1.0796251.438 1.327z"/></g></g></svg>