<svg height="512" viewBox="0 0 60 60" width="512" xmlns="http://www.w3.org/2000/svg"><g id="Page-1" fill="none" fill-rule="evenodd"><g id="028---Pouring-Wine" fill="rgb(0,0,0)" fill-rule="nonzero"><path id="Shape" d="m55.223 29.39c-.2653627-.828587-1.0359578-1.3905634-1.906-1.39h-14.634c-.8703114-.0004244-1.6409902.5620175-1.906 1.391l-4.149 12.964c-.4148889 1.3083006-.626684 2.6724908-.628 4.045.2217218 7.5724285 6.4243261 13.5960781 14 13.5960781s13.7782782-6.0236496 14-13.5960781c-.0012762-1.3736484-.2137588-2.7389336-.63-4.048zm-16.54.61h14.635l3.812 11.914c-1.9100308-1.0626879-4.0699404-1.5941189-6.255-1.539-2.1847683-.0536861-4.3440016.4791297-6.253 1.543-1.6381015.9217454-3.4949718 1.3833715-5.374 1.336-1.5552009.0461432-3.0997445-.2709145-4.511-.926zm7.317 28c-6.5131703.1008607-11.8800807-5.0871527-12-11.6.0032655-.7096592.07324-1.4174399.209-2.114 1.5897706.6836944 3.3090592 1.0139725 5.039.968 2.1877561.0537251 4.3499836-.4794079 6.262-1.544 1.6351334-.9208914 3.4889736-1.3821918 5.365-1.335 1.8830158-.0484534 3.7439676.4142791 5.385 1.339.483.24 1 .479 1.556.7.1201628.6552259.1817393 1.3198507.184 1.986-.1199193 6.5128473-5.4868297 11.7008607-12 11.6z"/><path id="Shape" d="m44.366 53.85c-3.0963959-.5885334-5.5443678-2.9653159-6.224-6.043-.0689523-.3506562-.3197396-.6378903-.6578929-.7535039-.3381533-.1156137-.712299-.0420425-.9815.193s-.3925594.5958477-.3236071.9465039c.8096408 3.8869941 3.8904379 6.897836 7.795 7.618.0658781.0129057.1328702.01927.2.019.5137531.0005163.9443106-.3883485.9959422-.8995008.0516315-.5111523-.2924636-.9782648-.7959422-1.0804992z"/><path id="Shape" d="m7.733 31.039-2.583-4.474c-.17736158-.3119508-.50827321-.5049532-.8671183-.5057421s-.69060211.1907567-.86933356.5019247c-.17873145.3111679-.17703252.694247.00445186 1.0038174l2.582 4.474c.27800577.4742136.88664704.6351286 1.3626943.3602745.47604727-.274854.64099599-.8824145.3693057-1.3602745z"/><path id="Shape" d="m.1 45.786c.0464529.1031957.11039419.1975853.189.279l.008.007c.06019272.0592335.12735013.1109447.2.154.023.013.049.018.073.03s.055.024.084.035c.11029611.0434481.2274749.0668161.346.069.11751368-.0025391.23364561-.0259009.343-.069.029-.011.056-.022.084-.035s.049-.017.072-.03l14.862-8.58c2.3592009-1.3652459 4.5421473-3.0145458 6.5-4.911 1.9431627-1.9090727 3.6442553-4.049796 5.065-6.374 2.6787275-4.3875169 6.4141434-8.0338879 10.865-10.606l4.424-2.562c1.3563998 1.0213791 3.18997 1.1392683 4.666.3h.009c2.0195731-1.1703002 2.7114674-3.75405812 1.547-5.777l-3.237-5.601c-1.0084941-1.73694471-3.0993747-2.52521968-5.0035573-1.88637213-1.9041825.63884754-3.0965758 2.52865108-2.8534427 4.52237213l-4.434 2.563c-2.2148492 1.27800207-4.5795347 2.27661146-7.04 2.973-2.463929.6882008-5.0035717 1.068761-7.561 1.133-5.4728144.1286103-10.82576527 1.629142-15.568 4.364l-3.24 1.87c-.07294209.043804-.14012859.0965454-.2.157-.08302805.0839179-.15071729.1817289-.2.289-.01244725.0257052-.02346406.0520787-.033.079-.04230553.1088152-.0649897.2242675-.067.341v26.84c.00238372.1182752.02609723.2351489.07.345.00855044.027515.01856471.0545535.03.081zm1.9-26.686 1.874-1.082 10.62 18.4-12.494 7.211zm17.356-5.679c2.7251865-.0682901 5.431436-.4737069 8.057-1.207 2.6209966-.7420024 5.140129-1.8054122 7.5-3.166l4.147-2.4.14.252c.2761424.47855474.8879453.64264237 1.3665.3665s.6426424-.88794526.3665-1.3665l-.49-.847c-.0033013-.04273173-.0096508-.08517307-.019-.127-.2539112-.77897491-.0614535-1.63443721.5016076-2.22961365.5630611-.59517645 1.4065444-.83474216 2.1983924-.62438635.569836.15791032 1.0549434.53314143 1.351 1.045l3.225 5.593c.5584052.99053188.2824984 2.2425489-.6405309 2.9066172s-2.1978122.5276864-2.9594691-.3166172c-.0289422-.0260184-.0593234-.0503902-.091-.073l-.49-.85c-.1786328-.3095706-.5088503-.50032623-.8662627-.50041101s-.6877204.19051411-.8665.50000001c-.1787796.3094858-.1788701.6908404-.0002373 1.000411l.144.249-4.14 2.4c-4.7401975 2.7375994-8.7187254 6.6195177-11.572 11.291-1.3332614 2.1815071-2.9295587 4.1909004-4.753 5.983-1.6010474 1.5446715-3.3623516 2.9140905-5.254 4.085l-10.589-18.342c4.23175669-2.2650127 8.9356484-3.5062318 13.734-3.624z"/><path id="Shape" d="m50.333 26c2.3922981-.0022043 4.3312436-1.9407025 4.334-4.333 0-2.049-2.925-6.387-3.512-7.235-.1962713-.2556118-.5002271-.4054442-.8225-.4054442s-.6262287.1498324-.8225.4054442c-.586.848-3.51 5.186-3.51 7.235.0027553 2.3919076 1.9410924 4.3302447 4.333 4.333zm0-9.182c1.133 1.8 2.335 4.015 2.335 4.849-.0262906 1.2699335-1.0632944 2.2856911-2.3335 2.2856911s-2.3072094-1.0157576-2.3335-2.2856911c-.001-.845 1.186-3.036 2.331-4.849z"/><path id="Shape" d="m9.171 18.628c.09546823.2474546.2853325.4468461.52782035.5543059.24248784.1074598.51773355.1141844.76517965.0186941 2.121891-.8193175 4.3399042-1.3637389 6.6-1.62.548971-.0618559.9438559-.557029.882-1.106s-.557029-.9438559-1.106-.882c-2.4311996.2759066-4.8171845.861313-7.1 1.742-.51372396.2004002-.76827211.7788374-.569 1.293z"/></g></g></svg>