<svg height="512" viewBox="0 0 61 53" width="512" xmlns="http://www.w3.org/2000/svg"><g id="Page-1" fill="none" fill-rule="evenodd"><g id="029---Wine-Corks" fill="rgb(0,0,0)" fill-rule="nonzero"><path id="Shape" d="m54.5 29h-23.254l-1.011-5.993c1.4392968-1.228245 2.3858404-2.9355751 2.665-4.807.723-4.58-.382-10.846-2.464-13.968-.013-.02-.034-.03-.049-.049-1.706-2.505-6.934-4.183-13.387-4.183s-11.681 1.678-13.39 4.177c-.014.019-.036.03-.049.05-2.082 3.122-3.187 9.388-2.461 13.973.27880006 1.8736444 1.22654113 3.5829885 2.668 4.812l-1.6 9.473c-.08200029.2848127-.13131767.5780331-.147.874l-.017.1c-.00102065.0203205-.00102065.0406795 0 .061 0 .037-.007.074-.007.1 0 .084.019.165.025.249v.017c.278 4.014 6.75 7.114 14.978 7.114.682 0 1.348-.028 2-.07v.07c0 6.729 2.855 12 6.5 12h29c3.645 0 6.5-5.271 6.5-12s-2.855-12-6.5-12zm-44.866-26.07 1.917.964c.2370841.11919672.5118234.13927344.7637171.05580904.2518936-.0834644.4602847-.26362525.5792829-.50080904.1901114-.38609543.1093004-.85075879-.2-1.15 2.8561553-.398669 5.7538447-.398669 8.61 0-.3093004.29924121-.3901114.76390457-.2 1.15.1189982.23718379.3273893.41734464.5792829.50080904.2518937.0834644.526633.06338768.7637171-.05580904l1.917-.964c2.517.707 4.2 1.72 4.561 2.7l.075.436c-.06.845-1.262 1.843-3.384 2.623l-3.167-1.584c-.4942948-.24687127-1.0951287-.04629483-1.342.44800001s-.0462948 1.0951287.448 1.34199999l1.165.582c-1.8853254.35848531-3.8009246.5336354-5.72.523-1.9184076.0105063-3.8333307-.16464321-5.718-.523l1.165-.582c.3197527-.15969772.5300187-.47785053.5515927-.83461336.0215741-.35676282-.1488213-.69793489-.447-.895-.2981786-.1970651-.67884-.22008436-.9985927-.06038664l-3.167 1.584c-2.122-.78-3.324-1.778-3.386-2.623l.071-.433c.365-.983 2.046-1.996 4.563-2.703zm-6.563 14.954c-.41137831-3.2408796-.12254341-6.5323016.847-9.652 1.13278823 1.13618087 2.53461523 1.9673009 4.075 2.416.08794809.0468304.18228338.0805215.28.1 2.8288683.856616 5.7714001 1.2787599 8.727 1.252 2.9558334.025897 5.8984348-.3976056 8.727-1.256.0977166-.0194785.1920519-.0531696.28-.1 1.5403848-.4486991 2.9422118-1.27981913 4.075-2.416.9695434 3.1196984 1.2583783 6.4111204.847 9.652-.864 5.472-8.051 6.62-13.929 6.62s-13.065-1.148-13.929-6.616zm13.929 21.116c-7.609 0-12.928-2.8-13-5.336 0-.012 0-.024 0-.037l1.579-9.363c2.69 1.473 6.521 2.236 11.421 2.236s8.731-.763 11.418-2.236l.8 4.736h-3.718c-3.258 0-5.879 4.217-6.4 9.918-.683.049-1.38.082-2.1.082zm4 2c0-5.893 2.371-10 4.5-10h25.362c-1.737 2.132-2.862 5.778-2.862 10s1.125 7.868 2.862 10h-25.362c-2.129 0-4.5-4.107-4.5-10zm33.5 10c-2.129 0-4.5-4.107-4.5-10s2.371-10 4.5-10 4.5 4.107 4.5 10-2.371 10-4.5 10z"/><path id="Shape" d="m30 36h5c.5522847 0 1-.4477153 1-1s-.4477153-1-1-1h-5c-.5522847 0-1 .4477153-1 1s.4477153 1 1 1z"/><path id="Shape" d="m29 40c.5522847 0 1-.4477153 1-1s-.4477153-1-1-1h-5c-.5522847 0-1 .4477153-1 1s.4477153 1 1 1z"/><path id="Shape" d="m34 42h-5c-.5522847 0-1 .4477153-1 1s.4477153 1 1 1h5c.5522847 0 1-.4477153 1-1s-.4477153-1-1-1z"/><path id="Shape" d="m31 47c0-.5522847-.4477153-1-1-1h-5c-.5522847 0-1 .4477153-1 1s.4477153 1 1 1h5c.5522847 0 1-.4477153 1-1z"/><path id="Shape" d="m41 36h5c.5522847 0 1-.4477153 1-1s-.4477153-1-1-1h-5c-.5522847 0-1 .4477153-1 1s.4477153 1 1 1z"/><path id="Shape" d="m34 39c0 .5522847.4477153 1 1 1h5c.5522847 0 1-.4477153 1-1s-.4477153-1-1-1h-5c-.5522847 0-1 .4477153-1 1z"/><path id="Shape" d="m45 42h-5c-.5522847 0-1 .4477153-1 1s.4477153 1 1 1h5c.5522847 0 1-.4477153 1-1s-.4477153-1-1-1z"/><path id="Shape" d="m41 46h-5c-.5522847 0-1 .4477153-1 1s.4477153 1 1 1h5c.5522847 0 1-.4477153 1-1s-.4477153-1-1-1z"/><path id="Shape" d="m53 35c-.5522847 0-1 .4477153-1 1v4c0 .5522847.4477153 1 1 1s1-.4477153 1-1v-4c0-.5522847-.4477153-1-1-1z"/><path id="Shape" d="m55 42v4c0 .5522847.4477153 1 1 1s1-.4477153 1-1v-4c0-.5522847-.4477153-1-1-1s-1 .4477153-1 1z"/><path id="Shape" d="m9.8 20.98c.06576956.0137352.13281296.0204396.2.02.5137531.0005163.9443106-.3883485.9959422-.8995008.0516315-.5111523-.2924636-.9782648-.7959422-1.0804992-1.12317987-.1278599-2.14596116-.7073036-2.833-1.605-.39157651-.6547612-.53061543-1.4299654-.391-2.18.12812962-.5347426-.19952621-1.0726091-.73346878-1.2040327-.53394257-.1314235-1.07381872.1929104-1.20853122.7260327-.26630525 1.2713192-.04082557 2.596325.631 3.708.96598747 1.3796885 2.46561343 2.2917947 4.135 2.515z"/></g></g></svg>