<svg height="512" viewBox="0 0 60 61" width="512" xmlns="http://www.w3.org/2000/svg"><g id="Page-1" fill="none" fill-rule="evenodd"><g id="030---Wine-Barrel" fill="rgb(0,0,0)" fill-rule="nonzero"><path id="Shape" d="m59.148 25.793c-.3462118-1.7390021-.8184578-3.4505179-1.413-5.121 0-.013-.014-.023-.019-.036-.8854876-2.5051963-2.0395424-4.907186-3.442-7.164l-.005-.006c-.9500587-1.559901-2.0238428-3.0409941-3.211-4.429-.569256-.66240777-1.4006066-1.04152412-2.274-1.037h-22.563c-.8727227-.00473079-1.7035954.37360322-2.273 1.035-1.1874762 1.3877545-2.2612795 2.868874-3.211 4.429l-.006.006c-1.4084652 2.267951-2.5665818 4.6820911-3.454 7.2-.094.274-.188.548-.273.833-.1014634.3426177-.0124351.7133396.2335488.9725184.2459839.2591787.6115526.3674389.959.284.3474473-.083439.6239878-.3459007.7254512-.6885184.007-.025.015-.049.022-.074h37.13c.345 1.038.628 2.031.858 3h-37.132c-.5522847 0-1 .4477153-1 1s.4477153 1 1 1h2.637c-.5738676 4.7097247-.5661429 9.4721617.023 14.18-.2836137.177971-.4570016.4881845-.46.823 0 .5522847.4477153 1 1 1h33.932c-.23.969-.513 1.962-.858 3h-33.074c-.5522847 0-1 .4477153-1 1s.4477153 1 1 1h.78c.4389503 1.696914.9775511 3.3664765 1.613 5h-1.393c-.5522847 0-1 .4477153-1 1s.4477153 1 1 1h27.585c-.621.9-1.306 1.8-2.042 2.667-.1938445.2166224-.4723556.3381744-.763.333h-22.56c-.2876614.0046634-.5628985-.117055-.753-.333-.278-.321-.544-.646-.8-.976-.2185031-.2876821-.5751798-.4351501-.9330427-.3857666-.357863.0493835-.6612699.2879401-.7936927.6240484-.1324228.3361084-.0732717.7175087.1547354.9977182.278.354.564.7.852 1.036.5673475.664375 1.3993703 1.0439649 2.273 1.037h22.56c.8754148.004943 1.7093163-.3727417 2.283-1.034 1.1824088-1.3902151 2.252445-2.8722154 3.2-4.432 1.4065067-2.2677324 2.5670736-4.6790433 3.462-7.193v-.005c.5945422-1.6704821 1.0667882-3.3819979 1.413-5.121 1.1374153-5.414567 1.1408202-11.0060518.01-16.422zm-33.68-15.459c.1900792-.2160932.4652341-.33814069.753-.334h22.563c.2877108-.00387093.5627579.1181287.753.334.7285174.8527377 1.4124314 1.7425935 2.049 2.666h-28.167c.6365686-.9234065 1.3204826-1.8132623 2.049-2.666zm-3.328 4.666h3.253c-.6355999 1.6334698-1.1742037 3.3030413-1.613 5h-4.116c.6896066-1.7305054 1.5176228-3.4025898 2.476-5zm5.4 0h4.96c-.266 1.541-.5 3.215-.708 5h-5.952c.4615821-1.7008125 1.0300453-3.3707984 1.702-5zm6.26 5c.211-1.793.454-3.469.725-5h5.959c.273 1.54.516 3.214.725 5zm9.418 0c-.2-1.777-.441-3.452-.708-5h4.955c.6708349 1.6294141 1.2386202 3.2993711 1.7 5zm8.009 0c-.4387963-1.6969587-.9774001-3.3665302-1.613-5h3.253c.9583772 1.5974102 1.7863934 3.2694946 2.476 5zm-26.784 7h6.757c-.2500008 4.6633184-.2500008 9.3366816 0 14h-6.76c-.5870046-4.6482706-.5859966-9.3519814.003-14zm8.75 14c-.2530003-4.6632376-.2530003-9.3367624 0-14h8.619c.2520003 4.6632647.2520003 9.3367353 0 14zm10.607 0c.2489996-4.6633452.2489996-9.3366548 0-14h6.76c.5870034 4.6482074.5870034 9.3517926 0 14zm8.766 0c.566998-4.6494442.566998-9.3505558 0-14h4.784c.8650071 4.6265825.8650071 9.3734175 0 14zm-26.726 7h5.949c.206 1.785.442 3.459.708 5h-4.955c-.6719547-1.6292016-1.2404179-3.2991875-1.702-5zm8.683 5c-.271-1.531-.514-3.207-.725-5h7.409c-.209 1.786-.452 3.46-.725 5zm7.985 0c.267-1.548.5-3.223.708-5h5.949c-.4613798 1.7006289-1.0291651 3.3705859-1.7 5zm10.352 0h-3.248c.6354489-1.6335235 1.1740497-3.303086 1.613-5h4.116c-.6929597 1.7298843-1.5225822 3.4018361-2.481 5z"/><path id="Shape" d="m20 55.111v-16c-.0021432-2.1298384-.2674875-4.251249-.79-6.316-.5276085-2.0637544-1.3110098-4.0534996-2.332-5.923-1.8857585-3.4612219-2.8751588-7.3394097-2.878-11.281v-3.816c.3629154-.1708284.6934747-.4032688.977-.687.8036596-.8031509 1.1661925-1.94715922.9717941-3.06659177-.1943985-1.11943256-.9214064-2.0742334-1.9487941-2.55940823v-3.351c0-1.1045695-.8954305-2-2-2h-4c-1.1045695 0-2 .8954305-2 2v3.352c-1.23104372.56091166-2.01526614 1.79527775-2 3.148.00263998 1.35130018.78034105 2.5812344 2 3.163v3.817c-.00169911 1.9639804-.24656177 3.9201946-.729 5.824-.48564818 1.9016017-1.2076025 3.7348752-2.149 5.457-2.04525872 3.7553877-3.11850789 7.9627858-3.122 12.239v16c.00330612 2.7600532 2.23994685 4.9966939 5 5h10c2.7600532-.0033061 4.9966939-2.2399468 5-5zm-18-15h16v10h-16zm6-38h4v3h-4zm-3.122 25.719c1.02116225-1.8697715 1.80457011-3.8598693 2.332-5.924.52263212-2.0643887.78797889-4.1854834.79-6.315v-3.48c.55228475 0 1-.4477153 1-1s-.44771525-1-1-1h-.723c-.02575181-.0114689-.05212656-.0214847-.079-.03-.75521783-.15335153-1.27136061-.85402033-1.19391328-1.62074882.07744732-.76672849.72328363-1.35002566 1.49391328-1.34925118h5c.7706297-.00077448 1.416466.58252269 1.4939133 1.34925118s-.4386955 1.46739729-1.1939133 1.62074882c-.028.006-.05.022-.077.03h-.721c-.5522847 0-1 .4477153-1 1s.4477153 1 1 1v3.48c.0034921 4.2762142 1.0767413 8.4836123 3.122 12.239.9411964 1.7218674 1.6631427 3.5547844 2.149 5.456.3968977 1.5803261.6314466 3.1970385.7 4.825h-15.94c.15301482-3.5991969 1.12682195-7.1157797 2.847-10.281zm-2.878 27.281v-3h16v3c0 1.6568542-1.3431458 3-3 3h-10c-1.65685425 0-3-1.3431458-3-3z"/><path id="Shape" d="m12 42.111h-4c-.55228475 0-1 .4477153-1 1s.44771525 1 1 1h4c.5522847 0 1-.4477153 1-1s-.4477153-1-1-1z"/><path id="Shape" d="m12 46.111h-4c-.55228475 0-1 .4477153-1 1s.44771525 1 1 1h4c.5522847 0 1-.4477153 1-1s-.4477153-1-1-1z"/></g></g></svg>