<svg height="512" viewBox="0 0 56 61" width="512" xmlns="http://www.w3.org/2000/svg"><g id="Page-1" fill="none" fill-rule="evenodd"><g id="031---Hourglass" fill="rgb(0,0,0)" fill-rule="nonzero"><path id="Shape" d="m24.687 25.958c3.3724251-2.8480339 5.3165373-7.038871 5.313-11.453v-4.647c1.7606851-.45459333 2.9931852-2.03958838 3-3.858v-2c0-2.209139-1.790861-4-4-4h-25c-2.209139 0-4 1.790861-4 4v2c.00681482 1.81841162 1.23931486 3.40340667 3 3.858v4.647c-.00351189 4.4139063 1.94017074 8.604606 5.312 11.453l2.071 1.751c.6742466.5700142 1.0631678 1.408093 1.0631678 2.291s-.3889212 1.7209858-1.0631678 2.291l-2.071 1.751c-3.37316647 2.8495212-5.31698623 7.0423462-5.312 11.458v4.647c-1.75889265.4541199-2.99091885 2.0364522-3 3.853v2c0 2.209139 1.790861 4 4 4h25c2.209139 0 4-1.790861 4-4v-2c-.0068148-1.8184116-1.2393149-3.4034067-3-3.858v-4.642c.0035373-4.414129-1.9405749-8.6049661-5.313-11.453l-2.07-1.751c-.6742466-.5700142-1.0631678-1.408093-1.0631678-2.291s.3889212-1.7209858 1.0631678-2.291zm-22.687-19.958v-2c0-1.1045695.8954305-2 2-2h25c1.1045695 0 2 .8954305 2 2v2c0 1.1045695-.8954305 2-2 2h-25c-1.1045695 0-2-.8954305-2-2zm29 48v2c0 1.1045695-.8954305 2-2 2h-25c-1.1045695 0-2-.8954305-2-2v-2c0-1.1045695.8954305-2 2-2h25c1.1045695 0 2 .8954305 2 2zm-9.675-20.182 2.075 1.751c2.9226698 2.4701129 4.6060238 6.1043278 4.6 9.931l.0000161 4.5h-23.0000253l.0000092-4.5c-.00454895-3.824925 1.67866791-7.4570142 4.6-9.926l2.071-1.751c1.1235085-.9500232 1.7715521-2.3466688 1.7715521-3.818s-.6480436-2.8679768-1.7715521-3.818l-2.071-1.756c-2.92133209-2.4689858-4.60454895-6.101075-4.6-9.926l-.0000092-4.505h23.0000253l-.0000161 4.505c.0045489 3.824925-1.6786679 7.4570142-4.6 9.926l-2.071 1.751c-1.1235085.9500232-1.7715521 2.3466688-1.7715521 3.818s.6480436 2.8679768 1.7715521 3.818z"/><path id="Shape" d="m22.4 21.8c-.1443552-.3940266-.5193628-.6560127-.939-.656h-9.919c-.415269.0051836-.7841131.2664972-.926717.6565477-.1426038.3900504-.0292832.8276452.284717 1.0994523l2.07 1.751c1.5724166 1.3300313 2.4793452 3.2850153 2.4793452 5.3445s-.9069286 4.0144687-2.4793452 5.3445l-2.07 1.76c-2.47490562 2.088035-3.90207499 5.1619383-3.9 8.4v1.5c0 .5522847.44771525 1 1 1h17c.5522847 0 1-.4477153 1-1v-1.5c.0022122-3.238092-1.4249828-6.3120503-3.9-8.4l-2.07-1.751c-1.5724166-1.3300313-2.4793452-3.2850153-2.4793452-5.3445s.9069286-4.0144687 2.4793452-5.3445l2.07-1.76c.3197114-.2681607.4393005-.7066542.3-1.1zm-3.658 15.072 2.07 1.751c2.0250325 1.709869 3.1917438 4.2266425 3.188 6.877l.000009.5h-15.000013l.000004-.5c-.00249662-2.6481584 1.1637224-5.1624636 3.187-6.871l2.071-1.752c.9336-.7897995 1.696455-1.7615719 2.242-2.856.546116 1.0926322 1.3089366 2.0626597 2.242 2.851zm-2.242-10.893c-.5431905-1.0866041-1.3007393-2.051994-2.227-2.838h4.455c-.9266215.7859089-1.6845157 1.7513055-2.228 2.838z"/><path id="Shape" d="m11 13c0-.5522847-.4477153-1-1-1h-2c-.55228475 0-1 .4477153-1 1s.44771525 1 1 1h2c.5522847 0 1-.4477153 1-1z"/><path id="Shape" d="m14 14h11c.5522847 0 1-.4477153 1-1s-.4477153-1-1-1h-11c-.5522847 0-1 .4477153-1 1s.4477153 1 1 1z"/><path id="Shape" d="m41.271 21.415c-.4861977 1.9014241-1.2081255 3.7346304-2.149 5.457-2.0452587 3.7553877-3.1185079 7.9627858-3.122 12.239v16c.0033061 2.7600532 2.2399468 4.9966939 5 5h10c2.7600532-.0033061 4.9966939-2.2399468 5-5v-16c-.0019478-2.1299127-.2676361-4.2513881-.791-6.316-.526892-2.0638369-1.3099758-4.0536291-2.331-5.923-1.8857585-3.4612219-2.8751588-7.3394097-2.878-11.281v-3.816c1.2240362-.5773479 2.0036143-1.8106404 2-3.164-.005115-1.34708608-.7828837-2.57168294-2-3.149v-3.351c0-1.1045695-.8954305-2-2-2h-4c-1.1045695 0-2 .8954305-2 2v3.348c-.3615819.16797927-.6919596.39623404-.977.675-.6582798.65580342-1.0266775 1.54780851-1.023 2.477.00264 1.35130018.7803411 2.5812344 2 3.163v3.817c-.0022008 1.9639488-.2470557 3.9201015-.729 5.824zm12.729 28.696h-16v-10h16zm-3 8h-10c-1.6568542 0-3-1.3431458-3-3v-3h16v3c0 1.6568542-1.3431458 3-3 3zm-7-56h4v3h-4zm-.79 19.795c.5226321-2.0643887.7879789-4.1854834.79-6.315v-3.48c.5522847 0 1-.4477153 1-1s-.4477153-1-1-1h-.724c-.0254125-.0114653-.0514542-.0214813-.078-.03-.7552178-.15335153-1.2713606-.85402033-1.1939133-1.62074882s.7232836-1.35002566 1.4939133-1.34925118h5c.7706297-.00077448 1.416466.58252269 1.4939133 1.34925118s-.4386955 1.46739729-1.1939133 1.62074882c-.028.006-.05.022-.077.03h-.721c-.5522847 0-1 .4477153-1 1s.4477153 1 1 1v3.48c.003362 4.275913 1.0766244 8.483019 3.122 12.238.9405429 1.7225247 1.6624541 3.5556886 2.149 5.457.3968977 1.5803261.6314466 3.1970385.7 4.825h-15.939c.1523095-3.599497 1.125793-7.1164883 2.846-10.282 1.0212466-1.8693805 1.8046608-3.8591586 2.332-5.923z"/><path id="Shape" d="m44 44.111h4c.5522847 0 1-.4477153 1-1s-.4477153-1-1-1h-4c-.5522847 0-1 .4477153-1 1s.4477153 1 1 1z"/><path id="Shape" d="m44 48.111h4c.5522847 0 1-.4477153 1-1s-.4477153-1-1-1h-4c-.5522847 0-1 .4477153-1 1s.4477153 1 1 1z"/></g></g></svg>