<svg height="512" viewBox="0 0 50 60" width="512" xmlns="http://www.w3.org/2000/svg"><g id="Page-1" fill="none" fill-rule="evenodd"><g id="033---Wine-Bottle-Top" fill="rgb(0,0,0)" fill-rule="nonzero"><path id="Shape" d="m45 60c.5522847 0 1-.4477153 1-1v-17.5c1.2866467-.715287 2.3147901-1.8183191 2.938-3.152 2.594-6.917-.46-13.249-1.8-14.653-1.1244652-1.2649624-2.5467418-2.2294158-4.138-2.806v-15.389c-.0121918-.63588061-.2652245-1.24344485-.708-1.7-2.329-2.625-10.363-3.8-17.292-3.8s-14.963 1.175-17.281 3.789c-.44801046.45849246-.7050278 1.07011507-.719 1.711v15.389c-1.62731058.5840573-3.07470374 1.5813801-4.2 2.894-1.377 1.547-4.277 7.767-1.728 14.565.61933193 1.3330505 1.64413657 2.4362554 2.928 3.152v17.5c0 .5522847.44771525 1 1 1s1-.4477153 1-1v-16.418c1.20166943.5559919 2.44148526 1.0255178 3.71 1.405.5270075.1555988 1.0808314-.1431808 1.2401899-.6690637.1593584-.5258829-.1354585-1.0818264-.6601899-1.2449363-1.63895085-.4731753-3.22030359-1.1268459-4.715-1.949-.07719416-.058844-.16282451-.1057047-.254-.139-1.02185486-.5067528-1.85657071-1.3246622-2.384-2.336-1.12606134-3.04742-1.18738955-6.3862826-.174-9.473 2.784 3.798 12.761 5.824 22.237 5.824s19.456-2.027 22.238-5.826c1.0142602 3.0868629.9532817 6.4262245-.173 9.474-.5174143 1.0081552-1.3431677 1.8247998-2.357 2.331-.1469941.0421084-.2822086.11776-.395.221-3.75 2.1-10.84 3.8-19.313 3.8-1.614 0-3.271-.063-4.925-.187-.5439752-.0304683-1.0122357.3801286-1.0531053.9234214-.0408695.5432928.3606938 1.0193227.9031053 1.0705786 1.7.128 3.411.193 5.075.193 7.617 0 14.534-1.326 19-3.406v16.406c0 .5522847.4477153 1 1 1zm-20-33c-10.353 0-16-2.312-16-3.5v-15.3c3.2 1.9 9.762 2.8 16 2.8s12.8-.9 16-2.8v15.3c0 1.188-5.647 3.5-16 3.5zm-15.8-21.872c1.349-1.516 7.342-3.128 15.8-3.128s14.451 1.612 15.808 3.142c.1024506.0943366.1700952.22046563.192.358 0 1.188-5.647 3.5-16 3.5s-16-2.312-16-3.5c.02390629-.14263279.09420709-.27339228.2-.372zm15.8 26.872c-12.019 0-21-3.167-21-6 .01417616-.3745454.15522165-.7331536.4-1.017.70593144-.827699 1.59655477-1.4778541 2.6-1.898v.415c0 3.779 9.331 5.5 18 5.5s18-1.721 18-5.5v-.414c1.0107638.4227268 1.9071772 1.078589 2.616 1.914.2370016.2805545.3723119.6329251.384 1 0 2.833-8.981 6-21 6z"/><circle id="Oval" cx="12.704" cy="13.389" r="1"/><circle id="Oval" cx="16" cy="18" r="1"/><circle id="Oval" cx="18" cy="23" r="1"/><circle id="Oval" cx="23" cy="24" r="1"/><circle id="Oval" cx="21" cy="18" r="1"/><circle id="Oval" cx="25" cy="20" r="1"/><circle id="Oval" cx="25" cy="14" r="1"/><circle id="Oval" cx="18" cy="14" r="1"/><circle id="Oval" cx="13" cy="21" r="1"/><circle id="Oval" cx="37.296" cy="13.389" r="1"/><circle id="Oval" cx="34" cy="18" r="1"/><circle id="Oval" cx="32" cy="23" r="1"/><circle id="Oval" cx="27" cy="24" r="1"/><circle id="Oval" cx="29" cy="18" r="1"/><circle id="Oval" cx="32" cy="14" r="1"/><circle id="Oval" cx="14" cy="5.389" r="1"/><circle id="Oval" cx="25" cy="6" r="1"/><circle id="Oval" cx="19" cy="6" r="1"/><circle id="Oval" cx="22" cy="4" r="1"/><circle id="Oval" cx="28" cy="4" r="1"/><circle id="Oval" cx="36" cy="5.389" r="1"/><circle id="Oval" cx="31" cy="6" r="1"/><circle id="Oval" cx="37" cy="21" r="1"/><path id="Shape" d="m6.6 36.01c-.22817855-.6570293-.3873691-1.336019-.475-2.026-.06958788-.5481426-.57035739-.9360879-1.1185-.8665s-.93608788.5703574-.8665 1.1185c.11383705.8941525.32784799 1.7726707.638 2.619.03078856.0824515.07177363.1607262.122.233.85051081.8961353 1.89580931 1.584561 3.055 2.012.50157855.2009149 1.07204476-.032938 1.28827565-.5281067.21623088-.4951687.0000157-1.0725506-.48827565-1.3038933-.7824136-.2984153-1.5104528-.7234145-2.155-1.258z"/></g></g></svg>