<svg height="512" viewBox="0 0 60 60" width="512" xmlns="http://www.w3.org/2000/svg"><g id="Page-1" fill="none" fill-rule="evenodd"><g id="034---Wine-and-Dine" fill="rgb(0,0,0)" fill-rule="nonzero"><path id="Shape" d="m59 45h-22v-18c0-1.6568542-1.3431458-3-3-3h-3v-2.16c1.8461471-.6287977 3.0640932-2.3907597 3-4.34 0-1.261-1.1-8.5-4-8.5s-4 7.239-4 8.5c-.0640932 1.9492403 1.1538529 3.7112023 3 4.34v2.16h-3c-1.6568542 0-3 1.3431458-3 3v30c0 1.6568542 1.3431458 3 3 3h22.9c2.8577587-.0013444 5.3179744-2.0180518 5.88-4.82l.164-.8 4.9-7.846c.194433-.3078456.2061771-.6970424.0306598-1.0160514-.1755174-.319009-.5105543-.5174083-.8746598-.5179486zm-31-27.5c0-2.023 1.22-5.917 2-6.47.78.553 2 4.447 2 6.47.0244115.8348372-.3461709 1.6323303-1 2.152v-1.652c0-.5522847-.4477153-1-1-1s-1 .4477153-1 1v1.652c-.6538291-.5196697-1.0244115-1.3171628-1-2.152zm-2 8.5h8c.5522847 0 1 .4477153 1 1v7h-1.112c-1.5943129.0016536-2.8863464 1.2936871-2.888 2.888v7.112c.0008733.2694422-.1099083.5272084-.306.712-.2042215.2107549-.494231.315542-.786.284-.5388291-.0874112-.9281612-.5624993-.908-1.108v-5c-.0016536-1.5943129-1.2936871-2.8863464-2.888-2.888h-1.112v-9c0-.5522847.4477153-1 1-1zm7.1 32h-7.1c-.5522847 0-1-.4477153-1-1v-19h1.112c.4902004.0005511.8874489.3977996.888.888v5c-.0214177 1.5844483 1.1639802 2.9260816 2.739 3.1.087.008.174.011.26.011 1.6534434-.0082058 2.9917942-1.3465566 3-3v-7.111c.0005518-.4905906.3984091-.8880003.889-.888h1.112v21c0 .5522847-.4477153 1-1 1zm15.8 0h-12.084c.1184378-.320257.1806856-.6585603.184-1v-2h15.771c-.4558135 1.765359-2.0477454 2.9990959-3.871 3zm4.546-5h-16.446v-6h20.2z"/><path id="Shape" d="m56.5 26h-2c-.8284271 0-1.5-.6715729-1.5-1.5v-.5c0-.5522847-.4477153-1-1-1s-1 .4477153-1 1v.5c0 .9282577.3687489 1.8184964 1.0251263 2.4748737.6563773.6563774 1.546616 1.0251263 2.4748737 1.0251263h2c.8284271 0 1.5.6715729 1.5 1.5s-.6715729 1.5-1.5 1.5h-12c-1.9329966 0-3.5 1.5670034-3.5 3.5s1.5670034 3.5 3.5 3.5h5c.8284271 0 1.5.6715729 1.5 1.5v2.5c0 .5522847.4477153 1 1 1s1-.4477153 1-1v-2.5c0-1.9329966-1.5670034-3.5-3.5-3.5h-5c-.8284271 0-1.5-.6715729-1.5-1.5s.6715729-1.5 1.5-1.5h12c1.9329966 0 3.5-1.5670034 3.5-3.5s-1.5670034-3.5-3.5-3.5z"/><path id="Shape" d="m3 60h14c1.6568542 0 3-1.3431458 3-3v-15.75c-.0030438-2.7774568-.3237955-5.5454496-.956-8.25-.112-.495-.246-.99-.381-1.479-.6206628-2.1903051-1.4452697-4.3176101-2.463-6.354-.2548491-.5016657-.4831638-1.0163752-.684-1.542-1.0043176-2.4724571-1.5191722-5.1163509-1.516-7.785v-6.506c.6458231-.60338862 1.0086414-1.45020671 1-2.334v-4c.0920406-1.5534399-1.0836262-2.89145225-2.636-3h-4.728c-1.55237379.10854775-2.72804064 1.4465601-2.636 3v4c-.00864144.88379329.35417693 1.73061138 1 2.334v6.506c.00181242 2.6741496-.51577067 5.323197-1.524 7.8-.19970928.5217148-.42703047 1.0324364-.681 1.53-1.01592798 2.0353379-1.83918284 4.1612705-2.459 6.35-.134.484-.268.979-.38 1.47-.63243527 2.707899-.95318493 5.4792297-.956 8.26v15.75c0 1.6568542 1.34314575 3 3 3zm15-17v10h-16v-10zm-1 15h-14c-.55228475 0-1-.4477153-1-1v-2h16v2c0 .5522847-.4477153 1-1 1zm-11.419-31.926c.181-.355.344-.715.5-1.074h7.862c.154.359.3.722.475 1.067.079.16.15.324.227.484l-3.321 2.949c-.7546979.6751752-1.89630207.6751752-2.651 0l-3.317-2.949c.077-.158.144-.32.225-.477zm2.419-16.074h4v5.84c.0050996 2.434646.4035683 4.8524729 1.18 7.16h-6.361c.77689092-2.3074413 1.17570075-4.7252892 1.181-7.16zm-1-7c0-.572.336-1 .636-1h4.728c.3 0 .636.428.636 1v4c0 .572-.336 1-.636 1h-4.728c-.3 0-.636-.428-.636-1zm-3.738 29.063c.34819438-1.2197818.76383383-2.4192939 1.245-3.593l2.837 2.516c1.51184745 1.351932 3.7981525 1.351932 5.31 0l2.839-2.518c.4803294 1.1717672.8953 2.3692729 1.243 3.587.126.455.252.921.36 1.39.5778296 2.4767359.8796683 5.0098338.9 7.553h-15.989c.02007755-2.5445022.32191769-5.0789533.9-7.557.105-.463.231-.929.355-1.378z"/><path id="Shape" d="m11 49h-2c-.55228475 0-1 .4477153-1 1s.44771525 1 1 1h2c.5522847 0 1-.4477153 1-1s-.4477153-1-1-1z"/><path id="Shape" d="m10 40c1.6568542 0 3-1.3431458 3-3s-1.3431458-3-3-3c-1.65685425 0-3 1.3431458-3 3s1.34314575 3 3 3zm0-4c.5522847 0 1 .4477153 1 1s-.4477153 1-1 1c-.55228475 0-1-.4477153-1-1s.44771525-1 1-1z"/><path id="Shape" d="m5.543 48.88c.48803304.2480667 1.08484955.0617002 1.345-.42.69681279-1.0138254 1.8869252-1.5721687 3.112-1.46 1.2201238-.1123916 2.4063449.4404141 3.105 1.447.2468713.4942948.8477051.6948712 1.342.448.4942948-.2468713.6948713-.8477052.448-1.342-1.0277144-1.6974497-2.9148559-2.6816933-4.895-2.553-1.98014406-.1286933-3.86728557.8555503-4.895 2.553-.2426084.4876011-.04720032 1.0796251.438 1.327z"/><path id="Shape" d="m29 2v3c0 .55228475.4477153 1 1 1s1-.44771525 1-1v-3c0-.55228475-.4477153-1-1-1s-1 .44771525-1 1z"/><path id="Shape" d="m43 14c0-.5522847-.4477153-1-1-1h-3c-.5522847 0-1 .4477153-1 1s.4477153 1 1 1h3c.5522847 0 1-.4477153 1-1z"/><path id="Shape" d="m22 14c0-.5522847-.4477153-1-1-1h-3c-.5522847 0-1 .4477153-1 1s.4477153 1 1 1h3c.5522847 0 1-.4477153 1-1z"/><path id="Shape" d="m35.657 21.071 2.121 2.121c.3923789.3789722 1.0160848.3735524 1.4018186-.0121814s.3911536-1.0094397.0121814-1.4018186l-2.121-2.121c-.3923789-.3789722-1.0160848-.3735524-1.4018186.0121814s-.3911536 1.0094397-.0121814 1.4018186z"/><path id="Shape" d="m24.343 6.929-2.121-2.121c-.3923789-.37897221-1.0160848-.37355237-1.4018186.01218142-.3857338.3857338-.3911536 1.00943969-.0121814 1.40181858l2.121 2.121c.3923789.37897221 1.0160848.37355237 1.4018186-.01218142.3857338-.3857338.3911536-1.00943969.0121814-1.40181858z"/><path id="Shape" d="m21.515 23.485c.2651948-.0000566.5195073-.1054506.707-.293l2.121-2.121c.3789722-.3923789.3735524-1.0160848-.0121814-1.4018186s-1.0094397-.3911536-1.4018186-.0121814l-2.121 2.121c-.2859079.2859943-.3714219.7160366-.216678 1.0896546.1547439.3736179.5192821.6172591.923678.6173454z"/><path id="Shape" d="m36.364 8.636c.2651948-.00005664.5195073-.10545063.707-.293l2.121-2.121c.3789722-.39237889.3735524-1.01608478-.0121814-1.40181858-.3857338-.38573379-1.0094397-.39115363-1.4018186-.01218142l-2.121 2.121c-.2859079.28599425-.3714219.71603662-.216678 1.08965456s.5192821.61725909.923678.61734544z"/></g></g></svg>