<svg height="512" viewBox="0 0 60 60" width="512" xmlns="http://www.w3.org/2000/svg"><g id="Page-1" fill="none" fill-rule="evenodd"><g id="035---Serving-Wine" fill="rgb(0,0,0)" fill-rule="nonzero"><path id="Shape" d="m58 31h-.052c.2557887-1.1073942-.3147676-2.2396773-1.357-2.693-.027-.012-.053-.022-.08-.032l-4.511-1.934v-6.858c2.8959452-.9002339 4.9031547-3.5369044 5-6.568l-1.007-11.1c-.091033-1.03133558-.9576696-1.82057063-1.993-1.815h-10c-1.0358184-.00443711-1.9020054.78608899-1.992 1.818l-.934 10.282-.074.9c.1219205 3.0035744 2.1262132 5.6031421 5 6.485v6.856l-4.508 1.935c-.0269513.0086833-.0533357.0190367-.079.031-1.0429182.4526623-1.6140716 1.5852957-1.358 2.693h-1.109c.2548023-1.107551-.3159597-2.2394082-1.358-2.693l-.077-.031-4.511-1.935v-6.858c2.8961009-.9006152 4.9032735-3.5376386 5-6.569l-1.008-11.1c-.0910303-1.03078308-.9572202-1.81957249-1.992-1.814h-10c-1.0358184-.00443711-1.9020054.78608899-1.992 1.818l-.934 10.282-.074.9c.1222169 3.0034667 2.1263928 5.6028829 5 6.485v6.856l-4.508 1.934c-.027.01-.054.02-.079.032-1.0429182.4526623-1.6140716 1.5852957-1.358 2.693h-1.109c.2548023-1.107551-.3159597-2.2394082-1.358-2.693l-.077-.031-4.511-1.935v-6.858c2.8961009-.9006152 4.9032735-3.5376386 5-6.569l-1.008-11.1c-.0910303-1.03078308-.9572202-1.81957249-1.992-1.814h-10c-1.03466806-.00287361-1.89910029.78724091-1.989 1.818l-.937 10.282-.074.9c.12221688 3.0034667 2.12639282 5.6028829 5 6.485v6.856l-4.508 1.934c-.027.01-.054.02-.079.032-1.04291818.4526623-1.6140716 1.5852957-1.358 2.693h-.055c-.72019155.0007131-1.38438429.3885804-1.73890996 1.0154679-.35452568.6268875-.34462913 1.3959747.02590996 2.0135321l1.8 3c.36293005.5999054 1.01186228.9677473 1.713.971h13.8l-4.842 4.833c-.4349441.0335634-.8467735.2092585-1.172.5l-7.594 6.838c-.63150346.5689203-.9920321 1.3790194-.992 2.229v4.6c0 1.6568542 1.34314575 3 3 3h8.394c.7386439-.0001739 1.4510814-.2737499 2-.768l6.231-5.594c.1998593-.1783471.3614526-.3953925.475-.638h11.9c1.9252944.00408 3.7336894-.9232161 4.854-2.489l8.79-11.093c.2842245-.4143683.4007248-.9211088.326-1.418h7.23c.702007-.0019692 1.3521231-.3700524 1.715-.971l1.8-3c.3707226-.6178641.380432-1.3873806.0254168-2.0144017-.3550153-.6270211-1.0198675-1.0146052-1.7404168-1.0145983zm-4-29 .341 3.744c-1.8918074-.51051163-3.9136591-.05185083-5.4 1.225-1.5135519 1.36868422-3.8157786 1.37515478-5.337.015l-.049-.035.445-4.949zm-11 11.086.35-3.856c.8783937.52496563 1.8869223.7918272 2.91.77 1.425432.0126166 2.8062252-.49673315 3.882-1.432.7250981-.67196803 1.6804832-1.03994699 2.669-1.028.6000985-.01947609 1.1950324.11659737 1.727.395l.462 5.065c0 2.757-2.691 5-6 5s-6-2.243-6-4.914zm-.987 17.514c-.0601763-.175159.0195872-.3677065.186-.449l.046-.018 5.15-2.21c.3685512-.1584594.606731-.5218312.605-.923v-7.061c.6641859.0813355 1.3358141.0813355 2 0v7.061c-.0009897.3985238.2347453.7595912.6.919l5.151 2.21c.015.006.03.013.046.018.1664128.0812935.2461763.273841.186.449-.0363381.2299113-.2342355.3994165-.467.4h-13.036c-.2314775-.0002629-.4289089-.1676779-.467-.396zm-7.013-28.6.342 3.744c-1.8918147-.51015097-3.9134969-.05152861-5.4 1.225-1.5135519 1.36868422-3.8157786 1.37515478-5.337.015l-.049-.035.444-4.949zm-11 11.086.35-3.856c.8783937.52496563 1.8869223.7918272 2.91.77 1.425432.0126166 2.8062252-.49673315 3.882-1.432.7252082-.67179138 1.68052-1.03974211 2.669-1.028.6004303-.01960405 1.1957191.11647181 1.728.395l.461 5.065c0 2.757-2.691 5-6 5s-6-2.243-6-4.914zm-.987 17.514c-.0601763-.175159.0195872-.3677065.186-.449l.046-.018 5.15-2.21c.3685512-.1584594.606731-.5218312.605-.923v-7.061c.6641859.0813355 1.3358141.0813355 2 0v7.061c.0000442.3999561.2383962.7614173.606.919l5.15 2.21.044.017c.1673324.0809835.2479898.2740463.188.45-.0363381.2299113-.2342355.3994165-.467.4h-13.041c-.2314775-.0002629-.4289089-.1676779-.467-.396zm-7.013-28.6.342 3.744c-1.8918147-.51015097-3.9134969-.05152861-5.4 1.225-.7285661.67511195-1.68881864 1.04424706-2.682 1.031-.98392485.01371227-1.9357543-.34984364-2.66-1.016l-.049-.035.449-4.949zm-11 11.086.35-3.856c.87839367.52496563 1.88692233.7918272 2.91.77 1.42543199.0126166 2.8062252-.49673315 3.882-1.432.7252082-.67179138 1.68052-1.03974211 2.669-1.028.6004303-.01960405 1.1957191.11647181 1.728.395l.461 5.065c0 2.757-2.691 5-6 5s-6-2.243-6-4.914zm-.987 17.514c-.06017635-.175159.0195872-.3677065.186-.449l.046-.018 5.15-2.21c.36855122-.1584594.606731-.5218312.605-.923v-7.061c.3319713.0385566.6658036.0589204 1 .061.3341984-.0020195.668034-.0223834 1-.061v7.061c.0000442.3999561.2383962.7614173.606.919l5.15 2.21.044.017c.1673324.0809835.2479898.2740463.188.45-.0363381.2299113-.2342355.3994165-.467.4h-13.041c-.2314775-.0002629-.42890889-.1676779-.467-.396zm17.28 21.553-6.231 5.595c-.1834822.1647837-.4213841.2559557-.668.256h-8.394c-.55228475 0-1-.4477153-1-1v-4.604c.00007437-.2833785.12037536-.5534198.331-.743l7.588-6.839 8.375 7.33zm25.744-13.92-8.785 11.081c-.7455955 1.0570875-1.958421 1.6858771-3.252 1.686h-12.076c-.0899062-.130611-.1953451-.2498174-.314-.355l-7.91-6.928 4.552-4.544c.746859-.7488603 1.7603682-1.1707362 2.818-1.173h11.93c.5522847 0 1 .4477153 1 1 .0015971.796138-.3139606 1.560128-.8769163 2.1230837s-1.3269457.8785134-2.1230837.8769163h-2.85c-1.5633766-.0281123-2.8882832 1.1447558-3.05 2.7-.0821425.88783.2408472 1.7653038.879 2.388.5691276.5871772 1.3532823.9165872 2.171.912h4.3c1.2694159.0028931 2.4637903-.6009832 3.214-1.625l5.652-6.7c.7440907-1.0349681 1.934449-1.6562988 3.209-1.675h.29c.4163435.0161343.8280647.0932899 1.222.229zm-10.221-.233h4.3c-.1359861.1447426-.2641676.2966244-.384.455l-5.651 6.7c-.3761972.5275037-.9830995.8419319-1.631.845h-4.3c-.2887121-.0010154-.5640095-.1220014-.76-.334-.2146185-.2117152-.3222711-.5089539-.293-.809.083134-.5112198.5355505-.8794258 1.053-.857h2.85c1.3264893.0013285 2.5990309-.5250291 3.5370009-1.4629991s1.4643276-2.2105116 1.4629991-3.5370009c-.0033144-.3414397-.0655622-.679743-.184-1zm21.184-5-1.8 3h-52.4l-1.8-3h21.457.023 13.041.038 5.877.044 13.041c.02 0 .039-.005.059-.005h2.42z"/><path id="Shape" d="m12 15c0-.5522847-.4477153-1-1-1-.7855681.0903375-1.55476782-.2708419-1.987-.933l.037-.428c.047329-.5500226-.36000534-1.0343476-.91-1.082-.26478038-.0257689-.52877715.0562204-.73237483.2274532-.20359767.1712328-.32962592.4172682-.34962517.6825468l-.048.556c-.00599805.0611867-.00599805.1228133 0 .184.154 1.566 1.907 2.793 3.99 2.793.5522847 0 1-.4477153 1-1z"/><path id="Shape" d="m31 15c0-.5522847-.4477153-1-1-1-.7855681.0903375-1.5547678-.2708419-1.987-.933l.037-.428c.047329-.5500226-.3600053-1.0343476-.91-1.082-.2648975-.0263348-.5292009.0554495-.7329301.2267929-.2037293.1713435-.3296081.4177162-.3490699.6832071l-.048.556c-.005998.0611867-.005998.1228133 0 .184.154 1.566 1.907 2.793 3.99 2.793.5522847 0 1-.4477153 1-1z"/><path id="Shape" d="m50 15c0-.5522847-.4477153-1-1-1-.7853852.0909032-1.5545766-.2704541-1.986-.933l.036-.428c.047329-.5500226-.3600053-1.0343476-.91-1.082-.2650146-.0269048-.5296273.0546728-.7334894.226128s-.3295903.4181679-.3485106.683872l-.048.556c-.005998.0611867-.005998.1228133 0 .184.154 1.566 1.907 2.793 3.99 2.793.5522847 0 1-.4477153 1-1z"/><path id="Shape" d="m15.941 49.527c-.3923789-.3789722-1.0160848-.3735524-1.4018186.0121814s-.3911536 1.0094397-.0121814 1.4018186l1.766 1.766c.3923789.3789722 1.0160848.3735524 1.4018186-.0121814s.3911536-1.0094397.0121814-1.4018186z"/></g></g></svg>