<svg height="512" viewBox="0 0 60 60" width="512" xmlns="http://www.w3.org/2000/svg"><g id="Page-1" fill="none" fill-rule="evenodd"><g id="036---Spinning-Wine-In-Glass" fill="rgb(0,0,0)" fill-rule="nonzero"><path id="Shape" d="m37.622 32.487c2.551422-1.5053063 4.3930627-3.9704322 5.113-6.844.3033528-1.319687.3515517-2.6852089.142-4.023l-.733-5.371-1.98-14.519c-.1382545-.98905182-.9823392-1.7261879-1.981-1.73h-16.31c-.9988732.0028141-1.8436443.73975118-1.982 1.729l-2.712 19.891c-.2102699 1.3373697-.1624074 2.7026384.141 4.022.7199364 2.8741104 2.561986 5.3396617 5.114 6.845 2.7952174 1.6213143 4.5300713 4.5948069 4.566 7.826v11.9c-.0069946.5055639-.385363.9287222-.887.992-3.988.604-8.113 2.565-8.113 4.795 0 1.1045695.8954305 2 2 2h20.056c1.1045695 0 2-.8954305 2-2 0-2.23-4.126-4.191-8.115-4.8-.5010603-.0637827-.8785723-.4869373-.885-.992v-11.9c.0376826-3.2294016 1.7723033-6.2005948 4.566-7.821zm-15.749-30.487h16.309l1.89 13.86c-.357.236-.7.478-1.018.719-2.5203338 2.2446692-6.3226662 2.2446692-8.843 0-1.548342-1.3650857-3.5469227-2.1091661-5.611-2.089-1.6416002-.0422538-3.2551821.4309097-4.614 1.353zm11.768 53.18c4.13.628 6.292 2.315 6.415 2.82l-20.056.03c.125-.535 2.287-2.222 6.416-2.85 1.481285-.2074085 2.5834928-1.4742649 2.584-2.97v-11.9c-.0372756-3.9396112-2.1473807-7.5681712-5.553-9.549-2.0878646-1.2317734-3.5951681-3.2487147-4.185-5.6-.2418953-1.073945-.2758403-2.1842841-.1-3.271l.453-3.322c.187-.134.376-.266.56-.4 2.5206079-2.2382129 6.3174344-2.2356345 8.835.006 3.2319562 2.7802117 8.0100788 2.7827612 11.245.006.041-.031.081-.059.122-.089l.519 3.8c.1744512 1.0874746.140515 2.1982039-.1 3.273-.5902779 2.3513591-2.0979087 4.3682564-4.186 5.6-3.4050879 1.9812265-5.5147325 5.6096481-5.552 9.549v11.9c.0019313 1.4942646 1.1032397 2.7592983 2.583 2.967z"/><path id="Shape" d="m25.507 27.02c-1.161664-.6836874-2.0006159-1.8046915-2.329-3.112-.1144823-.5844446-.1222745-1.1847809-.023-1.772.0633983-.3606777-.0754237-.7271608-.3618701-.955319-.2864465-.2281582-.6746948-.2814934-1.0120549-.1390298-.3373602.1424636-.5698649.4579361-.606075.8223488-.1379156.8373943-.1172231 1.6932492.061 2.523.4587642 1.8297165 1.6319467 3.3991227 3.257 4.357.4760695.2800084 1.0889916.1210695 1.369-.355s.1210695-1.0889916-.355-1.369z"/><path id="Shape" d="m24 50.87c.5522847.011598 1.009402-.4267153 1.021-.979s-.4267153-1.009402-.979-1.021c-15.386-.67-22.042-3.548-22.042-4.87 0-.587 2.093-2.514 11.142-3.862l.9 3.137c.0891928.3107847.3231459.5592667.628.667.1058906.0379994.2174984.0576153.33.058.2050393-.0001628.4050729-.0633497.573-.181l8-5.6c.3361982-.2356727.4941822-.6528965.3983987-1.0521413-.0957834-.3992447-.4258689-.6993751-.8323987-.7568587l-10-1.4c-.3350501-.0468388-.671065.0789014-.8930557.3341907s-.2998541.6055091-.2069443.9308093l.549 1.92c-5.988.912-12.588 2.636-12.588 5.805 0 5.548 19.956 6.7 23.957 6.869zm-3.655-12.832-4.769 3.338-1.192-4.176z"/><path id="Shape" d="m36.043 37.131c-.5493078-.0176918-1.0123295.4062638-1.043.955-.0116568.265115.082542.5239918.2618513.719619.1793093.1956273.4290234.3119608.6941487.323381 15.388.671 22.044 3.549 22.044 4.871 0 .587-2.093 2.514-11.142 3.862l-.9-3.137c-.0889465-.3108017-.3226549-.5594319-.6273642-.66742-.3047092-.1079882-.6428256-.0620113-.9076358.12342l-8 5.6c-.3361982.2356727-.4941822.6528965-.3983987 1.0521413.0957834.3992447.4258689.6993751.8323987.7568587l10 1.4c.047338.0070114.0951469.0103547.143.01.3139395.0001745.6097382-.1470902.7988245-.3976983.1890862-.2506081.2495089-.5754664.1631755-.8773017l-.549-1.92c5.992-.912 12.587-2.636 12.587-5.805 0-5.548-19.956-6.695-23.957-6.869zm3.612 12.831 4.769-3.338 1.192 4.176z"/><circle id="Oval" cx="30" cy="5" r="1"/><path id="Shape" d="m33.5 14c1.9329966 0 3.5-1.5670034 3.5-3.5 0-1.93299662-1.5670034-3.5-3.5-3.5s-3.5 1.56700338-3.5 3.5c0 1.9329966 1.5670034 3.5 3.5 3.5zm0-5c.8284271 0 1.5.67157288 1.5 1.5 0 .8284271-.6715729 1.5-1.5 1.5s-1.5-.6715729-1.5-1.5c0-.82842712.6715729-1.5 1.5-1.5z"/></g></g></svg>