<svg height="512" viewBox="0 0 60 60" width="512" xmlns="http://www.w3.org/2000/svg"><g id="Page-1" fill="none" fill-rule="evenodd"><g id="037---Wine-Store" fill="rgb(0,0,0)" fill-rule="nonzero"><path id="Shape" d="m22 28h-14c-.55228475 0-1 .4477153-1 1v10c0 .5522847.44771525 1 1 1h14c.5522847 0 1-.4477153 1-1v-10c0-.5522847-.4477153-1-1-1zm-1 10h-12v-8h12z"/><path id="Shape" d="m17 36c.5522847 0 1-.4477153 1-1v-2c0-.5522847-.4477153-1-1-1s-1 .4477153-1 1v2c0 .5522847.4477153 1 1 1z"/><path id="Shape" d="m13 36c.5522847 0 1-.4477153 1-1v-2c0-.5522847-.4477153-1-1-1s-1 .4477153-1 1v2c0 .5522847.4477153 1 1 1z"/><path id="Shape" d="m22 23c.5522847 0 1-.4477153 1-1v-1c0-.5522847-.4477153-1-1-1s-1 .4477153-1 1v1c0 .5522847.4477153 1 1 1z"/><path id="Shape" d="m18 23c.5522847 0 1-.4477153 1-1v-1c0-.5522847-.4477153-1-1-1s-1 .4477153-1 1v1c0 .5522847.4477153 1 1 1z"/><path id="Shape" d="m57.607 5.259-3.027.6c-.6169347-1.17018994-1.842602-1.89083217-3.1651227-1.86096265-1.3225206.02986952-2.5144028.80511282-3.0778773 2.00196265h-2.427c-1.0785068-.00387346-2.1432124-.24274971-3.12-.7-.9745681-.45044803-1.8359574-1.11331799-2.521-1.94-1.7729038-2.13362145-4.4049239-3.36549042-7.179-3.36h-18.09c-2.7600532.00330612-4.9966939 2.23994685-5 5v7c-2.76005315.0033061-4.99669388 2.2399468-5 5v7c-2.76005315.0033061-4.99669388 2.2399468-5 5v10c.00330612 2.7600532 2.23994685 4.9966939 5 5h18.1c2.7721411.0031606 5.4016872-1.2284082 7.174-3.36 1.1788132-1.4158424 2.848952-2.334133 4.676-2.571-.1156683 1.1268456-.6140193 2.180018-1.412 2.984-2.0669469 2.0917364-2.611345 5.249964-1.364 7.913l-1.162 1c-.8865651.7599286-1.3968037 1.8693146-1.3968037 3.037s.5102386 2.2770714 1.3968037 3.037l3.5 3c.7245099.6199598 1.6464467.9610764 2.6.962h18.888c2.209139 0 4-1.790861 4-4v-6.002c0-2.209139-1.790861-4-4-4h-18.891c-.9537594.0007625-1.8758583.3422937-2.6.963l-.74.634c-.607614-1.7955953-.1510834-3.7803429 1.18-5.13 1.1963039-1.1930272 1.9169163-2.7810764 2.027-4.467h1.36c.5448052 1.1549269 1.6771801 1.919817 2.952 1.994.9400711.053081 1.8597539-.2879046 2.538-.941.2806164-.2710337.5168385-.5845341.7-.929l3.086.617c.5877743.1197953 1.1982087-.0323539 1.661-.414.4623896-.3802977.7293241-.9483138.727-1.547v-5.56c-.0000023-.599322-.2687718-1.1670553-.7323279-1.5469272s-1.0730346-.5318396-1.6606721-.4140728l-3.028.605c-.6156976-1.1707228-1.8406469-1.8924373-3.163086-1.8636242-1.3224391.0288132-2.5147916.8031956-3.078914 1.9996242h-2.432c-.5971962-.0021779-1.1919057-.0770622-1.771-.223.4099218-.3460953.7896269-.7264695 1.135-1.137 1.3928121-1.6768545 3.4611507-2.6448414 5.641-2.64h2.426c.1707934.3629358.4032378.6935008.687.977.6085421.6077135 1.4185138.9716138 2.277 1.023.9407078.0476444 1.859028-.2970877 2.536-.952.2765771-.2696938.5090771-.5811559.689-.923l3.087.617c.5877743.1197953 1.1982087-.0323539 1.661-.414.4626617-.3805194.729625-.9489641.727-1.548v-5.56c-.0000023-.599322-.2687718-1.1670553-.7323279-1.5469272s-1.0730346-.5318396-1.6606721-.4140728l-3.027.605c-.6160186-1.1706219-1.8410747-1.8921956-3.1635741-1.8633858-1.3224993.0288099-2.51497.803048-3.0794259 1.9993858h-2.427c-.597702-.003295-1.1927679-.0795253-1.772-.227.408349-.3450175.7867045-.7240421 1.131-1.133 1.3928121-1.6768545 3.4611507-2.6448414 5.641-2.64h2.426c.1707934.3629358.4032378.6935008.687.977.6085421.6077135 1.4185138.9716138 2.277 1.023.9404816.0461934 1.8582434-.2983292 2.536-.952.2765771-.2696938.5090771-.5811559.689-.923l3.087.617c.5877743.1197953 1.1982087-.0323539 1.661-.414.4626617-.3805194.729625-.9489641.727-1.548v-5.56c-.0000023-.59932204-.2687718-1.16705532-.7323279-1.54692722-.4635561-.37987191-1.0730346-.53183956-1.6606721-.41407278zm-20.498 42.741h18.891c1.1045695 0 2 .8954305 2 2v6c0 1.1045695-.8954305 2-2 2h-18.891c-.4767215-.0007686-.9375872-.1712889-1.3-.481l-3.5-3c-.4436324-.3799686-.6989854-.9348889-.6989854-1.519s.255353-1.1390314.6989854-1.519l.964-.826c.087.1.167.2.261.292l.768.768c-.1964031.4000351-.2996525.839358-.302 1.285 0 1.6568542 1.3431458 3 3 3s3-1.3431458 3-3-1.3431458-3-3-3c-.4454868.0017247-.8848019.1042886-1.285.3l-.768-.768c-.057-.057-.105-.119-.159-.178l1.02-.873c.3624031-.3103962.8238399-.4809965 1.301-.481zm-.809 4.3.007-.011c.3964188-.3865221 1.0305224-.3805107 1.419542.0134574.3890197.3939681.3870159 1.0280971-.0044858 1.4195988s-1.0256307.3935055-1.4195988.0044858c-.3939681-.3890196-.3999795-1.0231232-.0134574-1.419542zm-7.569-12.94c-1.3907541 1.6739299-3.4547105 2.6415813-5.631 2.64h-18.1c-1.65685425 0-3-1.3431458-3-3v-10c0-1.6568542 1.34314575-3 3-3h18.1c2.1780385-.0030702 4.2441288.9647222 5.636 2.64.7556111.9015155 1.6751537 1.6517401 2.71 2.211.050576.032938.103752.0616998.159.086 1.0562987.5520971 2.2088761.8960032 3.395 1.013v4.1c-2.4447237.2323685-4.6983093 1.4222502-6.269 3.31zm-2.731-14.893c-.9359849-.3076485-1.9147527-.4652639-2.9-.467h-9.1v-6h12zm22 6.753v5.56l-3-.6v-4.36zm-9 1.78c.5522847 0 1-.4477153 1-1v-.725c.0114639-.025072.0214803-.0507809.03-.077.1533515-.7552178.8540203-1.2713606 1.6207488-1.1939133s1.3500257.7232836 1.3492512 1.4939133v4.84c-.0010625.4761217-.1981914.9307841-.545 1.257-.278073.2733118-.6575263.4182796-1.047.4-.6791599-.0396425-1.245913-.5328286-1.379-1.2-.0083325-.023864-.0180148-.047235-.029-.07v-.725c0-.5522847-.4477153-1-1-1s-1 .4477153-1 1h-1v-4h1c0 .5522847.4477153 1 1 1zm14-13.78v5.56l-3-.6v-4.36zm-10 .78c0 .5522847.4477153 1 1 1s1-.4477153 1-1v-.725c.0114639-.025072.0214803-.0507809.03-.077.1533515-.7552178.8540203-1.2713606 1.6207488-1.1939133s1.3500257.7232836 1.3492512 1.4939133v4.84c-.001797.4749796-.198023.9285039-.543 1.255-.2767707.2741593-.654699.4214935-1.044.407-.6803657-.039162-1.2488278-.5320482-1.384-1.2-.0081495-.0255605-.0178338-.050606-.029-.075v-.725c0-.5522847-.4477153-1-1-1s-1 .4477153-1 1h-2.09c-2.7740761-.0054904-5.4060962 1.2263785-7.179 3.36-.4933464.5918725-1.0776361 1.1015649-1.731 1.51-.6524856-.4092251-1.2363286-.9188222-1.73-1.51-.6456556-.7737766-1.4122219-1.4380216-2.27-1.967v-8.393c0-.5522847-.4477153-1-1-1h-14c-.5522847 0-1 .4477153-1 1v7h-5v-7c0-1.6568542 1.34314575-3 3-3h18.09c2.1796227-.0048075 4.2478195.9627463 5.641 2.639.7488504.8990653 1.6634178 1.6459281 2.694 2.2.0684288.0484421.142678.0880865.221.118.1.051.2.112.3.16 1.2414362.5789861 2.5941892.8803183 3.964.883zm-12-7.533c-.9392759-.3082643-1.9214329-.465882-2.91-.467h-9.09v-6h12zm20.413 1.533c-.6803657-.039162-1.2488278-.5320482-1.384-1.2-.0081495-.0255605-.0178338-.050606-.029-.075v-.725c0-.5522847-.4477153-1-1-1s-1 .4477153-1 1h-2.09c-2.7740761-.0054904-5.4060962 1.2263785-7.179 3.36-.4935283.5916945-1.0777877 1.1013604-1.731 1.51-.6539971-.4075805-1.2384144-.9173842-1.731-1.51-.6448578-.7744584-1.411157-1.4391022-2.269-1.968v-8.392c0-.55228475-.4477153-1-1-1h-14c-.5522847 0-1 .44771525-1 1v7h-5v-7c0-1.65685425 1.3431458-3 3-3h18.09c2.1796227-.00480753 4.2478195.96274631 5.641 2.639.8729213 1.05572832 1.9715636 1.90217841 3.215 2.477 1.2413583.5793309 2.5941147.88100514 3.964.884h2.09c0 .55228475.4477153 1 1 1s1-.44771525 1-1v-.725c.0114639-.02507201.0214803-.05078089.03-.077.1534204-.75560108.8546829-1.27182688 1.6217469-1.19382913s1.3500646.72481192 1.3482531 1.49582913v4.84c-.001797.4749796-.198023.9285039-.543 1.255-.2765051.2743575-.6548118.4211144-1.044.405zm6.587-1.22-3-.6v-4.36l3-.6z"/><path id="Shape" d="m27 11c.5522847 0 1-.4477153 1-1v-1c0-.55228475-.4477153-1-1-1s-1 .44771525-1 1v1c0 .5522847.4477153 1 1 1z"/><path id="Shape" d="m23 11c.5522847 0 1-.4477153 1-1v-1c0-.55228475-.4477153-1-1-1s-1 .44771525-1 1v1c0 .5522847.4477153 1 1 1z"/><path id="Shape" d="m43 52h11c.5522847 0 1-.4477153 1-1s-.4477153-1-1-1h-11c-.5522847 0-1 .4477153-1 1s.4477153 1 1 1z"/><path id="Shape" d="m43 56h6c.5522847 0 1-.4477153 1-1s-.4477153-1-1-1h-6c-.5522847 0-1 .4477153-1 1s.4477153 1 1 1z"/></g></g></svg>