<svg height="60" viewBox="0 0 36 60" width="36" xmlns="http://www.w3.org/2000/svg"><g id="Page-1" fill="none" fill-rule="evenodd"><g id="038---Wine-List" fill="rgb(0,0,0)" fill-rule="nonzero"><path id="Shape" d="m33 8h-5v-5c-.0015454-.95133065-.4542179-1.84554432-1.22-2.41-.7727126-.57248085-1.7730361-.73982121-2.69-.45l-23.41 7.91c-.40731172.13757212-.68110976.52008409-.68.95v50c0 .5522847.44771525 1 1 1h32c1.6568542 0 3-1.3431458 3-3v-46c0-1.65685425-1.3431458-3-3-3zm-8.29-5.95c.3006128-.09096736.6264984-.03541869.88.15.2555786.18674753.4076502.48347271.41.8v5h-18.92zm9.29 54.95c0 .5522847-.4477153 1-1 1h-25v-32c0-.5522847-.44771525-1-1-1s-1 .4477153-1 1v32h-4v-48h4v9c0 .5522847.44771525 1 1 1s1-.4477153 1-1v-9h25c.5522847 0 1 .4477153 1 1z"/><path id="Shape" d="m24 44.24v-3.83c3.0199057-1.2216109 4.9974756-4.1523694 5-7.41v-5c0-2.63-4-4-8-4s-8 1.37-8 4v5c.0025244 3.2576306 1.9800943 6.1883891 5 7.41v3.83c-3.67.6-6 2.23-6 4.26 0 2.57 3.87 4.5 9 4.5s9-1.93 9-4.5c0-2.03-2.33-3.66-6-4.26zm-3-18.24c3.72 0 6 1.29 6 2s-2.28 2-6 2-6-1.29-6-2 2.28-2 6-2zm-6 7v-2.27c1.8720699.8899577 3.9278915 1.3251066 6 1.27 2.0721085.0551066 4.1279301-.3800423 6-1.27v2.27c0 3.3137085-2.6862915 6-6 6s-6-2.6862915-6-6zm6 18c-4.27 0-7-1.48-7-2.5 0-.6 1.1-1.49 3.18-2-.256441.3885482-.2108342.9026617.11 1.24.1877666.1893127.4433625.2957983.71.2957983s.5222334-.1064856.71-.2957983c.6430172-.6440643 1.0694365-1.4724363 1.22-2.37.0482466-.2470457.0716964-.4982929.07-.75v-3.69c.663402.0933052 1.336598.0933052 2 0v3.66c-.0035945.2248211.0165166.4493949.06.67v.13c.1591673.8700474.5774342 1.6717257 1.2 2.3.1877666.1893127.4433625.2957983.71.2957983s.5222334-.1064856.71-.2957983c.3208342-.3373383.366441-.8514518.11-1.24 2.11.55 3.21 1.45 3.21 2.05 0 1.02-2.73 2.5-7 2.5z"/><path id="Shape" d="m30 14h-18c-.5522847 0-1 .4477153-1 1s.4477153 1 1 1h18c.5522847 0 1-.4477153 1-1s-.4477153-1-1-1z"/><path id="Shape" d="m26 20c.5522847 0 1-.4477153 1-1s-.4477153-1-1-1h-10c-.5522847 0-1 .4477153-1 1s.4477153 1 1 1z"/></g></g></svg>