<svg height="512" viewBox="0 0 54 61" width="512" xmlns="http://www.w3.org/2000/svg"><g id="Page-1" fill="none" fill-rule="evenodd"><g id="039---Wine-Decanter" fill="rgb(0,0,0)" fill-rule="nonzero"><path id="Shape" d="m5.817 45.4c-.884.438-1.678.834-2.388 1.216l-.012.007c-.329.176-.645.351-.933.524-1.25000402.6359979-1.85726656 2.0822639-1.436 3.42 1.286 4.421 11.936 9.509 23.511 9.509.322 0 .647 0 .971-.012.977-.02 1.963-.02 2.936 0 11.943.281 23.165-4.953 24.486-9.5.4215506-1.338007-.1862877-2.7846367-1.437-3.42-.288-.173-.6-.348-.932-.525l-.011-.005c-.709-.382-1.505-.779-2.389-1.217-5.738-2.847-14.409-7.147-15.183-16.48-.4423101-6.232137.2005665-12.4937546 1.9-18.506.663-2.46-3.23-5.783-7.358-7.943-2.0418244-1.11017606-4.2432367-1.89750311-6.526-2.334-2.915-.471-4.037.394-4.46 1.2-.2884718.59791499-.3145655 1.28903536-.072 1.907.0095289.05277556.0235807.10463344.042.155 0 .009.042.107.046.116l1.5 3.735c2.4440786 6.9479535 3.440518 14.3225581 2.928 21.67-.774 9.333-9.445 13.633-15.183 16.483zm22.694 12.66c-1-.019-2.017-.02-3.026 0-10.124.236-18.342-3.44-21.342-6.378 1.86451206.5757274 3.77528583.9892655 5.711 1.236.04827392.0078451.09709298.0118576.146.012.5229618-.0015101.956442-.405708.9944656-.9272878.0380237-.5215798-.3322521-.9843723-.8494656-1.0617122-4.787-.7-6.407-1.494-6.928-1.858.09160764-.0858718.19218613-.1616409.3-.226.283-.169.6-.346.939-.525 3.899-1.417 12.725-2.332 22.544-2.332s18.645.915 22.546 2.332c.335.179.655.355.938.525.1133668.0675378.2187068.147717.314.239-1.576 1.258-10.328 2.904-23.798 2.904-2.8 0-5.468-.07-7.944-.208-.5522847-.0309279-1.025072.3917153-1.056.944-.0309279.5522847.3917153 1.025072.944 1.056 2.514.14 5.224.211 8.056.211 2.028 0 16.45-.083 22.891-2.352-2.974 2.942-11.23 6.656-21.38 6.409zm-10.184-55.797c.037-.071.348-.264 1.162-.264.4049201.00424112.808861.04068943 1.208.109 2.0696446.40199935 4.0648139 1.12113729 5.915 2.132 4.628 2.422 6.523 5 6.36 5.628l-.015.057c-.063.1-.646.428-2.366.15-2.0697605-.402097-4.0649649-1.12158491-5.915-2.133-1.8856239-.94294747-3.6143275-2.17142323-5.125-3.642-1.219-1.268-1.276-1.938-1.224-2.037zm1.987 5.317c1.0889445.79760795 2.236915 1.51132866 3.434 2.135 2.041202 1.1099828 4.2419253 1.8973047 6.524 2.334.5026153.0851566 1.0112378.1299663 1.521.134.211 0 .406-.011.59-.029-1.3311077 5.5379381-1.7976227 11.248446-1.383 16.929.681 8.174 6.5 12.763 11.938 15.835-5.2882238-.6391989-10.6113582-.9458018-15.938-.918-5.3279761-.0279692-10.6524516.278634-15.942.918 5.442-3.072 11.257-7.661 11.942-15.835.5253549-7.2745041-.3873512-14.5812501-2.686-21.503z"/></g></g></svg>