<svg height="512" viewBox="0 0 48 60" width="512" xmlns="http://www.w3.org/2000/svg"><g id="Page-1" fill="none" fill-rule="evenodd"><g id="040---Wine-Stopper" fill="rgb(0,0,0)" fill-rule="nonzero" transform="translate(0 -1)"><path id="Shape" d="m7.852 59.166c.16594765 1.0558559 1.0747706 1.8344635 2.14358602 1.8364547 1.06881538.0019913 1.98053328-.7732244 2.15041398-1.8284547l3.862-23.174h.992c.5522847 0 1-.4477153 1-1s-.4477153-1-1-1h-.659l.5-3h1.159c.5522847 0 1-.4477153 1-1s-.4477153-1-1-1h-.826l.5-3h1.326c.5522847 0 1-.4477153 1-1s-.4477153-1-1-1h-.993l.251-1.507c.144878-.8696245-.1000898-1.7589551-.6698266-2.4317376s-1.4065634-1.0609055-2.2881734-1.0612624h-1.3v-3.082c3.1357441-1.8104227 4.6645504-5.5012875 3.7274066-8.99875559-.9371437-3.49746811-4.1065612-5.92944764-7.7274066-5.92944764-3.62084543 0-6.79026285 2.43197953-7.72740661 5.92944764-.93714376 3.49746809.59166249 7.18833289 3.72740661 8.99875559v3.082h-1.3c-.88178479.0000631-1.7188883.3880602-2.28885018 1.060881s-.81505646 1.5623222-.67014982 2.432119l.252 1.507h-.993c-.55228475 0-1 .4477153-1 1s.44771525 1 1 1h1.326l.5 3h-.826c-.55228475 0-1 .4477153-1 1s.44771525 1 1 1h1.159l.5 3h-.659c-.55228475 0-1 .4477153-1 1s.44771525 1 1 1h.992zm2.32-.312c-.022794.0779815-.0952481.1308319-.17646524.1287193-.08121711-.0021126-.15082573-.0586582-.16953476-.1377193l-3.806-22.845h7.96zm-6.172-49.854c0-3.3137085 2.6862915-6 6-6s6 2.6862915 6 6-2.6862915 6-6 6c-3.31233757-.0033074-5.99669262-2.6876624-6-6zm4 7.737c1.31027661.3506696 2.6897234.3506696 4 0v2.263h-4zm-4.285 5.427c-.0481551-.2896511.03342422-.5858294.22309875-.8099727.18967454-.2241433.46827484-.3535986.76190125-.3540273h10.6c.2938013.0001352.5726782.1294648.7625777.3536463.1898995.2241816.2716057.5205304.2234223.8103537l-.307 1.836h-11.958zm.639 3.836h11.292l-.5 3h-10.292zm.833 5h9.626l-.5 3h-8.626z"/><path id="Shape" d="m11 6c0-.55228475-.4477153-1-1-1-2.209139 0-4 1.790861-4 4 0 .55228475.44771525 1 1 1s1-.44771525 1-1c0-1.1045695.8954305-2 2-2 .5522847 0 1-.44771525 1-1z"/><path id="Shape" d="m47.929 32.649c-.005-.015-.007-.032-.013-.047-.0394144-.0916957-.0923342-.1769741-.157-.253l-5.759-6.718v-9.054c.0036355-2.5374279-.8020689-5.0098896-2.3-7.058l-5.389-7.419c-.4938239-.68000864-1.2785097-1.08841433-2.1187882-1.1027663-.8402784-.01435198-1.6384536.36701842-2.1552118 1.0297663-.5112192.64920365-.6908863 1.49948016-.486 2.3l2.449 9.796v11.508l-5.759 6.718c-.0646658.0760259-.1175856.1613043-.157.253-.006.015-.007.032-.013.047-.0360524.09615-.0566411.1974056-.061.3 0 .018-.01.032-.01.05v5c.0052514 1.2667854.8056491 2.3937454 2 2.816v2.185c-.5522847 0-1 .4477153-1 1s.4477153 1 1 1v2c-.5522847 0-1 .4477153-1 1s.4477153 1 1 1v2c-.5522847 0-1 .4477153-1 1s.4477153 1 1 1v2c-.5522847 0-1 .4477153-1 1s.4477153 1 1 1v1c0 1.6568542 1.3431458 3 3 3h12c1.6568542 0 3-1.3431458 3-3v-1c.5522847 0 1-.4477153 1-1s-.4477153-1-1-1v-2c.5522847 0 1-.4477153 1-1s-.4477153-1-1-1v-2c.5522847 0 1-.4477153 1-1s-.4477153-1-1-1v-2c.5522847 0 1-.4477153 1-1s-.4477153-1-1-1v-2.184c1.1943509-.4222546 1.9947486-1.5492146 2-2.816v-5c0-.018-.009-.032-.01-.05-.0043544-.1029197-.0249415-.2045053-.061-.301zm-16.439-28.809c-.0505117-.20198677-.0051275-.41598117.1230234-.58007693.128151-.16409575.3247698-.25998318.5329766-.25992307.2164502.0002092.4197516.10390405.547.279l5.4 7.416c1.2447238 1.7081234 1.912709 3.7684744 1.907 5.882l.0000363 8.423h-6.0000363v-11c-.0000086-.0819231-.0100841-.1635346-.03-.243zm1.97 23.16h7.08l4.286 5h-15.652zm10.54 31c0 .5522847-.4477153 1-1 1h-12c-.5522847 0-1-.4477153-1-1v-1h14zm0-3h-14v-2h14zm0-4h-14v-2h14zm0-4h-14v-2h14zm-14-4v-2h14v2zm16-5c0 .5522847-.4477153 1-1 1h-16c-.5522847 0-1-.4477153-1-1v-4h18z"/></g></g></svg>