<svg height="512" viewBox="0 0 60 60" width="512" xmlns="http://www.w3.org/2000/svg"><g id="Page-1" fill="none" fill-rule="evenodd"><g id="041---Wine-Pair-Fish" fill="rgb(0,0,0)" fill-rule="nonzero"><path id="Shape" d="m17 52.189v-18.543c2.4348083-.4398425 4.72029-1.4837303 6.647-3.036 2.4147671-2.0941153 3.5932358-5.2761692 3.125-8.438l-2.667-20.323c-.1309359-.99476099-.9786589-1.73855018-1.982-1.739h-17.246c-1.00306351.00264349-1.8499946.74579028-1.983 1.74l-2.666 20.322c-.46823576 3.1618308.71023289 6.3438847 3.125 8.438 2.20071166 1.7600976 4.84913634 2.8707943 7.647 3.207l-.018 18.372c-4.663.574-8.314 2.467-9.525 4.934-.30728086.6171194-.2732747 1.3493149.08988307 1.9352963.36315778.5859815 1.0037277.9422634 1.69311693.9417037h21.52c.688094.0007426 1.3277466-.35404 1.6914475-.9381595s.3998359-1.3146812.0955525-1.9318405c-1.214-2.474-4.865-4.367-9.547-4.941zm-12.123-50.079h17.246l1.513 11.538c-1.5666573-.6337614-3.2464839-.9400507-4.936-.9-2.3425-.0559451-4.6538294.545444-6.672 1.736-1.740715 1.0403923-3.7406864 1.5660436-5.768 1.516-1.06426917.0159139-2.12544165-.1187526-3.152-.4zm-2.666 20.32.634-4.83c1.11656244.2787218 2.26425042.4131509 3.415.4 2.35211113.0580114 4.6733454-.5448166 6.7-1.74 1.7323814-1.0352032 3.7224727-1.558729 5.74-1.51 1.8287314-.0606017 3.6401716.3711047 5.245 1.25l.844 6.433c.3600513 2.4851702-.5529785 4.9849179-2.43 6.653-2.5293156 1.9625393-5.6585408 2.9918386-8.859 2.914-3.2010635.0764135-6.33035134-.9546725-8.859-2.919-1.87668827-1.6674558-2.78971865-4.1664537-2.43-6.651zm13.811 35.57c-.008 0-.014 0-.022 0h-4c-.011 0-.021.006-.032.006l-8.72.005c.892-1.818 4.1-3.36 7.977-3.837 1.0075214-.1194898 1.7684457-.9704389 1.775-1.985v-18.209c.167.005.332.02.5.02.5 0 1-.023 1.5-.063v18.252c.0065543 1.0145611.7674786 1.8655102 1.775 1.985 3.879.477 7.085 2.019 7.985 3.826z"/><path id="Shape" d="m9.6 27.341c-.86406135-.2982422-1.66946855-.7449387-2.38-1.32-.84005219-.7884823-1.23033883-1.9447064-1.04-3.081.06964337-.3651081-.06896199-.738719-.35988198-.9700623s-.68614862-.2822439-1.02619168-.132161c-.34004305.1500828-.56878852.4763834-.59392634.8472233-.2758533 1.8102759.3755013 3.6381257 1.734 4.866.88896419.7287886 1.89988467 1.2945114 2.986 1.671.10863594.0395062.22340469.0594807.339.059.48505446-.0010516.899411-.3500482.9829056-.8278637.0834945-.4778154-.1879522-.9466509-.6439056-1.1121363z"/><path id="Shape" d="m59.556 31.879c-1.5526299-.9150641-3.3178962-1.4074079-5.12-1.428-1.154-7.039-4.008-12.879-7.821-15.481 2.929-1.579 6.457-6.045 7.224-11.211.1121955-.73537054-.1861987-1.47330174-.778-1.924-.5846717-.4405707-1.3633351-.52649218-2.03-.224-.265.122-.56.266-.881.422-1.965.954-4.936 2.4-8.15 2.4s-6.185-1.443-8.15-2.4c-.321-.156-.616-.3-.889-.426-.665186-.29816578-1.4399148-.21080764-2.022.228-.5914683.45005666-.8898707 1.18724109-.778 1.922.767 5.168 4.3 9.634 7.213 11.2-3.8 2.613-6.656 8.455-7.81 15.5-1.8020573.0209174-3.5672414.5132383-5.12 1.428-.275636.184371-.4419456.4933923-.444.825-.0833031 4.3643596 1.9545544 8.4982245 5.467 11.09 1.007 6.833 3.6 12.61 7.167 15.546.4449144.3674226 1.0039835.5682772 1.581.568.1751393.0004567.3498167-.0179833.521-.055.7465881-.1547292 1.381135-.6429839 1.722-1.325l1.565-3.1 1.632 3.066c.3530314.6694346.990313 1.1429111 1.7331577 1.2876715.7428446.1447605 1.5112791-.0547797 2.0898423-.5426715 2.842-2.4 5.057-6.615 6.327-11.722 0-.014.009-.026.01-.04.293-1.183.529-2.416.716-3.682 3.5136239-2.5914394 5.5523329-6.7258921 5.469-11.091-.0000608-.3337349-.1666054-.6454434-.444-.831zm-21.046-15.279c.5795147-.3965721.908595-1.0680174.867-1.769-.0385202-.6866251-.4344365-1.3027059-1.043-1.623-2.143-1.155-5.481-4.943-6.2-9.782.254.117.537.255.846.4 2.129 1.034 5.349 2.6 9.023 2.6s6.894-1.564 9.023-2.6c.2716143-.1395426.5514643-.26243616.838-.368-.714 4.8-4.052 8.591-6.19 9.743-.6109618.3199961-1.0089073.9374191-1.048 1.626-.0414344.7024525.2893315 1.3749973.871 1.771 3.517 2.416 6.123 8.082 7.089 14.927v.008c.2755085 1.9535902.413847 3.9240784.414 5.897.0053248 2.6991834-.2539144 5.3923909-.774 8.041-2.9909098-2.0912063-6.5784002-3.1580514-10.226-3.041-3.6492915-.1170459-7.2383509.950901-10.23 3.044-.5180059-2.6498606-.7758974-5.3439895-.77-8.044.0009509-1.9696075.1396224-3.936738.415-5.887v-.008c.968-6.849 3.575-12.516 7.095-14.935zm-12.5 16.69c1.0268391-.4914481 2.1402949-.776183 3.277-.838-.1901487 1.6525345-.2859707 3.3145621-.287 4.978 0 1.138.046 2.263.129 3.369-1.9307765-2.031303-3.0411414-4.7055119-3.117-7.507zm20.178 24.423c-.1135395.0987018-.2668541.1383266-.414.107-.1514153-.027709-.2816282-.1236165-.353-.26l-2.538-4.779c-.1725123-.3328541-.5191772-.5387591-.894-.531-.3736718.0041328-.7138603.2162685-.882.55l-2.435 4.831c-.0679262.1390732-.1971067.238272-.349.268-.1473062.034232-.3021349-.0028084-.418-.1-2.474-2.035-4.425-5.657-5.615-10.112 1.928-1.987 5.652-3.257 9.71-3.257s7.778 1.27 9.707 3.253c-1.176 4.394-3.092 7.984-5.519 10.03zm8.683-16.913c.084-1.106.129-2.231.129-3.369-.0018004-1.6631403-.0982899-3.3248292-.289-4.977 1.1366541.0629037 2.2499651.3479412 3.277.839-.0758586 2.8014881-1.1862235 5.475697-3.117 7.507z"/><circle id="Oval" cx="38" cy="49.43" r="1"/></g></g></svg>