<svg height="60" viewBox="0 0 60 60" width="60" xmlns="http://www.w3.org/2000/svg"><g id="Page-1" fill="none" fill-rule="evenodd"><g id="042---Wine-Pair-Meat" fill="rgb(0,0,0)" fill-rule="nonzero"><path id="Shape" d="m35 50c-.5522847 0-1 .4477153-1 1v2c0 .5522847.4477153 1 1 1s1-.4477153 1-1v-2c0-.5522847-.4477153-1-1-1z"/><path id="Shape" d="m41 50c-.5522847 0-1 .4477153-1 1v2c0 .5522847.4477153 1 1 1s1-.4477153 1-1v-2c0-.5522847-.4477153-1-1-1z"/><path id="Shape" d="m54 33c-1.6551351.0966677-3.2203401.7852159-4.41 1.94-.1488785-.6211315-.3461477-1.2296567-.59-1.82 7.78-4.67 4-13.44 4-13.53-.1684522-.3754337-.5496875-.6093509-.9606998-.5894632s-.7678824.2895196-.8993002.6794632c-1.7 5.1-7.51 7.1-8.24 7.33-3.0663459-1.3415841-6.5536541-1.3415841-9.62 0-.75-.24-6.54-2.22-8.24-7.33-.1314178-.3899436-.4882879-.6595755-.8993002-.6794632s-.7922476.2140295-.9606998.5894632c0 .09-3.82 8.86 4 13.53-.2608864.5888829-.4748843 1.1974394-.64 1.82-1.2227969-1.1836793-2.8394014-1.874475-4.54-1.94-3.23 0-5.7 3.26-5.8 3.4-.2666667.3555556-.2666667.8444444 0 1.2.1.14 2.57 3.4 5.8 3.4 1.473061-.0703804 2.88061-.6298812 4-1.59v8.59c.0000001 6.6274169 5.3725831 11.9999997 12 11.9999997s11.9999999-5.3725828 12-11.9999997v-8.59c1.11939.9601188 2.526939 1.5196196 4 1.59 3.23 0 5.7-3.26 5.8-3.4.2666667-.3555556.2666667-.8444444 0-1.2-.1-.14-2.57-3.4-5.8-3.4zm-2.24-10.19c.713188 3.3617679-.8003371 6.8034273-3.76 8.55-.8104753-1.1899564-1.8263243-2.2261224-3-3.06 2.7325497-1.1449289 5.0788604-3.0504387 6.76-5.49zm-3.76 15.19v9h-20v-9c0-5.5228475 4.4771525-10 10-10s10 4.4771525 10 10zm-23.76-15.19c1.6811396 2.4395613 4.0274503 4.3450711 6.76 5.49-1.1736757.8338776-2.1895247 1.8700436-3 3.06-2.9596629-1.7465727-4.473188-5.1882321-3.76-8.55zm-2.24 16.19c-1.4360265-.1755011-2.7515914-.890482-3.68-2 .9284086-1.109518 2.2439735-1.8244989 3.68-2 1.4360265.1755011 2.7515914.890482 3.68 2-.9284086 1.109518-2.2439735 1.8244989-3.68 2zm16 19c-5.1356533.0000645-9.4364347-3.8900895-9.95-9h19.95c-.5154198 5.1290129-4.8452193 9.0258325-10 9zm16-19c-1.4360265-.1755011-2.7515914-.890482-3.68-2 .9284086-1.109518 2.2439735-1.8244989 3.68-2 1.4360265.1755011 2.7515914.890482 3.68 2-.9284086 1.109518-2.2439735 1.8244989-3.68 2z"/><path id="Shape" d="m30 38c0 1.6568542 1.3431458 3 3 3s3-1.3431458 3-3-1.3431458-3-3-3-3 1.3431458-3 3zm3-1c.5522847 0 1 .4477153 1 1s-.4477153 1-1 1-1-.4477153-1-1 .4477153-1 1-1z"/><path id="Shape" d="m43 41c1.6568542 0 3-1.3431458 3-3s-1.3431458-3-3-3-3 1.3431458-3 3 1.3431458 3 3 3zm0-4c.5522847 0 1 .4477153 1 1s-.4477153 1-1 1-1-.4477153-1-1 .4477153-1 1-1z"/><path id="Shape" d="m26.55 57.14c-.1635858-.35819-.3719127-.694201-.62-1-1.6-2-4.93-3.5-8.93-4v-10.48c0-.5522847-.4477153-1-1-1s-1 .4477153-1 1v10.53c-.0062125 1.0240635.7621301 1.8873698 1.78 2 3.42.42 6.33 1.66 7.59 3.25.1481067.1805223.2786955.3747314.39.58h-21.51c.89-1.82 4.1-3.36 8-3.84 1.0178699-.1126302 1.7862125-.9759365 1.78-2v-18.18h.5c.6447187.0037058 1.2891167-.0296827 1.93-.1.5522847-.0524671.9574671-.5427153.905-1.095s-.5427153-.9574671-1.095-.905c-1.0507201.1049305-2.1092799.1049305-3.16 0-2.71406849-.1623153-5.31208247-1.1575222-7.44-2.85-1.88982405-1.6580628-2.80557484-4.1641298-2.43-6.65l.64-4.83c1.11483192.2788948 2.26088955.4133297 3.41.4 2.35306792.0732421 4.6789877-.5195035 6.71-1.71 1.7353397-1.0368812 3.7291141-1.5604637 5.75-1.51 2.0020895-.0588169 3.9794272.4545971 5.7 1.48.3200418.1604458.7014387.137562 1-.06.3243109-.2218656.4886292-.6130996.42-1l-.72-5.45-1-7.86c-.1267071-1.00595785-.9861249-1.7579484-2-1.75h-17.27c-1.01051856-.00857081-1.86866421.7380159-2 1.74l-1.88 14.29-.79 6c-.46870706 3.1634842.71194007 6.3470822 3.13 8.44 2.19518685 1.7832715 4.85146139 2.9068132 7.66 3.24v18.37c-4.66.57-8.31 2.46-9.52 4.93-.30106335.6141635-.26738964 1.3395889.0892745 1.9232211.35666414.5836323.98685002.9445225 1.6707255.9567789h21.52c.6835576-.0053417 1.3170415-.35943 1.6797015-.9388756.3626601-.5794456.4042581-1.30398.1102985-1.9211244zm-21.67-55.03h17.24l1 7.83v.05l.48 3.65c-1.5650369-.6311768-3.2430562-.9341052-4.93-.89-2.3427855-.0593265-4.6547449.5437933-6.67 1.74-1.7353863 1.0280356-3.7233838 1.5510106-5.74 1.51-1.0635558.0149258-2.12393004-.1197249-3.15-.4z"/><path id="Shape" d="m5.31 21.82c-.54652967-.0709328-1.04742798.3136856-1.12.86-.27430053 1.8124983.37924987 3.6416882 1.74 4.87.89249699.7309862 1.9084758 1.2965477 3 1.67.10899753.0395611.22404517.0598636.34.06.48524222-.000569.900049-.3494149.9838148-.8273727.0837658-.4779577-.1876865-.9470759-.6438148-1.1126273-.86914859-.30291-1.67816817-.7565026-2.39-1.34-.82749597-.7947925-1.20279028-1.950699-1-3.08.027815-.2670744-.052947-.5341138-.22410748-.7410111-.17116047-.2068973-.41833675-.3362667-.68589252-.3589889z"/></g></g></svg>