<svg height="512" viewBox="0 0 60 60" width="512" xmlns="http://www.w3.org/2000/svg"><g id="Page-1" fill="none" fill-rule="evenodd"><g id="043---Wine-Pair-Chicken" fill="rgb(0,0,0)" fill-rule="nonzero"><path id="Shape" d="m56.861 29.978c-1.6466444-2.4663432-3.4956926-4.7913674-5.528-6.951 1.268-2.529.905-5.294-.973-6.522-.8105908-.5121223-1.780834-.7092307-2.727-.554-.1957075-1.5566089-1.2451953-2.8731969-2.719-3.411-1.3205274-.3479833-2.7272277.0066185-3.725.939-.5024789-1.2466652-1.6003878-2.1553833-2.919-2.416-1.753-.278-3.471.823-4.488 2.75-1.1635537-.7050032-2.6067004-.7664859-3.826-.163-.8785067.4908475-1.5201509 1.317262-1.778 2.29-.4282881 1.6949377-.17443 3.4902565.707 5 .109.207.224.4.343.585-.2334564.377439-.4415813.7699699-.623 1.175l-7.155 4.705c-.3190082.2098447-.4906713.5830377-.4424207.9618159.0482507.3787783.3079917.6970168.6694207.8201841l4.886 1.67c-.7883557.8082591-1.3713316 1.7938312-1.7 2.874-.5010767 1.8106039-.0867045 3.7518071 1.11 5.2.9768165 1.1519084 2.3909679 1.8426669 3.9 1.905-2.666 4.073-4.427 8.827-2.794 11.411.8114499 1.1880031 2.2035081 1.8423011 3.636 1.709.7431607-.0092244 1.4830101-.1007833 2.206-.273 5.3856227-1.313928 10.5242104-3.4874784 15.218-6.437h.005c.317-.212 7.8-5.219 10.01-7.812 2.517-2.952 2.474-4.294-.253-7.985-.301-.411-.649-.91-1.04-1.471zm-7.6-11.8c.881.576 1.055 1.963.541 3.378-.7724922-.6898694-1.5881436-1.3298317-2.442-1.916.0340924-.0557067.0625656-.114663.085-.176.1410119-.4916802.2327965-.9961607.274-1.506.5231732-.1376467 1.0797398-.0587036 1.544.219zm-4.93-3.723c.835.25 1.41 1.325 1.431 2.7v.027.018c.0048919.4600109-.0492159.9187509-.161 1.365-1.2183122-.6665043-2.5154452-1.1774961-3.861-1.521.040554-.4181357.0462403-.8389211.017-1.258.753-1.048 1.76-1.586 2.576-1.332zm-6.378-1.416c.884.139 1.6 1.153 1.787 2.531 0 .025 0 .048.007.073.0411122.3484672.0488139.7000668.023 1.05-1.0459143-.1185917-2.1026256-.1044798-3.145.042-.332022-.61722-.7468626-1.1861539-1.233-1.691.6-1.319 1.637-2.156 2.563-2.006zm-7.853 3.472c.1164253-.4598669.4096784-.8551835.816-1.1.9372357-.3393613 1.9866295-.0785932 2.656.66h.007c.3854979.3395705.7220373.7309658 1 1.163-.4313482.1495463-.8522765.3276056-1.26.533-.03.012-.055.032-.084.047-.989484.5162391-1.8871688 1.1919521-2.657 2-.5603752-1.0046612-.7305668-2.1806924-.478-3.303zm-2.286 9.1c-.1431327 1.2275015-.0411619 2.4712056.3 3.659l-3.857-1.319zm-.314 12.033c-.7731619-.9409725-1.0385555-2.2000055-.711-3.373.3562987-1.0622474 1.0170262-1.9963075 1.9-2.686l.991.339c.610626.5317962 1.2756377.9977066 1.984 1.39.991.587 1.6.975 1.7 1.512.094.508-.158 1.577-1.9 3.785l-.043.057c-1.3936903.4861868-2.9430095.0815699-3.921-1.024zm29.133.494c-2.019 2.367-9.417 7.325-9.6 7.445-4.498233 2.8050947-9.4114991 4.8817073-14.558 6.153-1.341.3-3.07.456-3.708-.552-1.162-1.839.714-6.818 4.271-11.334 1.843-2.341 2.55-4 2.292-5.39-.271-1.455-1.48-2.173-2.648-2.866-1.1021431-.4767357-1.9981433-1.3308966-2.527-2.409-.9083046-2.6253222-.3392033-5.5360981 1.491-7.626 1.6858812-1.9418926 4.1523079-3.0274432 6.723-2.959.7206769.0013881 1.4395856.0713703 2.147.209 7.069 1.352 12.036 8.483 14.7 12.315.4.578.762 1.093 1.077 1.52 2.338 3.156 2.107 3.42.343 5.494z"/><path id="Shape" d="m17 52.189v-18.527c1.1207159-.2175646 2.2161279-.5496397 3.269-.991.336587-.1339333.5744221-.4394253.6217193-.7985797s-.10334-.7158045-.3937774-.932311c-.2904374-.2165064-.6752546-.2590107-1.0059419-.1111093-1.8998418.7829109-3.9361886 1.180935-5.991 1.171-3.200288.0786191-6.32934892-.9515651-8.857-2.916-1.89292654-1.6576934-2.80948906-4.1664581-2.431-6.654l.634-4.83c1.11630724.2782586 2.26360491.4126813 3.414.4 2.35211113.0580114 4.6733454-.5448166 6.7-1.74 1.7323814-1.0352032 3.7224727-1.558729 5.74-1.51 1.8284694-.0611604 3.6397331.3705863 5.244 1.25l.684 5.206c.0723493.5478665.5751335.9333493 1.123.861s.9333493-.5751335.861-1.123l-2.512-19.083c-.1253192-.99876852-.9734025-1.74876543-1.98-1.751h-17.24c-1.00441453-.00150973-1.85300026.7446457-1.98 1.741l-2.671 20.322c-.4677225 3.1628615.71099947 6.3457125 3.126 8.441 2.19991555 1.7594716 4.84790511 2.8688909 7.645 3.203l-.018 18.372c-4.663.574-8.314 2.467-9.525 4.934-.30728086.6171194-.2732747 1.3493149.08988307 1.9352963.36315778.5859815 1.0037277.9422634 1.69311693.9417037h21.52c.688094.0007426 1.3277466-.35404 1.6914475-.9381595s.3998359-1.3146812.0955525-1.9318405c-1.214-2.474-4.865-4.367-9.547-4.941zm-12.12-50.079h17.238l1.517 11.536c-1.5661961-.6341458-3.2457769-.9404523-4.935-.9-2.3425-.0559451-4.6538294.545444-6.672 1.736-1.7405063 1.0410922-3.74049148 1.5674406-5.768 1.518-1.06391173.0154052-2.12468294-.1192532-3.151-.4zm-1.632 55.9c.892-1.818 4.1-3.36 7.977-3.837 1.0071457-.1194418 1.7679437-.969821 1.775-1.984v-18.209c.167.005.332.02.5.02.5 0 1-.032 1.5-.072v18.261c.0065543 1.0145611.7674786 1.8655102 1.775 1.985 3.879.477 7.085 2.019 7.985 3.826z"/><path id="Shape" d="m5.314 21.82c-.26309929-.0337089-.5288124.0384921-.73867181.2007159-.20985942.1622238-.34667009.4011783-.38032819.6642841-.2758533 1.8102759.3755013 3.6381257 1.734 4.866.89046985.7293009 1.90312359 1.2950462 2.991 1.671.10863594.0395062.22340469.0594807.339.059.48505446-.0010516.899411-.3500482.9829056-.8278637.0834945-.4778154-.1879522-.9466509-.6439056-1.1121363-.86406135-.2982422-1.66946855-.7449387-2.38-1.32-.84005219-.7884823-1.23033883-1.9447064-1.04-3.081.03400898-.2631052-.03792436-.5289418-.19996692-.7389969-.16204256-.2100552-.40091265-.347112-.66403308-.3810031z"/><path id="Shape" d="m36 22c-1.6568542 0-3 1.3431458-3 3s1.3431458 3 3 3 3-1.3431458 3-3-1.3431458-3-3-3zm0 4c-.5522847 0-1-.4477153-1-1s.4477153-1 1-1 1 .4477153 1 1-.4477153 1-1 1z"/></g></g></svg>