<svg height="512" viewBox="0 0 60 60" width="512" xmlns="http://www.w3.org/2000/svg"><g id="Page-1" fill="none" fill-rule="evenodd"><g id="044---Wine-Pair-Lamb" fill="rgb(0,0,0)" fill-rule="nonzero"><path id="Shape" d="m52.411 28.374c.4123841-.8403721.6271896-1.7638989.628-2.7-.0118056-2.8176624-1.915084-5.275927-4.64-5.993-.7065356-2.4145798-2.6129354-4.2911609-5.0383527-4.9595461-2.4254174-.6683853-5.0239812-.033261-6.8676473 1.6785461-1.619325-.858397-3.5556384-.8726268-5.1874045-.0381218-1.631766.834505-2.753671 2.412745-3.0055955 4.2281218-2.022874.9063047-3.3292426 2.9114105-3.341 5.128-.0004348.9247304.2291215 1.8350515.668 2.649-3.4297236.6200624-6.2887654 2.9819454-7.545 6.233-.1563159.3622526-.0850253.7825536.182 1.073 1.5859545 1.4007857 3.6270148 2.177334 5.743 2.185.076 9.468 6.769 17.142 14.993 17.142s14.917-7.674 14.993-17.138c2.1158328-.0084861 4.1566143-.7849283 5.743-2.185.2670253-.2904464.3383159-.7107474.182-1.073-1.2509857-3.2391683-4.0927436-5.5975207-7.507-6.23zm-22.874-6.113c.4196621-.1257089.7086431-.5099361.713-.948.0283523-1.9737187 1.6330879-3.5606584 3.607-3.567.789231-.0032672 1.5574095.254433 2.185.733.423974.3226663 1.0264776.256259 1.37-.151 1.3070779-1.5490378 3.3880004-2.2090869 5.3489618-1.6966406 1.9609614.5124464 3.4529177 2.1061746 3.8350382 4.0966406.0811762.4190324.4193655.7403524.842.8 1.7020453.2332617 3.0893686 1.4816384 3.5002938 3.1497241.4109253 1.6680857-.2377759 3.4180277-1.6367091 4.4152012-1.3989332.9971736-3.2647599 1.0396121-4.7075847.1070747-.4209456-.2691941-.9759885-.1863646-1.3.194-1.1970923 1.4186047-2.9803206 2.2075318-4.8352597 2.1391919-1.8549391-.0683398-3.5752804-.9863458-4.6647403-2.4891919-.3074974-.4229853-.8889681-.537623-1.334-.263-1.1115494.6906854-2.5103609.7237727-3.6533236.0864152-1.1429627-.6373576-1.8500318-1.8447605-1.8466764-3.1534152.0104666-1.5910318 1.0547141-2.9902505 2.577-3.453zm-4.157 8.2c-.6896623 1.7364559-1.1235223 3.5638551-1.288 5.425-1.3676819-.0330779-2.7007391-.4367623-3.857-1.168 1.0000654-2.1100123 2.8845198-3.6677546 5.145-4.253zm13.62 22.539c-7.168 0-13-6.862-13-15.3-.0071514-2.5035956.5270513-4.9791441 1.566-7.257 1.5404296.9870238 3.4673942 1.1544885 5.155.448 1.4580835 1.6133731 3.50798 2.5666635 5.6812949 2.6420473s4.2843372-.7335806 5.8507051-2.2420473c2.0510738.954725 4.460828.7054136 6.273-.649.9794813 2.2237074 1.4816263 4.6281441 1.474 7.058 0 8.438-5.832 15.3-13 15.3zm14.909-17.109c-.1630796-1.8611669-.5962907-3.6886711-1.286-5.425 2.2585991.5859601 4.141113 2.1432459 5.14 4.252-1.1559484.730156-2.4872785 1.1353584-3.854 1.173z"/><path id="Shape" d="m36 37c0-1.6568542-1.3431458-3-3-3s-3 1.3431458-3 3 1.3431458 3 3 3 3-1.3431458 3-3zm-4 0c0-.5522847.4477153-1 1-1s1 .4477153 1 1-.4477153 1-1 1-1-.4477153-1-1z"/><path id="Shape" d="m45 34c-1.6568542 0-3 1.3431458-3 3s1.3431458 3 3 3 3-1.3431458 3-3-1.3431458-3-3-3zm0 4c-.5522847 0-1-.4477153-1-1s.4477153-1 1-1 1 .4477153 1 1-.4477153 1-1 1z"/><path id="Shape" d="m37.789 48.342c-.7131183-1.4392764-2.1827553-2.3476664-3.789-2.342-.5522847 0-1 .4477153-1 1s.4477153 1 1 1c.8477508-.0028588 1.623394.4764887 2 1.236l.1.211c.2468713.4942949.8477051.6948713 1.342.448s.6948713-.8477051.448-1.342z"/><path id="Shape" d="m44 46c-1.6062447-.0056664-3.0758817.9027236-3.789 2.342l-.106.211c-.2468713.4942949-.0462949 1.0951287.448 1.342s1.0951287.0462949 1.342-.448l.1-.211c.3774007-.7611356 1.1554496-1.2407707 2.005-1.236.5522847 0 1-.4477153 1-1s-.4477153-1-1-1z"/><path id="Shape" d="m25.932 56.166c-1.6-2-4.931-3.492-8.932-3.976v-10.53c0-.5522847-.4477153-1-1-1s-1 .4477153-1 1v10.53c.0028674 1.016506.7677711 1.8691714 1.778 1.982 3.421.419 6.329 1.661 7.591 3.243.1471608.183212.2779939.3789598.391.585l-21.513.013c.9-1.82 4.1-3.364 7.969-3.84 1.0116552-.1126352 1.77858-.9651082 1.784-1.983v-18.2c.165 0 .325.011.5.011.6433656.0027394 1.2863775-.0306465 1.926-.1.5243803-.0373235.9303266-.4742948.929-1-.0031011-.2850984-.1265572-.5556054-.3398966-.7447536s-.496686-.2793154-.7801034-.2482464c-1.0468138.1139038-2.1023881.1229487-3.151.027-2.7130205-.1685526-5.30954367-1.1630548-7.441-2.85-1.8932529-1.6578982-2.80984754-4.1671279-2.431-6.655l.634-4.83c1.11630724.2782586 2.26360491.4126813 3.414.4 2.35211113.0580114 4.6733454-.5448166 6.7-1.74 1.7323814-1.0352032 3.7224727-1.558729 5.74-1.51 2.0041559-.0584566 3.9833576.4563787 5.705 1.484.0325746.0123739.0659934.0223995.1.03.0611967.0252711.1248798.0440408.19.056.0682296.0126308.137691.0173287.207.014.034 0 .065.011.1.007s.048-.02.074-.026c.0690164-.0155217.1360946-.0386636.2-.069.0548682-.02298.1074363-.0511056.157-.084.0512219-.0374019.0987695-.0795919.142-.126.0480486-.0478058.0906427-.1007969.127-.158.0189452-.0199716.0363295-.0413677.052-.064.0117107-.0327063.0213957-.0661029.029-.1.0260625-.0623787.0451777-.1274373.057-.194.0117166-.0659807.0160766-.1330577.013-.2.0042081-.0331756.0065451-.0665617.007-.1l-.724-5.447v-.051l-1.036-7.861c-.1253192-.99876852-.9734025-1.74876543-1.98-1.751h-17.24c-1.00441453-.00150973-1.85300026.7446457-1.98 1.741l-2.671 20.322c-.4677225 3.1628615.71099947 6.3457125 3.126 8.441 2.19754014 1.7636388 4.84667406 2.8738841 7.645 3.204l-.021 18.37c-4.656.574-8.306 2.466-9.522 4.935-.30728086.6171194-.2732747 1.3493149.08988307 1.9352963.36315778.5859815 1.0037277.9422634 1.69311693.9417037h21.52c.6932439.0031923 1.3378247-.3558771 1.7-.947.3623328-.5785173.397933-1.3037782.094-1.915-.1694427-.3467413-.3781431-.6728777-.622-.972zm-21.052-54.056h17.238l1.025 7.828c0 .018 0 .036.006.054l.486 3.655c-1.5661961-.6341458-3.2457769-.9404523-4.935-.9-2.3425-.0559451-4.6538294.545444-6.672 1.736-1.7406106 1.0407423-3.74058895 1.5667421-5.768 1.517-1.06391173.0154052-2.12468294-.1192532-3.151-.4z"/><path id="Shape" d="m5.314 21.82c-.54694578-.0667719-1.04583219.3188731-1.119.865-.2758533 1.8102759.3755013 3.6381257 1.734 4.866.89046985.7293009 1.90312359 1.2950462 2.991 1.671.10863594.0395062.22340469.0594807.339.059.48505446-.0010516.899411-.3500482.9829056-.8278637.0834945-.4778154-.1879522-.9466509-.6439056-1.1121363-.86406135-.2982422-1.66946855-.7449387-2.38-1.32-.84005219-.7884823-1.23033883-1.9447064-1.04-3.081.03400898-.2631052-.03792436-.5289418-.19996692-.7389969-.16204256-.2100552-.40091265-.347112-.66403308-.3810031z"/></g></g></svg>