<svg height="512" viewBox="0 0 60 60" width="512" xmlns="http://www.w3.org/2000/svg"><g id="Page-1" fill="none" fill-rule="evenodd"><g id="045---Wine-Time" fill="rgb(0,0,0)" fill-rule="nonzero" transform="translate(-1 -1)"><path id="Shape" d="m22.327 42.97c.4737004-.2834409.6281249-.8971107.345-1.371-.8452565-1.4167999-1.5078517-2.9348553-1.972-4.518-.1009275-.3427963-.3770681-.605709-.7244022-.6897014s-.7130934.023696-.9595.2825-.3360253.6294051-.2350978.9722014c.5135598 1.7445624 1.2457025 3.4171677 2.179 4.978.1359583.2279291.3569465.3924635.6142878.4573615.2573414.064898.529926.0248361.7577122-.1113615z"/><path id="Shape" d="m31.284 46.807 2.829-2.828c.3792591-.3921093.3742848-1.0158267-.01118-1.4018372-.3854649-.3860104-1.0091746-.391867-1.40182-.0131628l-2.83 2.829c-.2599566.2510745-.3642126.6228779-.2726972.9725073.0915155.3496295.3645604.6226744.7141899.7141899.3496294.0915154.7214328-.0127406.9725073-.2726972z"/><path id="Shape" d="m32.7 49.636c.3904999.3903819 1.0235001.3903819 1.414 0l2.828-2.829c.3789722-.3923789.3735524-1.0160848-.0121814-1.4018186s-1.0094397-.3911536-1.4018186-.0121814l-2.828 2.829c-.3903819.3904999-.3903819 1.0235001 0 1.414z"/><path id="Shape" d="m49 22h-9v-12c0-.55228475-.4477153-1-1-1s-1 .44771525-1 1v13c0 .5522847.4477153 1 1 1h10c.5522847 0 1-.4477153 1-1s-.4477153-1-1-1z"/><path id="Shape" d="m58.07 12.052c-.008-.017-.008-.035-.017-.052s-.026-.025-.036-.041c-1.9261462-3.30216556-4.6738344-6.04985379-7.976-7.976-.016-.01-.025-.026-.041-.036s-.035-.009-.052-.017c-6.776932-3.90814335-15.123068-3.90814335-21.9 0-.017.008-.035.008-.052.017s-.025.026-.041.036c-3.3021656 1.92614621-6.0498538 4.67383444-7.976 7.976-.01.016-.026.025-.036.041s-.009.035-.017.052c-1.8483549 3.2042706-2.8527432 6.825436-2.919 10.524-.322-.288-.638-.58-.944-.886l-1.283-1.284c.516687-1.4503388.0225407-3.0679297-1.2164173-3.981949-1.2389579-.9140194-2.930334-.9087591-4.1635827.012949l-2.157-2.157c-.37509602-.375248-.88392663-.5860729-1.4145-.5860729s-1.03940398.2108249-1.4145.5860729l-2.828 2.828c-.37555409.3751365-.58657331.8841815-.58657331 1.415s.21101922 1.0398635.58657331 1.415l2.156 2.156c-.92535401 1.2330969-.93257761 2.9271007-.01777343 4.1680444.91480417 1.2409438 2.53513463 1.7351404 3.98677343 1.2159556l1.289 1.284c1.3868842 1.3914395 2.5960889 2.9492982 3.6 4.638 1.000583 1.6879145 1.7863363 3.4942402 2.339 5.377 1.2088075 4.1022668 3.4251523 7.8367408 6.447 10.863l8.485 8.485 1.414 1.414c1.9539823 1.9492694 5.1170177 1.9492694 7.071 0l8.484-8.489c1.9525763-1.9526137 1.9525763-5.1183863 0-7.071l-.312-.313c1.1944787-.4316553 2.3488838-.9670316 3.45-1.6.007 0 .015 0 .022-.009s.011-.012.019-.017c3.2622295-1.9003443 5.9822931-4.6059468 7.9-7.858.0515918-.0552497.0965624-.1163291.134-.182.0179789-.043269.0330132-.0877036.045-.133 3.879364-6.7569419 3.8686966-15.0680388-.028-21.815zm-52.241 3.642 2.121 2.121-2.829 2.83-2.121-2.123zm8.488 16.677c-1.0903952-1.8289184-2.4026779-3.5160431-3.907-5.023l-1.046-1.048.707-.707c.2659578-.2497527.3747909-.624527.2839745-.9778857-.0908163-.3533586-.36686715-.6292143-.72028999-.7197806-.35342283-.0905663-.72812.0185319-.97768451.2846663l-1.216 1.22c-.026.014-.054.021-.08.038-.64285309.425388-1.5034776.2942683-1.99048535-.3032587-.48700774-.597527-.4418315-1.4669096.10448535-2.0107413l.353-.353 2.121-2.122 2.475-2.475c.543996-.5474974 1.4146635-.5928266 2.0125727-.1047797.5979091.4880469.7278783 1.3501517.3004273 1.9927797-.015.024-.019.051-.033.076l-1.219 1.219c-.2757776.2475966-.3920012.6274112-.3020031.9869356.0899981.3595243.3714563.639789.7313597.7282585.3599035.0884696.7392208-.0293669.9856434-.3061941l.708-.708 1.045 1.042c.8673936.8623562 1.7957975 1.6610911 2.778 2.39.02.017.042.031.064.047 2.4163765 1.7978533 5.1309768 3.1553227 8.019 4.01 1.8831943.5523393 3.6898904 1.3381076 5.378 2.339 1.3985561.8386995 2.7079889 1.8177585 3.908 2.922l-12.686 12.684c-2.4376294-2.6532714-4.2361496-5.8289012-5.258-9.284-.5994968-2.0439749-1.4524591-4.0048813-2.539-5.837zm9.189 16.558 12.728-12.729 7.071 7.071-12.728 12.729zm21.92.707-8.485 8.485c-.5626237.562719-1.3257625.8788593-2.1215.8788593s-1.5588763-.3161403-2.1215-.8788593l-.707-.707 12.728-12.728.707.707c.562719.5626237.8788593 1.3257625.8788593 2.1215s-.3161403 1.5588763-.8788593 2.1215zm4.419-9.851-.979-1.7c-.1773616-.3119508-.5082732-.5049532-.8671183-.5057421s-.6906021.1907567-.8693336.5019247c-.1787314.3111679-.1770325.694247.0044519 1.0038174l.979 1.7c-1.0182677.5222546-2.0799124.9552102-3.173 1.294l-8-8c-1.5076047-1.504423-3.1954036-2.8167076-5.025-3.907-1.8320804-1.0866157-3.7929964-1.9395823-5.837-2.539-2.5207615-.7465843-4.8991422-1.908905-7.037-3.439-.005-.065-.011-.127-.014-.194h1.973c.5522847 0 1-.4477153 1-1s-.4477153-1-1-1h-1.949c.1354844-2.8276092.8743535-5.5935094 2.167-8.112l1.694.978c.1518701.0881308.3244113.1343718.5.134.4525881-.0000199.8487411-.3040116.9658809-.7411777.1171399-.4371661-.0739396-.8985084-.4658809-1.1248223l-1.693-.977c1.5398274-2.37480959 3.5631904-4.3981726 5.938-5.938l.977 1.692c.2780058.47421361.886647.63512861 1.3626943.36027453s.640996-.88241457.3693057-1.36027453l-.978-1.693c2.5184906-1.29264652 5.2843908-2.03151556 8.112-2.167v1.949c0 .55228475.4477153 1 1 1s1-.44771525 1-1v-1.949c2.8276092.13548444 5.5935094.87435348 8.112 2.167l-.978 1.693c-.1814844.30957042-.1831833.69264947-.0044519 1.00381742.1787315.31116795.5104885.50271357.8693336.50192468.3588451-.00078888.6897567-.19379132.8671183-.5057421l.977-1.692c2.3748096 1.5398274 4.3981726 3.56319041 5.938 5.938l-1.692.977c-.3119508.1773616-.5049532.5082732-.5057421.8671183s.1907567.6906021.5019247.8693336c.3111679.1787314.694247.1770325 1.0038174-.0044519l1.693-.978c1.2926465 2.5184906 2.0315156 5.2843908 2.167 8.112h-1.949c-.5522847 0-1 .4477153-1 1s.4477153 1 1 1h1.958c-.1403002 2.8279608-.8821348 5.5934767-2.176 8.112l-1.693-.978c-.3095704-.1814844-.6926495-.1831833-1.0038174-.0044519-.311168.1787315-.5027136.5104885-.5019247.8693336s.1937913.6897567.5057421.8671183l1.7.981c-1.5404848 2.3763007-3.5661447 4.3999159-5.944 5.938z"/></g></g></svg>