<svg height="512" viewBox="0 0 59 61" width="512" xmlns="http://www.w3.org/2000/svg"><g id="Page-1" fill="none" fill-rule="evenodd"><g id="046---Wine-Tasting" fill="rgb(0,0,0)" fill-rule="nonzero"><path id="Shape" d="m43.177.663c-.7956215-.79881836-2.0600277-.88436681-2.956-.2l-19.59 15.05c-.2834903.2177534-.429276.570206-.3824412.9245925.0468349.3543864.2791749.6568669.6095.7935s.708451.0866609.9919412-.1310925l4.45-3.42c.7389406 1.263721 1.6447528 2.422138 2.693 3.444 1.9904614 2.0909435 4.5281461 3.5808458 7.324 4.3 2.4742749.624415 4.7216667 1.9354802 6.483 3.782 1.7390005 1.6433334 2.9968106 3.7298876 3.638 6.035l-3.493 4.549c-.5848214-.446955-1.0916654-.9875886-1.5-1.6l-5.321-7.969c-.9787291-1.4951565-2.6807685-2.3545923-4.4649766-2.2545663-1.784208.100026-3.379521 1.1443175-4.185 2.7395s-.6987525 3.4989098.2799766 4.9940663l1.968 3.569c.3390876.4941142.5197596 1.0797286.518 1.679.0093436 1.6503036-1.3013162 3.0058216-2.951 3.052-.9669752.0270291-1.8913036-.398162-2.5-1.15l-3.889-5.05c-3.3446842-4.2251532-4.3322109-9.8524761-2.626-14.964l2.42-7.259c.5854009-1.69894043.2129094-3.5813961-.9753994-4.92936312-1.1883088-1.34796703-3.0091926-1.95358337-4.7681324-1.58585559-1.7589398.36772777-3.1846997 1.65209453-3.7334682 3.36321871l-3.089 9.3c-2.35884584 7.0292291-1.00438738 14.7744741 3.6 20.586l2.1 2.662-13.315 13.32c-.25995658.2510745-.3642126.6228779-.27269716.9725073.09151544.3496295.3645604.6226744.71418984.7141899.34962943.0915154.72143285-.0127406.97250732-.2726972l13.154-13.154 1.857 2.354-9.385 9.386c-.25995658.2510745-.3642126.6228779-.27269716.9725073.09151544.3496295.3645604.6226744.71418984.7141899.34962943.0915154.72143285-.0127406.97250732-.2726972l9.218-9.219 1.461 1.853c1.0108377 1.2774809 2.2931243 2.3141723 3.754 3.035l14.251 7.08c2.068511 1.030219 4.3481373 1.565635 6.659 1.564 3.065 0 8.117-.01 11.222-.02.9059224-.0048476 1.7611389-.4188121 2.3269301-1.1263424s.781557-1.6328449.5870699-2.5176576l-2.13-9.7c-1.505615-4.908877-5.5815296-8.5970114-10.616-9.606l-.054-.009c-.3149737-.0684803-.6244772-.1600613-.926-.274l13.81-17.985c.6887661-.8893076.6104302-2.15167-.183-2.949zm2.172 38.357c4.2701309.8665616 7.7313302 3.9864295 9.035 8.144l2.109 9.621c.0648427.2967917-.0087457.6069668-.2.843-.1861131.2358505-.470566.3727273-.771.371-3.1.01-8.153.02-11.216.02-2.0041072.0019459-3.9811986-.4622854-5.775-1.356l-14.247-7.078c-1.1942414-.5910904-2.2424361-1.4398242-3.069-2.485l-7.91-10.03c-4.1871368-5.283077-5.41969989-12.3247898-3.276-18.716l3.091-9.3c.4043149-1.22269237 1.5451995-2.04986393 2.833-2.054.3244517.00073221.6466361.0540919.954.158.754317.24897231 1.3782335.78842641 1.7335498 1.49887115.3553162.71044473.4127034 1.53323835.1594502 2.28612885l-2.419 7.257c-1.9216757 5.7477856-.8133763 12.0771643 2.947 16.83l3.888 5.051c1.006988 1.2452358 2.5339313 1.9538704 4.135 1.919 2.7319489-.0733949 4.9041291-2.3171072 4.889-5.05.0051235-.9680538-.2782616-1.9156882-.814-2.722l-1.963-3.561c-.9198303-1.3793312-.5473312-3.2431697.832-4.163s3.2431697-.5473312 4.163.832l5.319 7.964c1.2789616 1.9136388 3.2610206 3.2456716 5.516 3.707.0183826.0054768.0370846.0098184.056.013zm11.6-21.459-9.049 11.776c-.7946682-2.1027115-2.0547945-3.9983709-3.686-5.545-1.9864291-2.0788788-4.5151945-3.5601118-7.3-4.276-2.4847904-.6263427-4.7412659-1.9438915-6.508-3.8-.9897777-.9598494-1.832218-2.0607504-2.5-3.267l13.536-10.399c.0988339-.07205031.2355902-.06054744.321.027l15.17 15.17c.0833824.0860739.0893914.220847.014.314z"/><path id="Shape" d="m24.9 21.792c.2933078-.2143423.4473039-.5708914.4022646-.9313682s-.2820288-.6681747-.6190579-.8037604-.7210796-.0777302-1.0032067.1511286c-1.7695853 1.2989391-2.768803 3.39955-2.66 5.592.1392056 1.3956838.5244885 2.7556851 1.138 4.017.2349972.5000938.8309062.7149971 1.331.48.5000938-.2349972.7149971-.8309062.48-1.331-.5100005-1.0484583-.8338228-2.1776068-.957-3.337-.0517678-1.5142171.6567297-2.9541032 1.888-3.837z"/><path id="Shape" d="m42.056 5.2c-.3550698-.35542374-.9187242-.39223033-1.317-.086l-2.971 2.286c-.2965477.21287509-.4535372.5704257-.4095689.932811.0439684.36238529.2819078.672019.6207581.80780096.3388504.13578196.7247655.0761352 1.0068108-.15561196l2.276-1.749 2.253 2.253c.3923789.37897221 1.0160848.37355237 1.4018186-.01218142.3857338-.3857338.3911536-1.00943969.0121814-1.40181858z"/></g></g></svg>