<svg height="60" viewBox="0 0 60 60" width="60" xmlns="http://www.w3.org/2000/svg"><g id="Page-1" fill="none" fill-rule="evenodd"><g id="047---Wine-Vinyard" fill="rgb(0,0,0)" fill-rule="nonzero" transform="translate(-1)"><path id="Shape" d="m60.06 33c-1.0200366-.0476976-2.0420663-.0309977-3.06.05v-6c2.55-1.75 4-5.72 4-11 0-10.24-6.09-15.59-6.35-15.81-.374224-.32008772-.925776-.32008772-1.3 0-1.5771457 1.49286915-2.8772482 3.25342459-3.84 5.2-.9692968-1.94779947-2.2761792-3.70836644-3.86-5.2-.374224-.32008772-.925776-.32008772-1.3 0-3.8475951 3.78827081-6.1014294 8.90411701-6.3 14.3l-4.45-3.34c-.1730962-.1298221-.3836298-.2-.6-.2h-15v-4.59l2 2c.3733503.37558779.8804232.58776721 1.41.59h2.59c1.1045695 0 2-.8954305 2-2v-4c0-1.1045695-.8954305-2-2-2h-2.59c-.5295768.00223279-1.0366497.21441221-1.41.59l-2.41 2.41h-4.18l1.3-1.29c.2536586-.25365857.3527235-.62337399.2598781-.96987805-.0928455-.34650405-.363496-.61715453-.7100001-.71000001-.346504-.09284548-.7162194.00621948-.969878.25987806l-3 3c-.0910406.09510371-.1624056.20724868-.21.33-.10001802.24346136-.10001802.51653864 0 .76.0475944.12275132.1189594.23489629.21.33l3 3c.1877666.18931265.4433625.29579832.71.29579832s.5222334-.10648567.71-.29579832c.1893127-.1877666.2957983-.44336246.2957983-.71s-.1064856-.5222334-.2957983-.71l-1.3-1.29h2.59v5.5l-11.6 8.7c-.25180584.1888544-.4.4852427-.4.8v8c-.68621574-.035193-1.37378426-.035193-2.06 0-.55228474.0331371-.97313707.5077153-.93999999 1.06.03313709.5522847.50771525.9731371 1.05999999.94h.44c.89 0 1.69 0 2.45.07 1.22.06 2.5.19 3.91.38 5.1470912.7343708 10.110076 2.4305379 14.63 5 1.7127868.9994901 3.3414844 2.1365685 4.87 3.4 1.1507067.9747347 2.2332441 2.0272016 3.24 3.15-1.4987735 1.3040074-2.8776256 2.7397539-4.12 4.29-4.0920365-4.4139369-9.3805302-7.541167-15.22-9-.5357162-.143594-1.086406.1742838-1.23.71s.1742838 1.086406.71 1.23c5.602184 1.3789084 10.6587352 4.414233 14.51 8.71-1.2729866 1.8015768-2.3396682 3.7403882-3.18 5.78-3.54-5.83-11.59-9.72-20.57-9.72h-.56c-.55228474.0331371-.97313707.5077153-.93999999 1.06.03313709.5522847.50771525.9731371 1.05999999.94h.44c9 0 17.16 4.31 19.66 10.29-.15.49-.3 1-.42 1.48-.1252036.535421.2053656 1.0714792.74 1.2.0763581.0097276.1536419.0097276.23 0 .4736615.0126631.8911882-.3088324 1-.77 1.5549002-6.0908128 5.0685128-11.5017762 10-15.4 2.5250932-2.057199 5.3129379-3.7689154 8.29-5.09v.29c0 1.6568542 1.3431458 3 3 3s3-1.3431458 3-3v-2.46c1.0133333-.2666667 2.0133333-.4966667 3-.69v1.15c0 1.6568542 1.3431458 3 3 3s3-1.3431458 3-3v-1.92c.87 0 1.71-.08 2.5-.08h.44c.3572656.0214359.6988285-.1493554.8960254-.4480385s.2200687-.6798809.06-1c-.1600687-.320119-.4787598-.5305256-.8360254-.5519615zm-6.06-30.58c3.2857327 3.75433798 5.0666643 8.591348 5 13.58 0 4.85-1.3 8.44-3.47 9.61-.9539068.5192883-2.1060932.5192883-3.06 0-.773056-.4663205-1.4054296-1.1332501-1.83-1.93.8794656-2.1182521 1.3412664-4.386509 1.36-6.68.2729969-.0286468.5443384.0674658.7384363.2615637s.2902105.4654394.2615637.7384363v4c0 .5522847.4477153 1 1 1s1-.4477153 1-1v-7c-.0248952-.2720885.0724355-.5411659.2656348-.7343652s.4622767-.29053.7343652-.2656348c.5522847 0 1-.4477153 1-1s-.4477153-1-1-1c-.340422.001195-.6783068.0586354-1 .17v-1.17c0-.5522847-.4477153-1-1-1s-1 .4477153-1 1v4.17c-.3216932-.1113646-.659578-.168805-1-.17-.0805635-2.4313797-.5463529-4.8345832-1.38-7.12.8057329-2.0001037 1.9490209-3.84695348 3.38-5.46zm-9 0c3.2873899 3.7533537 5.0685641 8.5910226 5 13.58 0 6-2 10-5 10s-5-4-5-10c-.0714218-4.9894661 1.7101177-9.82812744 5-13.58zm-7 14.58c.0288989 1.00497.1224254 2.0070397.28 3h-9l-9.28-7h12.67zm-15 16.92c-4.0799411-2.1087722-8.4673173-3.5599812-13-4.3v-2.62h13zm1-8.92h-15c-.55228475 0-1 .4477153-1 1v3.34c-.69-.09-1.36-.15-2-.2v-7.14h22v15.06c-.9655864-.716897-1.9668695-1.3844191-3-2v-9.06c0-.5522847-.4477153-1-1-1zm-2.59-22h2.59v4h-2.59l-2-2zm-4.41 10.25 9 6.75h-18zm16.14 28.47c-.9789712-1.0872348-2.0278677-2.1094078-3.14-3.06v-16.66h8.76c.4704344 1.9907108 1.6151971 3.75732 3.24 5v9.49c-3.16986 1.3473428-6.1487397 3.105756-8.86 5.23zm11.86-1.72c-.5522847 0-1-.4477153-1-1v-11.11c.6585984.1466815 1.3414016.1466815 2 0v11.11c0 .5522847-.4477153 1-1 1zm3-5.52v-7.48c.5748561-.4028647 1.0841708-.8919417 1.51-1.45.4133541.5621523.9168102 1.0520927 1.49 1.45v6.79c-1 .21-2 .43-3 .69zm6 3.52c-.5522847 0-1-.4477153-1-1v-9.11c.6585984.1466815 1.3414016.1466815 2 0v9.11c0 .5522847-.4477153 1-1 1z"/><path id="Shape" d="m60.06 41h-.56c-6.3021745-.0616121-12.5097471 1.5351135-18 4.63-.3108211.1786328-.5027321.5095174-.5034421.8680127s.1898889.6901375.5.87.692621.1806201 1.0034421.0019873c5.1845622-2.924326 11.0478929-4.4315469 17-4.37h.44c.5522847.0331371 1.0268629-.3877153 1.06-.94s-.3877153-1.0268629-.94-1.06z"/><path id="Shape" d="m36.32 49.42c-2.807714 2.524412-4.9507742 5.701224-6.24 9.25-.1052634.2578795-.0982025.5479764.0194824.8004293.1176848.2524529.3353284.4443834.6005176.5295707.0996432.0119472.2003568.0119472.3 0 .4272885.0025692.809-.2666378.95-.67 1.1686028-3.2435507 3.1277252-6.1444268 5.7-8.44.2625902-.2429406.3756263-.6075172.2965287-.9563973-.0790977-.3488801-.3383122-.6290605-.68-.735-.3416879-.1059395-.7139385-.0215433-.9765287.2213973z"/><path id="Shape" d="m60.06 49h-.56c-8.73 0-16.76 3.71-20.5 9.46-.2974116.4640673-.1632328 1.0812901.3 1.38.1609536.1039672.3483884.1595034.54.16.3399921-.0005664.6564045-.1738399.84-.46 3.32-5.11 10.88-8.54 18.82-8.54h.44c.5522847.0331371 1.0268629-.3877153 1.06-.94s-.3877153-1.0268629-.94-1.06z"/><path id="Shape" d="m2.06 39h.44c1.1353202-.0046788 2.27013648.0487244 3.4.16h.1c.55228473.0276142 1.0223857-.3977153 1.04999994-.95.02761423-.5522847-.39771522-1.0223857-.94999994-1.05-1.38042667-.1610365-2.77128228-.2145309-4.16-.16-.55228474.0331371-.97313707.5077153-.93999999 1.06.03313709.5522847.50771525.9731371 1.05999999.94z"/><path id="Shape" d="m44 18v4c0 .5522847.4477153 1 1 1s1-.4477153 1-1v-7c-.0248952-.2720885.0724355-.5411659.2656348-.7343652s.4622767-.29053.7343652-.2656348c.5522847 0 1-.4477153 1-1s-.4477153-1-1-1c-.340422.001195-.6783068.0586354-1 .17v-1.17c0-.5522847-.4477153-1-1-1s-1 .4477153-1 1v4.17c-.3216932-.1113646-.659578-.168805-1-.17-.5522847 0-1 .4477153-1 1s.4477153 1 1 1c.2729969-.0286468.5443384.0674658.7384363.2615637s.2902105.4654394.2615637.7384363z"/></g></g></svg>