<svg height="512" viewBox="0 0 60 60" width="512" xmlns="http://www.w3.org/2000/svg"><g id="Page-1" fill="none" fill-rule="evenodd"><g id="048---Wine-Cheers" fill="rgb(0,0,0)" fill-rule="nonzero" transform="translate(0 -1)"><path id="Shape" d="m13.545 30c-.6604563-.4165504-1.2434695-.9447475-1.723-1.561-.5281628-.8021846-.621194-1.8150241-.248-2.7.1793319-.5134397-.0845485-1.0760658-.5939895-1.2664602-.5094411-.1903944-1.07764267.0612561-1.2790105.5664602-.61146197 1.5229352-.41684519 3.2511924.518 4.6.6185479.8085199 1.3756082 1.5009118 2.236 2.045.4650238.3009952 1.0860048.1680238 1.387-.297s.1680238-1.0860048-.297-1.387z"/><path id="Shape" d="m40.964 31.082c-1.0518341.0219011-2.0947485-.1970117-3.049-.64-.6692164-.4051682-1.0968234-1.1131119-1.144-1.894-.0357265-.3554793-.2583852-.6648958-.5841025-.8116953-.3257174-.1467996-.7050093-.1086798-.9950001.1-.2899908.2086797-.446624.556216-.4108974.9116953.1127133 1.4600698.9507179 2.7660949 2.231 3.477 1.2348772.5825947 2.5867495.874725 3.952.854.5522847 0 1-.4477153 1-1s-.4477153-1-1-1z"/><path id="Shape" d="m50.392 51.314-3.613-15.355c2.2871785-.8562134 4.2940352-2.3264089 5.8-4.249 1.6558437-2.2923974 2.026906-5.2714546.984-7.9l-6.315-16.7c-.3337269-.87701585-1.2638561-1.37282848-2.178-1.161l-14.626 3.438c-.155062.03805158-.304372.09656497-.444.174-.1394723-.07701646-.2883954-.13550997-.443-.174l-14.625-3.441c-.9134842-.21092957-1.8426019.28414466-2.177 1.16l-6.315 16.703c-1.04348181 2.6284719-.67238387 5.6078151.984 7.9 1.50596483 1.9225911 3.5128215 3.3927866 5.8 4.249l-3.616 15.356c-4.062-.428-7.541.47-9.078 2.34-.41031846.4966097-.53496601 1.1699562-.32960699 1.780538s.7115803 1.071746 1.33860699 1.219462l7.428 1.748 3.391.8 7.425 1.747c.1413262.0328394.2859091.0496123.431.05.5671825-.0009956 1.1030202-.2603157 1.4557203-.7044999.3527002-.4441841.4838435-1.024848.3562797-1.5775001-.543-2.364-3.254-4.713-7.085-6.148l3.659-15.515c.143 0 .29.025.432.025 1.9960071.0284066 3.9710846-.4095483 5.768-1.279 2.5032171-1.3154612 4.162244-3.8171984 4.4-6.635l.8-7.947.8 7.947c.237756 2.8178016 1.8967829 5.3195388 4.4 6.635 1.7959386.8706337 3.7703368 1.3099596 5.766 1.283.142 0 .289-.021.432-.025l3.655 15.512c-3.831 1.43-6.542 3.784-7.083 6.141-.1299686.5533199-.0002374 1.1357024.3523026 1.581539.3525401.4458366.8893194.7063505 1.4576974.707461.1454173-.0004483.2903248-.01722.432-.05l7.425-1.75 3.391-.8 7.427-1.747c.627891-.1463898 1.1354605-.6070176 1.3419056-1.2178019.2064451-.6107844.0824164-1.2848923-.3279056-1.7821981-1.535-1.868-5.01-2.767-9.077-2.339zm-4.978-43.395 4.113 10.881c-.7771118.4086735-1.6054836.7113672-2.463.9-1.6884461.4417234-3.4674998.3959555-5.131-.132-1.9703163-.6052-4.069523-.6543407-6.066-.142-1.3815667.2920388-2.6942868.8463889-3.867 1.633l-.984-9.751zm-30.828 0 14.4 3.389-.984 9.751c-1.1736201-.788269-2.4877804-1.3436723-3.871-1.636-1.9967512-.5128935-4.096431-.4637499-6.067.142-1.6630892.5283626-3.4419389.5741341-5.13.132-.8578332-.1886399-1.6865345-.4913312-2.464-.9zm-1.612 44.307c-.2110068.9249914.299497 1.8624152 1.191 2.187 3.017 1.112 5.323 2.908 5.857 4.537l-17.8-4.187c1.2-1.218 4.065-1.8 7.266-1.45.9442615.1105294 1.821798-.5031445 2.042-1.428l3.6-15.311c.1.026.2.059.295.082.386.091.774.143 1.162.2zm10.918-18.215c-2.5089486 1.1476952-5.3369626 1.3949301-8.007.7-2.7009027-.5661805-5.1234324-2.047675-6.858-4.194-1.23157638-1.7527273-1.50020337-4.0069398-.715-6l1.452-3.841c.8624721.4323456 1.7741005.7587186 2.715.972 2.0022358.5151035 4.1079763.4659557 6.084-.142 1.6565689-.5322387 3.4310007-.5783955 5.113-.133 1.5199093.3026171 2.9323025 1.0031199 4.093 2.03l-.561 5.558c-.186732 2.1335258-1.4324539 4.0306595-3.316 5.05zm12.216 0c-1.8843842-1.0199135-3.1302384-2.9183759-3.316-5.053l-.561-5.558c1.1609518-1.0270773 2.5737209-1.7275955 4.094-2.03 1.6816845-.4452 3.4557407-.399044 5.112.133 1.9764277.6075728 4.0823824.6567175 6.085.142.9407192-.2139002 1.8522745-.540247 2.715-.972l1.451 3.839c.7846484 1.9931318.5160537 4.2470727-.715 6-1.7345676 2.146325-4.1570973 3.6278195-6.858 4.194-2.6693402.6979861-5.497844.4524747-8.007-.695zm3.869 24.939c.529-1.624 2.837-3.423 5.858-4.537.8919611-.3246311 1.4025717-1.2626798 1.191-2.188l-3.614-15.365c.388-.061.776-.113 1.162-.2.1-.023.2-.056.3-.082l3.6 15.313c.2229914.9222815 1.098291 1.5338333 2.041 1.426 3.194-.348 6.06.23 7.266 1.45z"/><path id="Shape" d="m25.053 1.072c-1.061852-.25250366-2.1757163.11041918-2.885.94-.569708.64182739-.8372637 1.49691327-.735 2.349.2500972 1.52649242 1.5721676 2.64510218 3.119 2.639.5005971.01411118.9883673.16151237 1.413.427.3104599.19496746.6693987.29890727 1.036.3.623889-.00397118 1.2104875-.29771627 1.5873937-.79490331.3769061-.49718705.5012942-1.14132337.3366063-1.74309669-.864-3.069-2.62-3.939-3.872-4.117zm1.969 4.659c-.7182774-.44609672-1.5409627-.69607445-2.386-.725-.541-.023-1.152-.339-1.216-.882-.0361187-.28451711.0533055-.57067451.245-.784.1886468-.21474115.4601694-.33849141.746-.34.0967647.00368986.192914.01709046.287.04 1.068.153 1.842 1.059 2.326 2.692z"/><path id="Shape" d="m35.017 1.06c-1.317.19-3.078 1.06-3.942 4.129-.2256158.79024358.0574888 1.63790951.7127064 2.13397124s1.547898.53857619 2.2472936.10702876c.4246226-.26671359.9127811-.41516348 1.414-.43 1.5474201.00537249 2.8692802-1.11468987 3.118-2.642.1007195-.85144774-.1670603-1.70537193-.7359399-2.3468419-.5688795-.64146997-1.3846777-1.00939094-2.2420601-1.0111581-.1922924-.00108391-.3841181.01903766-.572.06zm1.564 3.063c-.064.543-.675.859-1.215.882-.8351385.0286216-1.6485955.27324442-2.361.71.46-1.622 1.233-2.523 2.366-2.688.0715215-.01660454.1445887-.02565414.218-.027.2860226.0009699.5579396.12436998.747.339.1916945.21332549.2811187.49948289.245.784z"/><circle id="Oval" cx="26" cy="13" r="1"/><circle id="Oval" cx="18" cy="3" r="1"/><circle id="Oval" cx="34" cy="13" r="1"/><circle id="Oval" cx="37" cy="16" r="1"/><path id="Shape" d="m10 5c.4043959-.00008635.7689341-.2437275.923678-.61734544s.0692299-.80366031-.216678-1.08965456l-2-2c-.39237889-.37897221-1.01608478-.37355237-1.40181858.01218142-.38573379.3857338-.39115363 1.00943969-.01218142 1.40181858l2 2c.18749273.18754937.44180519.29294336.707.293z"/><path id="Shape" d="m5 6c-.55228475 0-1 .44771525-1 1s.44771525 1 1 1h3c.55228475 0 1-.44771525 1-1s-.44771525-1-1-1z"/><path id="Shape" d="m51.293 1.293-2 2c-.2599566.25107447-.3642126.62287789-.2726972.97250732.0915155.34962944.3645604.6226744.7141899.71418984.3496294.09151544.7214328-.01274058.9725073-.27269716l2-2c.3789722-.39237889.3735524-1.01608478-.0121814-1.40181858-.3857338-.38573379-1.0094397-.39115363-1.4018186-.01218142z"/><path id="Shape" d="m51 7c0 .55228475.4477153 1 1 1h3c.5522847 0 1-.44771525 1-1s-.4477153-1-1-1h-3c-.5522847 0-1 .44771525-1 1z"/></g></g></svg>