<svg height="512" viewBox="0 0 60 60" width="512" xmlns="http://www.w3.org/2000/svg"><g id="Page-1" fill="none" fill-rule="evenodd"><g id="049---Wine-Glasses" fill="rgb(0,0,0)" fill-rule="nonzero"><path id="Shape" d="m18.878 26.762c-1.8855221-3.4616756-2.8749013-7.3401245-2.878-11.282v-3.816c.3623844-.1708005.6925654-.4028744.976-.686.9358265-.9353024 1.2626816-2.31917304.8442209-3.57434336-.4184607-1.25517031-1.5103593-2.16604317-2.8202209-2.35265664v-3.051c0-1.1045695-.8954305-2-2-2h-4c-1.1045695 0-2 .8954305-2 2v3.05c-1.52674912.21680046-2.73038916 1.40963-2.96095487 2.93436105-.23056572 1.52473105.56657031 3.02011255 1.96095487 3.67863895v3.817c-.00196766 1.9626456-.24682873 3.9175036-.729 5.82-.48576829 1.9015629-1.20771682 3.7348217-2.149 5.457-2.04602483 3.7565304-3.11930252 7.9654153-3.122 12.243v16c.00330612 2.7600532 2.23994685 4.9966939 5 5h12c2.7600532-.0033061 4.9966939-2.2399468 5-5v-16c-.0022045-2.1298345-.2675479-4.2512376-.79-6.316-.5276176-2.0634329-1.3110205-4.0528461-2.332-5.922zm-16.878 13.238h18v10h-18zm7-38h4v3h-4zm-4.122 25.719c1.02094744-1.8681143 1.80435498-3.8565317 2.332-5.919.52310186-2.0659993.78845274-4.1888064.79-6.32v-3.48h1c.55228475 0 1-.4477153 1-1s-.44771525-1-1-1h-1.724c-.0247599-.01139578-.05013211-.02141112-.076-.03-.75521783-.15335153-1.27136061-.85402033-1.19391328-1.62074882.07744732-.76672849.72328363-1.35002566 1.49391328-1.34925118h7c.7725704-.00336998 1.4213367.58061899 1.4989538 1.3492879.0776172.76866891-.4413052 1.47056654-1.1989538 1.6217121-.0252805.0080205-.0500014.01770842-.074.029h-1.726c-.5522847 0-1 .4477153-1 1s.4477153 1 1 1h1v3.48c.0034921 4.2762142 1.0767413 8.4836123 3.122 12.239.9410252 1.7219475 1.6629628 3.5548426 2.149 5.456.3968293 1.5803396.6313772 3.1970449.7 4.825h-17.94c.15287435-3.5992191 1.1266901-7.115833 2.847-10.281zm12.122 30.281h-12c-1.65685425 0-3-1.3431458-3-3v-3h18v3c0 1.6568542-1.3431458 3-3 3z"/><path id="Shape" d="m13 42h-4c-.55228475 0-1 .4477153-1 1s.44771525 1 1 1h4c.5522847 0 1-.4477153 1-1s-.4477153-1-1-1z"/><path id="Shape" d="m13 46h-4c-.55228475 0-1 .4477153-1 1s.44771525 1 1 1h4c.5522847 0 1-.4477153 1-1s-.4477153-1-1-1z"/><path id="Shape" d="m31.6 27.341c-.8638613-.2986907-1.669194-.7453458-2.38-1.32-.8396872-.7886833-1.2295889-1.9448786-1.039-3.081.0704163-.5481426-.3168574-1.0495837-.865-1.12s-1.0495837.3168574-1.12.865c-.274619 1.8105531.3773863 3.638121 1.736 4.866.8899657.7294963 1.9023284 1.2952682 2.99 1.671.1086141.0395881.2233976.0595652.339.059.4850545-.0010516.899411-.3500482.9829056-.8278637.0834945-.4778154-.1879522-.9466509-.6439056-1.1121363z"/><path id="Shape" d="m56.643 30.615c2.4160878-2.0963432 3.5955181-5.2805787 3.128-8.445l-2.671-20.31c-.1257806-.99837183-.9737384-1.74782945-1.98-1.75h-28.243c-1.0017711.00301994-1.8467737.74672478-1.977 1.74l-2.672 20.322c-.4682358 3.1618308.7102329 6.3438847 3.125 8.438 2.2010395 1.7595454 4.8493004 2.8701735 7.647 3.207l-.02 18.372c-4.663.574-8.313 2.467-9.525 4.934-.3068372.6174827-.2723453 1.3497655.091174 1.935673.3635193.5859076 1.0043092.9420202 1.693826.941327h32.52c.6884397.0005275 1.3283023-.3546333 1.6920031-.9391598.3637009-.5845264.3996257-1.3154661.0949969-1.9328402-1.22-2.474-4.869-4.366-9.547-4.938v-18.543c2.433332-.4383192 4.7175679-1.4808908 6.643-3.032zm-1.288-1.53c-2.5270527 1.9640067-5.6554532 2.9938528-8.855 2.915-.8547555-.0015657-1.7080602-.0704453-2.552-.206.5982063-.3473332 1.1667944-.7433381 1.7-1.184 2.4140802-2.094546 3.592093-5.2763873 3.124-8.438l-.893-6.807c1.2247085-.4394 2.5202697-.647924 3.821-.615 1.827528-.0622725 3.6382478.3673547 5.243 1.244l.845 6.432c.3784507 2.4894138-.5388199 4.9999378-2.433 6.659zm-13.849 23.559c-.8257681-.2003004-1.6625247-.3522255-2.506-.455v-18.543c.6818281-.1310214 1.3550678-.3033388 2.016-.516.9718372.31857 1.9706096.5481806 2.984.686l-.02 18.371c-.8334155.1004241-1.6597065.2530575-2.474.457zm15.129-39c-1.5661961-.6341458-3.2457769-.9404523-4.935-.9-1.3851313-.0233568-2.7650279.1758453-4.087.59l-1.473-11.224h8.979zm-29.758-11.534h17.246l1.513 11.537c-1.5666573-.6337614-3.2464839-.9400507-4.936-.9-2.3425-.0559451-4.6538294.545444-6.672 1.736-1.7406106 1.0407423-3.7405889 1.5667421-5.768 1.517-1.0642692.0159139-2.1254417-.1187526-3.152-.4zm-2.666 20.32.634-4.833c1.1165525.2787761 2.2642475.413206 3.415.4 2.3504104.0569647 4.6697557-.5458226 6.695-1.74 1.7342054-1.0349159 3.7260951-1.5574185 5.745-1.507 1.8284148-.0606183 3.6395372.3710947 5.244 1.25l.844 6.433c.360727 2.4848392-.55156 4.9846107-2.428 6.653-2.5295837 1.9627585-5.6592001 2.9920703-8.86 2.914-3.2010635.0764135-6.3303513-.9546725-8.859-2.919-1.8766883-1.6674558-2.7897187-4.1664537-2.43-6.651zm9.014 31.744c1.007302-.1199116 1.7680021-.97061 1.775-1.985v-18.209c.167.005.332.02.5.02.5 0 1-.023 1.5-.064v18.253c.0069979 1.01439.767698 1.8650884 1.775 1.985 3.879.477 7.085 2.019 7.985 3.826h-10.52c-.009 0-.017.005-.026.005l-10.967.006c.893-1.818 4.099-3.36 7.978-3.837zm16.553 0c3.873.477 7.078 2.021 7.982 3.828h-9.014c.0017953-.301596-.0666804-.5994649-.2-.87-.8095574-1.4237878-2.0515966-2.5526915-3.546-3.223.6162766-.3534231.9974027-1.008579 1-1.719v-18.21c.167 0 .332.02.5.02.5 0 1-.023 1.5-.063v18.253c.0028674 1.016506.7677711 1.8691714 1.778 1.982z"/></g></g></svg>