<svg height="512" viewBox="0 0 41 60" width="512" xmlns="http://www.w3.org/2000/svg"><g id="Page-1" fill="none" fill-rule="evenodd"><g id="050---Wine-Carafe" fill="rgb(0,0,0)" fill-rule="nonzero"><path id="Shape" d="m36.137 9.143c-3.0142581-2.83287415-7.0005094-4.40131744-11.137-4.382v-.761c0-2.209139-1.790861-4-4-4h-2c-2.209139 0-4 1.790861-4 4v7c-.1671009 2.13455-.8964911 4.1867793-2.114 5.948-2.2050651 3.6050497-5.04291896 6.7823484-8.377 9.379-3.354 2.525-4.655 6.975-3.482 11.9l4.452 18.7c.42419335 1.8043578 2.03645693 3.0780045 3.89 3.073h21.262c1.8535431.0050045 3.4658066-1.2686422 3.89-3.073l4.452-18.7c.7025948-2.6420527.5438996-5.4393619-.453-7.985 5.894-11.915-.315-19.15-2.383-21.099zm-31.546 19.857h30.818c1.1708421 1.4123229 1.8500685 3.1674297 1.935 5h-34.688c.08493154-1.8325703.76415787-3.5876771 1.935-5zm28.717-4.506c-2.3947619-2.2252065-4.4782349-4.7634511-6.194-7.546-1.0525229-1.5720302-1.7572347-3.3506858-2.067-5.217 2.3408541.0120868 4.5908574.9074452 6.3 2.507 3.253 3.055 2.999 7.055 1.961 10.256zm-16.308-13.494v-4h6v4c.0032727.6729607.0797222 1.3435699.228 2h-6.456c.1482778-.6564301.2247273-1.3270393.228-2zm2-9h2c1.1045695 0 2 .8954305 2 2v1h-6v-1c0-1.1045695.8954305-2 2-2zm-4.409 16c.5974148-.9558464 1.1151618-1.9592321 1.548-3h7.722c.4328382 1.0407679.9505852 2.0441536 1.548 3 2.0860092 3.385573 4.6907372 6.4225664 7.719 9h-26.256c3.02826277-2.5774336 5.6329908-5.614427 7.719-9zm16.04 40h-21.262c-.92655952.0023718-1.73253987-.6341248-1.945-1.536l-.824-3.464h26.8l-.825 3.464c-.2123753.9015104-1.0178139 1.5379063-1.944 1.536zm3.246-7h-27.754l-3.15-13.231c-.13643981-.5824977-.23365798-1.1734907-.291-1.769h34.636c-.057342.5955093-.1545602 1.1865023-.291 1.769zm1.614-24.673c-.186-.14-.37-.3-.556-.443 1.955-5.275 1.183-9.908-2.219-13.1-2.0857409-1.968958-4.8477176-3.0621509-7.716-3.054v-2.96812867c3.6258385-.01530389 7.119997 1.35802745 9.765 3.83812867 1.742 1.643 6.828 7.582 2.533 17.531-.5169858-.6811523-1.1249896-1.2881467-1.807-1.804z"/><path id="Shape" d="m6.968 38.747c-.13972805-.5346116-.68638836-.854728-1.221-.715-.53461163.1397281-.85472803.6863884-.715 1.221l2.61 10c.11493723.4395194.51170122.7463337.966.747.08564919-.0003559.17093891-.0111011.254-.032.25680486-.0669778.47645236-.2332923.61056211-.4623105s.1716809-.501954.10443789-.7586895z"/></g></g></svg>